<?xml version='1.0' encoding='UTF-8' standalone='no'?>
<svg xmlns:cc="http://creativecommons.org/ns#" xmlns:svg="http://www.w3.org/2000/svg" xmlns:sodipodi="http://sodipodi.sourceforge.net/DTD/sodipodi-0.dtd" inkscape:export-xdpi="400" xmlns:xlink="http://www.w3.org/1999/xlink" xmlns="http://www.w3.org/2000/svg" inkscape:version="0.92.4 (5da689c313, 2019-01-14)" inkscape:export-ydpi="400" width="785.3429" version="1.1" inkscape:export-filename="C:\Users\max-k\Desktop\SENSO-Trail-360\Bilder\SensoTrail_Logo.svg.png" id="svg28" xmlns:dc="http://purl.org/dc/elements/1.1/" sodipodi:docname="SensoTrail_Logo.svg" height="237.81061" xmlns:rdf="http://www.w3.org/1999/02/22-rdf-syntax-ns#" xmlns:inkscape="http://www.inkscape.org/namespaces/inkscape">
 <metadata id="metadata32">
  <rdf:RDF>
   <cc:Work rdf:about="">
    <dc:format>image/svg+xml</dc:format>
    <dc:type rdf:resource="http://purl.org/dc/dcmitype/StillImage"/>
    <dc:title/>
   </cc:Work>
  </rdf:RDF>
 </metadata>
 <sodipodi:namedview fit-margin-top="0" inkscape:current-layer="g1101" bordercolor="#666666" inkscape:pageshadow="2" inkscape:window-maximized="1" fit-margin-right="0" inkscape:zoom="2.5284424" objecttolerance="10" inkscape:cx="281.29434" inkscape:window-width="1920" id="namedview30" guidetolerance="10" inkscape:window-y="1071" inkscape:pageopacity="0" inkscape:window-height="1001" showgrid="false" gridtolerance="10" fit-margin-left="0" pagecolor="#ffffff" inkscape:window-x="-9" inkscape:cy="108.69612" borderopacity="1" fit-margin-bottom="0"/>
 <defs id="defs20">
  <linearGradient id="b">
   <stop stop-color="#3771c8" id="stop2" offset="0"/>
   <stop stop-color="#3771c8" id="stop4" offset=".128"/>
   <stop stop-color="#60f" id="stop6" offset="1" stop-opacity="0"/>
  </linearGradient>
  <linearGradient id="a">
   <stop stop-color="#fd5" id="stop9" offset="0"/>
   <stop stop-color="#fd5" id="stop11" offset=".1"/>
   <stop stop-color="#ff543e" id="stop13" offset=".5"/>
   <stop stop-color="#c837ab" id="stop15" offset="1"/>
  </linearGradient>
  <radialGradient fx="158.429" cy="578.08801" gradientUnits="userSpaceOnUse" gradientTransform="matrix(0,-1.98198,1.8439,0,-1031.402,454.004)" fy="578.08801" r="65" id="c" cx="158.429" xlink:href="#a"/>
  <radialGradient fx="147.694" cy="473.45499" gradientUnits="userSpaceOnUse" gradientTransform="matrix(0.17394,0.86872,-3.5818,0.71718,1648.348,-458.493)" fy="473.45499" r="65" id="d" cx="147.694" xlink:href="#b"/>
  <clipPath clipPathUnits="userSpaceOnUse" id="clipPath5010">
   <rect x="429.13074" width="44.324409" id="rect5012" height="114.64786" y="-218.77531" style="display:inline;opacity:1;fill:none;fill-opacity:0.74901961;stroke:#ffffff;stroke-width:2.81282115;stroke-miterlimit:4;stroke-dasharray:none;stroke-dashoffset:0;stroke-opacity:1"/>
  </clipPath>
 </defs>
 <rect x="0" width="785.3429" id="rect919" height="237.81061" ry="7.3873429" y="0" style="opacity:0.891;fill:#6c5d53;fill-opacity:1;stroke:none;stroke-width:1.16100001;stroke-miterlimit:4;stroke-dasharray:none;stroke-opacity:1"/>
 <g id="g1101">
  <g transform="matrix(0.93166651,0,0,0.93166651,65.780149,185.44525)" id="use5541" style="fill:#f59e00;fill-opacity:1">
   <path inkscape:connector-curvature="0" id="path368" d="M 69.234375,-11.734375 C 69.234375,-3.910156 65.351563,0 57.59375,0 H 18.953125 c -7.710937,0 -11.5625,-3.910156 -11.5625,-11.734375 v -30.59375 h 19.1875 v 26.171875 h 23.46875 v -25.1875 L 11.5625,-77.765625 c -2.78125,-2.675781 -4.171875,-6.09375 -4.171875,-10.25 V -116.5625 c 0,-7.875 3.851563,-11.8125 11.5625,-11.8125 H 57.59375 c 7.757813,0 11.640625,3.88281 11.640625,11.64062 v 28.718755 h -19.1875 V -112.21875 H 26.578125 V -89 l 38.46875,36.25 c 2.789063,2.625 4.1875,6.101562 4.1875,10.421875 z m 0,0" style="stroke:none"/>
  </g>
  <g transform="matrix(0.93166651,0,0,0.93166651,137.30978,185.44525)" id="use5543" style="fill:#f59e00;fill-opacity:1">
   <path inkscape:connector-curvature="0" id="path408" d="M 60.953125,0 H 7.71875 v -128.375 h 52.734375 v 16.96875 H 26.90625 v 37.5 h 28.875 v 16.640625 h -28.875 v 40.28125 h 34.046875 z m 0,0" style="stroke:none"/>
  </g>
  <g transform="matrix(0.93166651,0,0,0.93166651,199.13517,185.44525)" id="use5545" style="fill:#f59e00;fill-opacity:1">
   <path inkscape:connector-curvature="0" id="path420" d="m 72.765625,0 h -16.8125 L 25.1875,-80.796875 c 0.820313,3.9375 1.234375,7.027344 1.234375,9.265625 V 0 H 7.71875 v -128.375 h 16.8125 l 30.765625,79.15625 C 54.472656,-53.15625 54.0625,-56.242188 54.0625,-58.484375 V -128.375 h 18.703125 z m 0,0" style="stroke:none"/>
  </g>
  <g transform="matrix(0.93166651,0,0,0.93166651,274.10822,185.44525)" id="use5547" style="fill:#f59e00;fill-opacity:1">
   <path inkscape:connector-curvature="0" id="path372" d="M 69.234375,-11.734375 C 69.234375,-3.910156 65.351563,0 57.59375,0 H 18.953125 c -7.710937,0 -11.5625,-3.910156 -11.5625,-11.734375 v -30.59375 h 19.1875 v 26.171875 h 23.46875 v -25.1875 L 11.5625,-77.765625 c -2.78125,-2.675781 -4.171875,-6.09375 -4.171875,-10.25 V -116.5625 c 0,-7.875 3.851563,-11.8125 11.5625,-11.8125 H 57.59375 c 7.757813,0 11.640625,3.88281 11.640625,11.64062 v 28.718755 h -19.1875 V -112.21875 H 26.578125 V -89 l 38.46875,36.25 c 2.789063,2.625 4.1875,6.101562 4.1875,10.421875 z m 0,0" style="stroke:none"/>
  </g>
  <g transform="matrix(0.93166651,0,0,0.93166651,420.43391,185.44525)" id="use5553" style="fill:#f59e00;fill-opacity:1">
   <path inkscape:connector-curvature="0" id="path284" d="m 45.359375,-40.859375 h -39.125 V -58 h 39.125 z m 0,0" style="stroke:none"/>
  </g>
  <g transform="matrix(0.93166651,0,0,0.93166651,468.61971,185.44525)" id="use5557" style="fill:#f59e00;fill-opacity:1">
   <path inkscape:connector-curvature="0" id="path376" d="M 63.5,-111.40625 H 42.328125 V 0 H 23.21875 V -111.40625 H 2.046875 V -128.375 H 63.5 Z m 0,0" style="stroke:none"/>
  </g>
  <g transform="matrix(0.93166651,0,0,0.93166651,529.66248,185.44525)" id="use5559" style="fill:#f59e00;fill-opacity:1">
   <path inkscape:connector-curvature="0" id="path324" d="m 58.984375,-48.234375 h -18.625 V -67.1875 l -14.84375,0.328125 V 0 H 6.734375 v -82.859375 h 18.78125 v 3.046875 c 3.882813,-0.71875 7.738281,-1.429688 11.5625,-2.140625 4.644531,-0.820313 8.53125,-1.234375 11.65625,-1.234375 6.832031,0 10.25,3.367187 10.25,10.09375 z m 0,0" style="stroke:none"/>
  </g>
  <g transform="matrix(0.93166651,0,0,0.93166651,585.67243,185.44525)" id="use5561" style="fill:#f59e00;fill-opacity:1">
   <path inkscape:connector-curvature="0" id="path380" d="M 60.125,0 H 42.171875 v -2.875 c -4.273437,0.65625 -8.539062,1.3125 -12.796875,1.96875 -5.585937,0.8242187 -9.824219,1.234375 -12.71875,1.234375 -6.835937,0 -10.25,-3.363281 -10.25,-10.09375 V -39.625 c 0,-6.832031 3.523438,-10.25 10.578125,-10.25 h 25.34375 v -19.03125 h -17.96875 v 11.8125 H 7.390625 v -15.5 c 0,-6.84375 3.523438,-10.265625 10.578125,-10.265625 h 31.75 c 6.9375,0 10.40625,3.421875 10.40625,10.265625 z M 42.328125,-14.9375 v -22.21875 h -17.96875 v 22.875 z m 0,0" style="stroke:none"/>
  </g>
  <g transform="matrix(0.93166651,0,0,0.93166651,688.75953,185.44525)" id="use5565" style="fill:#f59e00;fill-opacity:1">
   <path inkscape:connector-curvature="0" id="path280" d="M 25.671875,0 H 7.21875 v -128.375 h 18.453125 z m 0,0" style="stroke:none"/>
  </g>
  <g transform="matrix(0.93166651,0,0,0.93166651,84.763787,181.97946)" id="use5569" style="fill:#6c5d53;fill-opacity:0.89411765">
   <path inkscape:connector-curvature="0" id="path328" d="m 3.609375,0.09375 c -0.40625,0 -0.792969,-0.0390625 -1.15625,-0.109375 C 2.085938,-0.0976563 1.742188,-0.21875 1.421875,-0.375 1.097656,-0.53125 0.800781,-0.726563 0.53125,-0.96875 L 1.265625,-1.875 c 0.332031,0.28125 0.691406,0.496094 1.078125,0.640625 0.394531,0.136719 0.816406,0.203125 1.265625,0.203125 0.625,0 1.101563,-0.113281 1.4375,-0.34375 C 5.390625,-1.601563 5.5625,-1.925781 5.5625,-2.34375 V -2.359375 C 5.5625,-2.648438 5.484375,-2.882813 5.328125,-3.0625 5.171875,-3.238281 4.96875,-3.367188 4.71875,-3.453125 4.476563,-3.535156 4.164063,-3.613281 3.78125,-3.6875 c -0.011719,0 -0.023437,0 -0.03125,0 -0.011719,0 -0.027344,0 -0.046875,0 L 3.625,-3.703125 C 3.050781,-3.804688 2.582031,-3.914063 2.21875,-4.03125 1.863281,-4.15625 1.5625,-4.378906 1.3125,-4.703125 c -0.25,-0.332031 -0.375,-0.800781 -0.375,-1.40625 0,-0.53125 0.113281,-0.976563 0.34375,-1.34375 0.238281,-0.375 0.582031,-0.660156 1.03125,-0.859375 0.457031,-0.195313 1.003906,-0.296875 1.640625,-0.296875 0.300781,0 0.597656,0.039062 0.890625,0.109375 0.300781,0.0625 0.59375,0.164062 0.875,0.296875 0.289063,0.125 0.578125,0.289062 0.859375,0.484375 l -0.6875,0.953125 c -0.324219,-0.238281 -0.648437,-0.414063 -0.96875,-0.53125 -0.324219,-0.125 -0.648437,-0.1875 -0.96875,-0.1875 -0.585937,0 -1.039062,0.121094 -1.359375,0.359375 -0.324219,0.230469 -0.484375,0.558594 -0.484375,0.984375 0,0.292969 0.082031,0.523437 0.25,0.6875 0.164063,0.167969 0.375,0.292969 0.625,0.375 0.25,0.085937 0.59375,0.167969 1.03125,0.25 0.019531,0 0.035156,0.00781 0.046875,0.015625 0.00781,0 0.023438,0 0.046875,0 0.019531,0 0.039063,0.00781 0.0625,0.015625 0.019531,0 0.039063,0.00781 0.0625,0.015625 0.519531,0.105469 0.953125,0.230469 1.296875,0.375 0.34375,0.136719 0.628906,0.367187 0.859375,0.6875 C 6.628906,-3.394531 6.75,-2.953125 6.75,-2.390625 V -2.375 c 0,0.523437 -0.125,0.964844 -0.375,1.328125 -0.25,0.367187 -0.609375,0.648437 -1.078125,0.84375 -0.460937,0.19921875 -1.023437,0.296875 -1.6875,0.296875 z m 0,0" style="stroke:none;fill:#6c5d53;fill-opacity:0.89411765"/>
  </g>
  <g transform="matrix(0.93166651,0,0,0.93166651,90.577384,181.97946)" id="use5573" style="fill:#6c5d53;fill-opacity:0.89411765">
   <path inkscape:connector-curvature="0" id="path304" d="m 3.390625,0.09375 c -0.554687,0 -1.027344,-0.1015625 -1.421875,-0.3125 C 1.582031,-0.425781 1.285156,-0.726563 1.078125,-1.125 0.867188,-1.519531 0.765625,-2 0.765625,-2.5625 v -1 c 0,-0.550781 0.101563,-1.019531 0.3125,-1.40625 0.207031,-0.394531 0.503906,-0.691406 0.890625,-0.890625 0.394531,-0.207031 0.867188,-0.3125 1.421875,-0.3125 0.320313,0 0.617188,0.042969 0.890625,0.125 0.28125,0.074219 0.53125,0.183594 0.75,0.328125 0.226563,0.136719 0.414063,0.308594 0.5625,0.515625 l -0.859375,0.78125 C 4.566406,-4.617188 4.363281,-4.769531 4.125,-4.875 3.894531,-4.976563 3.65625,-5.03125 3.40625,-5.03125 c -0.460937,0 -0.820312,0.132812 -1.078125,0.390625 -0.25,0.25 -0.375,0.609375 -0.375,1.078125 v 1 c 0,0.492187 0.125,0.867187 0.375,1.125 0.257813,0.261719 0.617188,0.390625 1.078125,0.390625 0.257813,0 0.503906,-0.054688 0.734375,-0.171875 0.226563,-0.113281 0.425781,-0.273438 0.59375,-0.484375 L 5.59375,-0.875 C 5.445313,-0.664063 5.257813,-0.488281 5.03125,-0.34375 4.8125,-0.207031 4.5625,-0.0976563 4.28125,-0.015625 4,0.0546875 3.703125,0.09375 3.390625,0.09375 Z m 0,0" style="stroke:none;fill:#6c5d53;fill-opacity:0.89411765"/>
  </g>
  <g transform="matrix(0.93166651,0,0,0.93166651,95.474226,181.97946)" id="use5575" style="fill:#6c5d53;fill-opacity:0.89411765">
   <path inkscape:connector-curvature="0" id="path400" d="m 0.9375,-8.515625 h 1.203125 v 1.1875 H 0.9375 Z m 0,2.4375 H 2.140625 V 0 H 0.9375 Z m 0,0" style="stroke:none;fill:#6c5d53;fill-opacity:0.89411765"/>
  </g>
  <g transform="matrix(0.93166651,0,0,0.93166651,97.956188,181.97946)" id="use5579" style="fill:#6c5d53;fill-opacity:0.89411765">
   <path inkscape:connector-curvature="0" id="path384" d="m 3.421875,0.09375 c -0.5625,0 -1.042969,-0.1015625 -1.4375,-0.3125 C 1.585938,-0.4375 1.285156,-0.75 1.078125,-1.15625 0.867188,-1.5625 0.765625,-2.054688 0.765625,-2.640625 v -0.6875 c 0,-0.59375 0.097656,-1.101563 0.296875,-1.53125 0.195313,-0.425781 0.488281,-0.75 0.875,-0.96875 0.382813,-0.226563 0.847656,-0.34375 1.390625,-0.34375 0.5,0 0.925781,0.132812 1.28125,0.390625 0.363281,0.25 0.640625,0.617187 0.828125,1.09375 0.195313,0.480469 0.296875,1.058594 0.296875,1.734375 V -2.5625 H 1.625 v -0.953125 h 2.96875 c -0.03125,-0.5 -0.164062,-0.882813 -0.390625,-1.15625 -0.21875,-0.28125 -0.511719,-0.421875 -0.875,-0.421875 -0.460937,0 -0.8125,0.152344 -1.0625,0.453125 -0.242187,0.292969 -0.359375,0.710937 -0.359375,1.25 v 0.78125 c 0,0.5 0.128906,0.886719 0.390625,1.15625 0.269531,0.273437 0.644531,0.40625 1.125,0.40625 0.25,0 0.488281,-0.046875 0.71875,-0.140625 0.238281,-0.101563 0.453125,-0.242188 0.640625,-0.421875 l 0.796875,0.78125 C 5.273438,-0.535156 4.9375,-0.304688 4.5625,-0.140625 4.1875,0.015625 3.804688,0.09375 3.421875,0.09375 Z m 0,0" style="stroke:none;fill:#6c5d53;fill-opacity:0.89411765"/>
  </g>
  <g transform="matrix(0.93166651,0,0,0.93166651,103.09898,181.97946)" id="use5583" style="fill:#6c5d53;fill-opacity:0.89411765">
   <path inkscape:connector-curvature="0" id="path288" d="M 0.9375,-6.078125 H 2.140625 V 0 H 0.9375 Z M 4.625,-3.6875 c 0,-0.425781 -0.109375,-0.753906 -0.328125,-0.984375 -0.21875,-0.238281 -0.53125,-0.359375 -0.9375,-0.359375 -0.398437,0 -0.699219,0.105469 -0.90625,0.3125 -0.210937,0.210937 -0.3125,0.5 -0.3125,0.875 l -0.125,-1.171875 c 0.1875,-0.375 0.429688,-0.660156 0.734375,-0.859375 0.300781,-0.195313 0.632813,-0.296875 1,-0.296875 0.65625,0 1.164063,0.21875 1.53125,0.65625 0.363281,0.429687 0.546875,1.039062 0.546875,1.828125 V 0 H 4.625 Z m 0,0" style="stroke:none;fill:#6c5d53;fill-opacity:0.89411765"/>
  </g>
  <g transform="matrix(0.93166651,0,0,0.93166651,108.55482,181.97946)" id="use5585" style="fill:#6c5d53;fill-opacity:0.89411765">
   <path inkscape:connector-curvature="0" id="path308" d="m 3.390625,0.09375 c -0.554687,0 -1.027344,-0.1015625 -1.421875,-0.3125 C 1.582031,-0.425781 1.285156,-0.726563 1.078125,-1.125 0.867188,-1.519531 0.765625,-2 0.765625,-2.5625 v -1 c 0,-0.550781 0.101563,-1.019531 0.3125,-1.40625 0.207031,-0.394531 0.503906,-0.691406 0.890625,-0.890625 0.394531,-0.207031 0.867188,-0.3125 1.421875,-0.3125 0.320313,0 0.617188,0.042969 0.890625,0.125 0.28125,0.074219 0.53125,0.183594 0.75,0.328125 0.226563,0.136719 0.414063,0.308594 0.5625,0.515625 l -0.859375,0.78125 C 4.566406,-4.617188 4.363281,-4.769531 4.125,-4.875 3.894531,-4.976563 3.65625,-5.03125 3.40625,-5.03125 c -0.460937,0 -0.820312,0.132812 -1.078125,0.390625 -0.25,0.25 -0.375,0.609375 -0.375,1.078125 v 1 c 0,0.492187 0.125,0.867187 0.375,1.125 0.257813,0.261719 0.617188,0.390625 1.078125,0.390625 0.257813,0 0.503906,-0.054688 0.734375,-0.171875 0.226563,-0.113281 0.425781,-0.273438 0.59375,-0.484375 L 5.59375,-0.875 C 5.445313,-0.664063 5.257813,-0.488281 5.03125,-0.34375 4.8125,-0.207031 4.5625,-0.0976563 4.28125,-0.015625 4,0.0546875 3.703125,0.09375 3.390625,0.09375 Z m 0,0" style="stroke:none;fill:#6c5d53;fill-opacity:0.89411765"/>
  </g>
  <g transform="matrix(0.93166651,0,0,0.93166651,113.4852,181.97946)" id="use5589" style="fill:#6c5d53;fill-opacity:0.89411765">
   <path inkscape:connector-curvature="0" id="path388" d="m 3.421875,0.09375 c -0.5625,0 -1.042969,-0.1015625 -1.4375,-0.3125 C 1.585938,-0.4375 1.285156,-0.75 1.078125,-1.15625 0.867188,-1.5625 0.765625,-2.054688 0.765625,-2.640625 v -0.6875 c 0,-0.59375 0.097656,-1.101563 0.296875,-1.53125 0.195313,-0.425781 0.488281,-0.75 0.875,-0.96875 0.382813,-0.226563 0.847656,-0.34375 1.390625,-0.34375 0.5,0 0.925781,0.132812 1.28125,0.390625 0.363281,0.25 0.640625,0.617187 0.828125,1.09375 0.195313,0.480469 0.296875,1.058594 0.296875,1.734375 V -2.5625 H 1.625 v -0.953125 h 2.96875 c -0.03125,-0.5 -0.164062,-0.882813 -0.390625,-1.15625 -0.21875,-0.28125 -0.511719,-0.421875 -0.875,-0.421875 -0.460937,0 -0.8125,0.152344 -1.0625,0.453125 -0.242187,0.292969 -0.359375,0.710937 -0.359375,1.25 v 0.78125 c 0,0.5 0.128906,0.886719 0.390625,1.15625 0.269531,0.273437 0.644531,0.40625 1.125,0.40625 0.25,0 0.488281,-0.046875 0.71875,-0.140625 0.238281,-0.101563 0.453125,-0.242188 0.640625,-0.421875 l 0.796875,0.78125 C 5.273438,-0.535156 4.9375,-0.304688 4.5625,-0.140625 4.1875,0.015625 3.804688,0.09375 3.421875,0.09375 Z m 0,0" style="stroke:none;fill:#6c5d53;fill-opacity:0.89411765"/>
  </g>
  <path inkscape:connector-curvature="0" id="path5621" d="m 243.3809,136.55939 c 0.45491,-0.20388 0.84796,-0.25116 1.17184,-0.13838 0.32756,0.10194 0.58959,0.38211 0.78246,0.81885 l 0.34576,0.74603 -1.05179,0.47678 -0.26929,-0.5896 c -0.0473,-0.10194 -0.12385,-0.15634 -0.22555,-0.17456 -0.0911,-0.0291 -0.20389,-0.0107 -0.32392,0.0436 l -5.76832,2.62761 -0.51313,-1.13548 z m -0.93167,-0.19278 1.16458,2.56205 -0.98991,0.444 -1.17187,-2.55115 z m -2.91875,7.46058 c -0.18566,-0.38938 -0.25828,-0.75332 -0.24032,-1.09905 0.0184,-0.34575 0.13838,-0.65144 0.34575,-0.92074 0.21472,-0.27297 0.50949,-0.49497 0.8916,-0.67328 l 1.65226,-0.75336 c 0.3785,-0.16744 0.74242,-0.25115 1.07724,-0.22211 0.34575,0.0184 0.64415,0.12729 0.91348,0.34211 0.27294,0.20731 0.49494,0.50223 0.67328,0.89529 0.17456,0.39302 0.25116,0.75332 0.24006,1.09905 -0.0184,0.33482 -0.13099,0.64415 -0.33482,0.90257 -0.21471,0.27294 -0.50222,0.49493 -0.89528,0.67326 l -1.65589,0.75335 c -0.38212,0.17827 -0.74607,0.25115 -1.08086,0.23294 -0.34576,-0.0184 -0.65509,-0.131 -0.92441,-0.33482 -0.2693,-0.21472 -0.48404,-0.51314 -0.66235,-0.89528 z m 1.0736,-0.5022 c 0.10194,0.23294 0.25115,0.37121 0.44764,0.43671 0.19649,0.0584 0.41854,0.0291 0.66964,-0.0837 l 1.58311,-0.72423 c 0.25116,-0.11278 0.41122,-0.26198 0.49494,-0.44764 0.0729,-0.18935 0.0655,-0.39305 -0.0365,-0.61505 -0.10194,-0.22552 -0.25115,-0.36392 -0.44035,-0.42944 -0.19278,-0.0655 -0.41854,-0.0473 -0.65873,0.0729 l -1.59402,0.72784 c -0.25116,0.11277 -0.41851,0.26198 -0.50223,0.44764 -0.0763,0.18566 -0.0655,0.38941 0.0365,0.61505 z m 5.50629,1.06995 0.53136,1.16458 -5.16057,2.34738 -0.53133,-1.16461 z m 0.0184,3.17714 c 0.0291,-0.0726 0.0291,-0.14922 0.0107,-0.24033 -0.0107,-0.0945 -0.0401,-0.18566 -0.0874,-0.2802 -0.14551,-0.32756 -0.35298,-0.53136 -0.60411,-0.62596 -0.26198,-0.0911 -0.54953,-0.0729 -0.86615,0.0655 l 1.10999,-0.63324 c 0.38212,0.0184 0.70603,0.11277 0.99717,0.2693 0.27658,0.17112 0.49132,0.39305 0.62233,0.69147 0.0547,0.11278 0.0837,0.22211 0.0945,0.32754 0,0.10906 -0.0104,0.21101 -0.0473,0.30571 z m 4.42545,1.09179 0.49494,1.09908 -4.23984,4.92034 -0.20388,-0.0655 5.5136,-2.51841 0.4949,1.08089 -7.21312,3.30086 -0.50222,-1.10999 4.0906,-4.84394 0.19649,0.0655 -5.35707,2.44927 -0.49494,-1.09183 z m 0.0363,9.93899 c 0.23289,-0.10195 0.38213,-0.25116 0.44764,-0.43671 0.0655,-0.18567 0.0473,-0.40034 -0.0655,-0.64418 -0.0729,-0.17457 -0.18564,-0.30569 -0.32388,-0.4076 -0.14183,-0.10194 -0.29841,-0.16005 -0.47678,-0.16744 l -0.0945,-1.0736 c 0.40034,-0.0655 0.7752,0.0107 1.10997,0.21472 0.33482,0.21471 0.60413,0.54223 0.80067,0.97897 0.17827,0.38212 0.262,0.73513 0.25115,1.06995 -0.0187,0.33482 -0.12019,0.63324 -0.30572,0.88799 -0.18564,0.25829 -0.46584,0.47313 -0.82977,0.64053 l -3.52286,1.60129 -0.48402,-1.05902 z m -4.09062,0.50587 c -0.22211,-0.50587 -0.2693,-0.93167 -0.12729,-1.30653 0.13839,-0.36392 0.46584,-0.66235 0.97536,-0.89525 0.53131,-0.24033 1.00809,-0.28752 1.40843,-0.12017 0.40028,0.16744 0.7351,0.53133 0.99715,1.09909 l 0.42943,0.94984 -0.88796,0.48403 -0.45496,-0.99352 c -0.10191,-0.22555 -0.23289,-0.36392 -0.41122,-0.42216 -0.16744,-0.0655 -0.36392,-0.0365 -0.59682,0.0655 -0.19281,0.0945 -0.31667,0.21472 -0.36034,0.37486 -0.0401,0.15634 -0.0104,0.35299 0.10197,0.59318 0.13097,0.29116 0.2802,0.47677 0.4367,0.57866 0.16744,0.10194 0.35302,0.11277 0.54951,0.0184 l -0.54951,0.37485 c -0.22211,0.0655 -0.42944,0.0726 -0.61508,0.0264 -0.19647,-0.0439 -0.36391,-0.13839 -0.51311,-0.27662 -0.14922,-0.14183 -0.27659,-0.32753 -0.38215,-0.54953 z m 2.25639,4.79662 c -0.20388,-0.43671 -0.23294,-0.81157 -0.0945,-1.11729 0.13102,-0.30933 0.42948,-0.56772 0.87712,-0.77516 l 5.30974,-2.42014 0.52041,1.13545 -5.17876,2.35828 c -0.13097,0.0655 -0.21469,0.13839 -0.26195,0.22211 -0.0435,0.0837 -0.0363,0.17827 0.0104,0.28023 l 0.17822,0.38941 -1.09907,0.50587 z m 4.35989,-4.14518 1.08087,2.35464 -1.02625,0.46584 -1.06998,-2.35464 z m 2.6822,5.8775 0.52405,1.12818 -5.16419,2.35829 -0.50952,-1.12819 z m -4.09058,0.18566 c -0.23293,0.10195 -0.38217,0.25116 -0.45494,0.42944 -0.0655,0.17828 -0.0473,0.37119 0.0547,0.59683 0.10197,0.23294 0.24379,0.37121 0.41128,0.43673 0.17822,0.0655 0.38208,0.0473 0.60408,-0.0547 l -0.80062,0.44761 c -0.32393,0.0264 -0.61507,-0.0107 -0.86617,-0.131 -0.262,-0.12016 -0.44764,-0.32752 -0.57867,-0.61502 -0.21101,-0.46583 -0.23289,-0.89528 -0.0435,-1.27742 0.19281,-0.38212 0.56777,-0.69874 1.12459,-0.95713 l 3.48645,-1.59402 0.52041,1.14638 z m 5.17145,2.16175 0.5241,1.16457 -5.15334,2.35829 -0.53131,-1.16458 z m 0.0187,3.18804 c 0.0187,-0.0763 0.0292,-0.16005 0.0104,-0.24376 -0.0104,-0.0911 -0.0473,-0.18566 -0.0837,-0.28752 -0.14922,-0.31662 -0.35302,-0.52407 -0.61502,-0.61505 -0.25116,-0.10194 -0.54225,-0.0763 -0.85887,0.0655 l 1.10997,-0.63325 c 0.38213,0.0184 0.70969,0.10195 0.99715,0.26933 0.28026,0.15661 0.49495,0.38941 0.62234,0.68783 0.0581,0.11278 0.0837,0.22555 0.0945,0.32753 0,0.11278 -0.0104,0.20389 -0.0473,0.30572 z m 1.17553,3.81038 c 0.22211,-0.10194 0.37119,-0.25115 0.4367,-0.44035 0.0763,-0.19279 0.0473,-0.4076 -0.0655,-0.65144 -0.0729,-0.16744 -0.18564,-0.30572 -0.32388,-0.40034 -0.14183,-0.10195 -0.29846,-0.15661 -0.47674,-0.16744 l -0.0911,-1.06996 c 0.4076,-0.0655 0.77152,0.008 1.10634,0.21472 0.33482,0.20388 0.60776,0.53135 0.81156,0.97535 0.16749,0.38212 0.2512,0.73878 0.24036,1.0736 -0.0187,0.33481 -0.10909,0.62233 -0.30568,0.88434 -0.18568,0.26199 -0.46584,0.47677 -0.82981,0.63325 l -3.52286,1.61224 -0.484,-1.06998 z m -4.10157,0.4913 c -0.22211,-0.4913 -0.26926,-0.93165 -0.12729,-1.29195 0.13839,-0.36392 0.46585,-0.66235 0.97536,-0.89529 0.54226,-0.25115 1.00805,-0.28749 1.40838,-0.12016 0.40034,0.15661 0.73516,0.53133 0.9972,1.09908 l 0.42944,0.94984 -0.88802,0.48404 -0.4549,-0.99717 c -0.10196,-0.22211 -0.23294,-0.37121 -0.40033,-0.42945 -0.17823,-0.0547 -0.37119,-0.0365 -0.60413,0.0763 -0.19645,0.0837 -0.31662,0.21472 -0.35666,0.37121 -0.0473,0.16005 -0.0187,0.35302 0.0945,0.58595 0.13097,0.29114 0.28025,0.48765 0.44764,0.58957 0.15664,0.10194 0.34208,0.10194 0.53862,0.0184 l -0.54956,0.36392 c -0.22211,0.0655 -0.42943,0.0837 -0.61503,0.0365 -0.19649,-0.0472 -0.36392,-0.14209 -0.51315,-0.28023 -0.14922,-0.14922 -0.27657,-0.32756 -0.38212,-0.56046 z m 3.65393,3.86861 c -0.12016,0.0547 -0.20388,0.131 -0.25115,0.23294 -0.0363,0.0909 -0.0363,0.1965 0.0187,0.30572 l 0.13097,0.29114 -1.09181,0.50223 -0.25115,-0.54227 c -0.17457,-0.38938 -0.1965,-0.75333 -0.0547,-1.07724 0.13839,-0.32753 0.41854,-0.58957 0.85523,-0.79337 l 5.86298,-2.6749 0.50952,1.13911 z m 0,0" style="fill:#6c5d53;fill-opacity:0.89411765;fill-rule:nonzero;stroke:none;stroke-width:0.93166655"/>
  <g transform="matrix(0.93166651,0,0,0.93166651,294.61236,180.88942)" id="use5623" style="fill:#6c5d53;fill-opacity:0.89411765">
   <path inkscape:connector-curvature="0" id="path332" d="m 3.609375,0.09375 c -0.40625,0 -0.792969,-0.0390625 -1.15625,-0.109375 C 2.085938,-0.0976563 1.742188,-0.21875 1.421875,-0.375 1.097656,-0.53125 0.800781,-0.726563 0.53125,-0.96875 L 1.265625,-1.875 c 0.332031,0.28125 0.691406,0.496094 1.078125,0.640625 0.394531,0.136719 0.816406,0.203125 1.265625,0.203125 0.625,0 1.101563,-0.113281 1.4375,-0.34375 C 5.390625,-1.601563 5.5625,-1.925781 5.5625,-2.34375 V -2.359375 C 5.5625,-2.648438 5.484375,-2.882813 5.328125,-3.0625 5.171875,-3.238281 4.96875,-3.367188 4.71875,-3.453125 4.476563,-3.535156 4.164063,-3.613281 3.78125,-3.6875 c -0.011719,0 -0.023437,0 -0.03125,0 -0.011719,0 -0.027344,0 -0.046875,0 L 3.625,-3.703125 C 3.050781,-3.804688 2.582031,-3.914063 2.21875,-4.03125 1.863281,-4.15625 1.5625,-4.378906 1.3125,-4.703125 c -0.25,-0.332031 -0.375,-0.800781 -0.375,-1.40625 0,-0.53125 0.113281,-0.976563 0.34375,-1.34375 0.238281,-0.375 0.582031,-0.660156 1.03125,-0.859375 0.457031,-0.195313 1.003906,-0.296875 1.640625,-0.296875 0.300781,0 0.597656,0.039062 0.890625,0.109375 0.300781,0.0625 0.59375,0.164062 0.875,0.296875 0.289063,0.125 0.578125,0.289062 0.859375,0.484375 l -0.6875,0.953125 c -0.324219,-0.238281 -0.648437,-0.414063 -0.96875,-0.53125 -0.324219,-0.125 -0.648437,-0.1875 -0.96875,-0.1875 -0.585937,0 -1.039062,0.121094 -1.359375,0.359375 -0.324219,0.230469 -0.484375,0.558594 -0.484375,0.984375 0,0.292969 0.082031,0.523437 0.25,0.6875 0.164063,0.167969 0.375,0.292969 0.625,0.375 0.25,0.085937 0.59375,0.167969 1.03125,0.25 0.019531,0 0.035156,0.00781 0.046875,0.015625 0.00781,0 0.023438,0 0.046875,0 0.019531,0 0.039063,0.00781 0.0625,0.015625 0.019531,0 0.039063,0.00781 0.0625,0.015625 0.519531,0.105469 0.953125,0.230469 1.296875,0.375 0.34375,0.136719 0.628906,0.367187 0.859375,0.6875 C 6.628906,-3.394531 6.75,-2.953125 6.75,-2.390625 V -2.375 c 0,0.523437 -0.125,0.964844 -0.375,1.328125 -0.25,0.367187 -0.609375,0.648437 -1.078125,0.84375 -0.460937,0.19921875 -1.023437,0.296875 -1.6875,0.296875 z m 0,0" style="stroke:none;fill:#6c5d53;fill-opacity:0.89411765"/>
  </g>
  <g transform="matrix(0.93166651,0,0,0.93166651,300.42595,180.88942)" id="use5627" style="fill:#6c5d53;fill-opacity:0.89411765">
   <path inkscape:connector-curvature="0" id="path344" d="m 5.671875,-6.078125 -2.578125,7.5 C 3,1.703125 2.875,1.921875 2.71875,2.078125 2.5625,2.242188 2.375,2.359375 2.15625,2.421875 1.9375,2.492188 1.664063,2.53125 1.34375,2.53125 h -0.25 V 1.390625 h 0.25 c 0.21875,0 0.390625,-0.046875 0.515625,-0.140625 0.132813,-0.085937 0.25,-0.234375 0.34375,-0.453125 l 2.25,-6.875 z m -5.375,0 h 1.21875 L 3.375,-0.796875 2.71875,0.5 Z m 0,0" style="stroke:none;fill:#6c5d53;fill-opacity:0.89411765"/>
  </g>
  <g transform="matrix(0.93166651,0,0,0.93166651,305.22218,180.88942)" id="use5629" style="fill:#6c5d53;fill-opacity:0.89411765">
   <path inkscape:connector-curvature="0" id="path352" d="m 3.09375,0.09375 c -0.367187,0 -0.703125,-0.0390625 -1.015625,-0.109375 -0.3125,-0.0703125 -0.609375,-0.175781 -0.890625,-0.3125 -0.273437,-0.144531 -0.523437,-0.320313 -0.75,-0.53125 l 0.71875,-0.875 c 0.320313,0.25 0.644531,0.4375 0.96875,0.5625 0.320313,0.125 0.644531,0.1875 0.96875,0.1875 0.46875,0 0.816406,-0.070313 1.046875,-0.21875 C 4.378906,-1.347656 4.5,-1.566406 4.5,-1.859375 4.5,-2.054688 4.4375,-2.203125 4.3125,-2.296875 4.1875,-2.398438 4.023438,-2.46875 3.828125,-2.5 3.640625,-2.53125 3.375,-2.5625 3.03125,-2.59375 c -0.03125,0 -0.070312,0 -0.109375,0 -0.03125,0 -0.0625,-0.00391 -0.09375,-0.015625 -0.023437,0 -0.042969,0 -0.0625,0 -0.011719,0 -0.023437,0 -0.03125,0 C 2.335938,-2.640625 2,-2.695313 1.71875,-2.78125 1.445313,-2.863281 1.222656,-3.019531 1.046875,-3.25 0.867188,-3.476563 0.78125,-3.8125 0.78125,-4.25 c 0,-0.425781 0.082031,-0.78125 0.25,-1.0625 0.175781,-0.289063 0.4375,-0.503906 0.78125,-0.640625 0.351563,-0.144531 0.789063,-0.21875 1.3125,-0.21875 0.320313,0 0.625,0.03125 0.90625,0.09375 0.289063,0.054687 0.566406,0.136719 0.828125,0.25 0.257813,0.117187 0.507813,0.261719 0.75,0.4375 l -0.71875,0.875 C 4.585938,-4.710938 4.285156,-4.859375 3.984375,-4.953125 3.691406,-5.046875 3.40625,-5.09375 3.125,-5.09375 c -0.40625,0 -0.714844,0.070312 -0.921875,0.203125 -0.199219,0.136719 -0.296875,0.34375 -0.296875,0.625 0,0.167969 0.054688,0.292969 0.171875,0.375 0.113281,0.074219 0.257813,0.125 0.4375,0.15625 0.175781,0.03125 0.425781,0.058594 0.75,0.078125 0.03125,0 0.054688,0 0.078125,0 0.019531,0 0.046875,0 0.078125,0 0.00781,0 0.019531,0 0.03125,0 0.00781,0 0.023438,0.00781 0.046875,0.015625 0.414063,0.023437 0.773438,0.078125 1.078125,0.171875 0.300781,0.085937 0.550781,0.257812 0.75,0.515625 0.207031,0.25 0.3125,0.617187 0.3125,1.09375 0,0.4375 -0.09375,0.804687 -0.28125,1.09375 C 5.171875,-0.484375 4.882813,-0.269531 4.5,-0.125 4.125,0.0195313 3.65625,0.09375 3.09375,0.09375 Z m 0,0" style="stroke:none;fill:#6c5d53;fill-opacity:0.89411765"/>
  </g>
  <g transform="matrix(0.93166651,0,0,0.93166651,310.13018,180.88942)" id="use5631" style="fill:#6c5d53;fill-opacity:0.89411765">
   <path inkscape:connector-curvature="0" id="path296" d="M 2.515625,0.03125 C 2.023438,0.03125 1.664063,-0.101563 1.4375,-0.375 1.207031,-0.644531 1.09375,-1.046875 1.09375,-1.578125 v -6.28125 h 1.203125 v 6.28125 c 0,0.15625 0.023438,0.277344 0.078125,0.359375 0.0625,0.074219 0.148438,0.109375 0.265625,0.109375 H 3.21875 V 0.03125 Z M 0.46875,-6.078125 h 2.75 V -5 h -2.75 z m 0,0" style="stroke:none;fill:#6c5d53;fill-opacity:0.89411765"/>
  </g>
  <g transform="matrix(0.93166651,0,0,0.93166651,313.41711,180.88942)" id="use5633" style="fill:#6c5d53;fill-opacity:0.89411765">
   <path inkscape:connector-curvature="0" id="path392" d="m 3.421875,0.09375 c -0.5625,0 -1.042969,-0.1015625 -1.4375,-0.3125 C 1.585938,-0.4375 1.285156,-0.75 1.078125,-1.15625 0.867188,-1.5625 0.765625,-2.054688 0.765625,-2.640625 v -0.6875 c 0,-0.59375 0.097656,-1.101563 0.296875,-1.53125 0.195313,-0.425781 0.488281,-0.75 0.875,-0.96875 0.382813,-0.226563 0.847656,-0.34375 1.390625,-0.34375 0.5,0 0.925781,0.132812 1.28125,0.390625 0.363281,0.25 0.640625,0.617187 0.828125,1.09375 0.195313,0.480469 0.296875,1.058594 0.296875,1.734375 V -2.5625 H 1.625 v -0.953125 h 2.96875 c -0.03125,-0.5 -0.164062,-0.882813 -0.390625,-1.15625 -0.21875,-0.28125 -0.511719,-0.421875 -0.875,-0.421875 -0.460937,0 -0.8125,0.152344 -1.0625,0.453125 -0.242187,0.292969 -0.359375,0.710937 -0.359375,1.25 v 0.78125 c 0,0.5 0.128906,0.886719 0.390625,1.15625 0.269531,0.273437 0.644531,0.40625 1.125,0.40625 0.25,0 0.488281,-0.046875 0.71875,-0.140625 0.238281,-0.101563 0.453125,-0.242188 0.640625,-0.421875 l 0.796875,0.78125 C 5.273438,-0.535156 4.9375,-0.304688 4.5625,-0.140625 4.1875,0.015625 3.804688,0.09375 3.421875,0.09375 Z m 0,0" style="stroke:none;fill:#6c5d53;fill-opacity:0.89411765"/>
  </g>
  <g transform="matrix(0.93166651,0,0,0.93166651,318.53755,180.88942)" id="use5637" style="fill:#6c5d53;fill-opacity:0.89411765">
   <path inkscape:connector-curvature="0" id="path396" d="m 8.203125,-3.6875 c 0,-0.425781 -0.117187,-0.753906 -0.34375,-0.984375 C 7.640625,-4.910156 7.332031,-5.03125 6.9375,-5.03125 c -0.375,0 -0.667969,0.117187 -0.875,0.34375 -0.199219,0.21875 -0.296875,0.539062 -0.296875,0.953125 L 5.53125,-4.90625 c 0.1875,-0.40625 0.4375,-0.71875 0.75,-0.9375 0.3125,-0.21875 0.660156,-0.328125 1.046875,-0.328125 0.4375,0 0.804688,0.101562 1.109375,0.296875 0.3125,0.1875 0.550781,0.46875 0.71875,0.84375 0.164063,0.367187 0.25,0.8125 0.25,1.34375 V 0 H 8.203125 Z M 0.9375,-6.078125 H 2.140625 V 0 H 0.9375 Z M 4.578125,-3.6875 C 4.578125,-4.113281 4.46875,-4.441406 4.25,-4.671875 4.039063,-4.910156 3.742188,-5.03125 3.359375,-5.03125 c -0.398437,0 -0.699219,0.105469 -0.90625,0.3125 -0.210937,0.210937 -0.3125,0.5 -0.3125,0.875 l -0.125,-1.171875 c 0.1875,-0.375 0.429688,-0.660156 0.734375,-0.859375 0.300781,-0.195313 0.632813,-0.296875 1,-0.296875 0.425781,0 0.789063,0.101562 1.09375,0.296875 0.300781,0.1875 0.53125,0.46875 0.6875,0.84375 0.15625,0.367187 0.234375,0.8125 0.234375,1.34375 V 0 h -1.1875 z m 0,0" style="stroke:none;fill:#6c5d53;fill-opacity:0.89411765"/>
  </g>
  <g transform="matrix(0.93166651,0,0,0.93166651,148.28481,181.46705)" id="use5671" style="fill:#6c5d53;fill-opacity:0.89411765">
   <path inkscape:connector-curvature="0" id="path412" d="M 1.0625,-8.515625 H 2.25 V 0 H 1.0625 Z m 0.578125,7.375 H 6.53125 V 0 H 1.640625 Z m 0,-3.65625 h 4.25 v 1.140625 h -4.25 z m 0,-3.71875 H 6.53125 v 1.125 H 1.640625 Z m 0,0" style="stroke:none;fill:#6c5d53;fill-opacity:0.89411765"/>
  </g>
  <g transform="matrix(0.93166651,0,0,0.93166651,153.74065,181.46705)" id="use5673" style="fill:#6c5d53;fill-opacity:0.89411765">
   <path inkscape:connector-curvature="0" id="path416" d="M 4.390625,-8.515625 H 5.59375 V 0 H 4.390625 Z m -1.53125,8.625 c -0.4375,0 -0.820312,-0.09375 -1.140625,-0.28125 C 1.40625,-0.367188 1.164063,-0.65625 1,-1.03125 0.84375,-1.40625 0.765625,-1.851563 0.765625,-2.375 v -1.328125 c 0,-0.53125 0.078125,-0.976563 0.234375,-1.34375 0.164063,-0.375 0.398438,-0.65625 0.703125,-0.84375 C 2.003906,-6.085938 2.375,-6.1875 2.8125,-6.1875 c 0.351563,0 0.679688,0.09375 0.984375,0.28125 0.300781,0.1875 0.539063,0.453125 0.71875,0.796875 L 4.390625,-3.875 C 4.390625,-4.132813 4.34375,-4.351563 4.25,-4.53125 4.15625,-4.71875 4.019531,-4.859375 3.84375,-4.953125 3.664063,-5.046875 3.453125,-5.09375 3.203125,-5.09375 c -0.398437,0 -0.703125,0.125 -0.921875,0.375 -0.21875,0.242187 -0.328125,0.585937 -0.328125,1.03125 v 1.3125 c 0,0.449219 0.109375,0.792969 0.328125,1.03125 0.21875,0.242187 0.523438,0.359375 0.921875,0.359375 0.25,0 0.460938,-0.046875 0.640625,-0.140625 C 4.019531,-1.226563 4.15625,-1.375 4.25,-1.5625 4.34375,-1.75 4.390625,-1.972656 4.390625,-2.234375 l 0.09375,1.28125 C 4.359375,-0.648438 4.15625,-0.394531 3.875,-0.1875 3.601563,0.0078125 3.265625,0.109375 2.859375,0.109375 Z m 0,0" style="stroke:none;fill:#6c5d53;fill-opacity:0.89411765"/>
  </g>
  <g transform="matrix(0.93166651,0,0,0.93166651,159.00642,181.46705)" id="use5675" style="fill:#6c5d53;fill-opacity:0.89411765">
   <path inkscape:connector-curvature="0" id="path336" d="m 4.609375,-6.078125 h 1.1875 V 0 h -1.1875 z m -2.46875,3.6875 c 0,0.429687 0.101563,0.761719 0.3125,1 0.21875,0.230469 0.523438,0.34375 0.921875,0.34375 0.394531,0 0.695313,-0.101563 0.90625,-0.3125 C 4.5,-1.566406 4.609375,-1.863281 4.609375,-2.25 L 4.6875,-0.96875 c -0.125,0.304687 -0.328125,0.558594 -0.609375,0.765625 -0.28125,0.19921875 -0.625,0.296875 -1.03125,0.296875 -0.679687,0 -1.199219,-0.210938 -1.5625,-0.640625 C 1.117188,-0.984375 0.9375,-1.597656 0.9375,-2.390625 v -3.6875 h 1.203125 z m 0,0" style="stroke:none;fill:#6c5d53;fill-opacity:0.89411765"/>
  </g>
  <g transform="matrix(0.93166651,0,0,0.93166651,164.39519,181.46705)" id="use5677" style="fill:#6c5d53;fill-opacity:0.89411765">
   <path inkscape:connector-curvature="0" id="path312" d="m 3.390625,0.09375 c -0.554687,0 -1.027344,-0.1015625 -1.421875,-0.3125 C 1.582031,-0.425781 1.285156,-0.726563 1.078125,-1.125 0.867188,-1.519531 0.765625,-2 0.765625,-2.5625 v -1 c 0,-0.550781 0.101563,-1.019531 0.3125,-1.40625 0.207031,-0.394531 0.503906,-0.691406 0.890625,-0.890625 0.394531,-0.207031 0.867188,-0.3125 1.421875,-0.3125 0.320313,0 0.617188,0.042969 0.890625,0.125 0.28125,0.074219 0.53125,0.183594 0.75,0.328125 0.226563,0.136719 0.414063,0.308594 0.5625,0.515625 l -0.859375,0.78125 C 4.566406,-4.617188 4.363281,-4.769531 4.125,-4.875 3.894531,-4.976563 3.65625,-5.03125 3.40625,-5.03125 c -0.460937,0 -0.820312,0.132812 -1.078125,0.390625 -0.25,0.25 -0.375,0.609375 -0.375,1.078125 v 1 c 0,0.492187 0.125,0.867187 0.375,1.125 0.257813,0.261719 0.617188,0.390625 1.078125,0.390625 0.257813,0 0.503906,-0.054688 0.734375,-0.171875 0.226563,-0.113281 0.425781,-0.273438 0.59375,-0.484375 L 5.59375,-0.875 C 5.445313,-0.664063 5.257813,-0.488281 5.03125,-0.34375 4.8125,-0.207031 4.5625,-0.0976563 4.28125,-0.015625 4,0.0546875 3.703125,0.09375 3.390625,0.09375 Z m 0,0" style="stroke:none;fill:#6c5d53;fill-opacity:0.89411765"/>
  </g>
  <g transform="matrix(0.93166651,0,0,0.93166651,169.29203,181.46705)" id="use5679" style="fill:#6c5d53;fill-opacity:0.89411765">
   <path inkscape:connector-curvature="0" id="path316" d="M 4.375,-3.859375 C 4.375,-4.253906 4.265625,-4.5625 4.046875,-4.78125 3.835938,-5 3.535156,-5.109375 3.140625,-5.109375 2.898438,-5.109375 2.664063,-5.070313 2.4375,-5 2.207031,-4.925781 2,-4.820313 1.8125,-4.6875 L 0.9375,-5.296875 C 1.175781,-5.566406 1.484375,-5.78125 1.859375,-5.9375 c 0.375,-0.15625 0.789063,-0.234375 1.25,-0.234375 0.507813,0 0.941406,0.089844 1.296875,0.265625 0.363281,0.179687 0.640625,0.4375 0.828125,0.78125 0.1875,0.335937 0.28125,0.742187 0.28125,1.21875 V 0 H 4.375 Z M 2.890625,0.09375 c -0.75,0 -1.3125,-0.15625 -1.6875,-0.46875 -0.375,-0.3125 -0.5625,-0.785156 -0.5625,-1.421875 0,-0.601563 0.171875,-1.050781 0.515625,-1.34375 C 1.5,-3.441406 2.015625,-3.59375 2.703125,-3.59375 h 1.71875 L 4.5,-2.640625 H 2.703125 c -0.3125,0 -0.546875,0.074219 -0.703125,0.21875 -0.15625,0.136719 -0.234375,0.34375 -0.234375,0.625 0,0.3125 0.101563,0.542969 0.3125,0.6875 0.207031,0.148437 0.519531,0.21875 0.9375,0.21875 0.457031,0 0.796875,-0.046875 1.015625,-0.140625 C 4.257813,-1.125 4.375,-1.273438 4.375,-1.484375 L 4.5,-0.640625 C 4.394531,-0.472656 4.265625,-0.335938 4.109375,-0.234375 3.953125,-0.128906 3.769531,-0.0507813 3.5625,0 3.363281,0.0625 3.140625,0.09375 2.890625,0.09375 Z m 0,0" style="stroke:none;fill:#6c5d53;fill-opacity:0.89411765"/>
  </g>
  <g transform="matrix(0.93166651,0,0,0.93166651,174.54663,181.46705)" id="use5681" style="fill:#6c5d53;fill-opacity:0.89411765">
   <path inkscape:connector-curvature="0" id="path300" d="M 2.515625,0.03125 C 2.023438,0.03125 1.664063,-0.101563 1.4375,-0.375 1.207031,-0.644531 1.09375,-1.046875 1.09375,-1.578125 v -6.28125 h 1.203125 v 6.28125 c 0,0.15625 0.023438,0.277344 0.078125,0.359375 0.0625,0.074219 0.148438,0.109375 0.265625,0.109375 H 3.21875 V 0.03125 Z M 0.46875,-6.078125 h 2.75 V -5 h -2.75 z m 0,0" style="stroke:none;fill:#6c5d53;fill-opacity:0.89411765"/>
  </g>
  <g transform="matrix(0.93166651,0,0,0.93166651,177.80001,181.46705)" id="use5685" style="fill:#6c5d53;fill-opacity:0.89411765">
   <path inkscape:connector-curvature="0" id="path404" d="m 0.9375,-8.515625 h 1.203125 v 1.1875 H 0.9375 Z m 0,2.4375 H 2.140625 V 0 H 0.9375 Z m 0,0" style="stroke:none;fill:#6c5d53;fill-opacity:0.89411765"/>
  </g>
  <g transform="matrix(0.93166651,0,0,0.93166651,180.25961,181.46705)" id="use5689" style="fill:#6c5d53;fill-opacity:0.89411765">
   <path inkscape:connector-curvature="0" id="path320" d="m 3.265625,0.09375 c -0.523437,0 -0.96875,-0.1015625 -1.34375,-0.3125 C 1.546875,-0.425781 1.257813,-0.726563 1.0625,-1.125 0.863281,-1.519531 0.765625,-2 0.765625,-2.5625 v -0.984375 c 0,-0.550781 0.097656,-1.023438 0.296875,-1.421875 0.195313,-0.394531 0.484375,-0.691406 0.859375,-0.890625 0.375,-0.207031 0.820313,-0.3125 1.34375,-0.3125 0.53125,0 0.984375,0.105469 1.359375,0.3125 0.375,0.199219 0.660156,0.496094 0.859375,0.890625 0.195313,0.398437 0.296875,0.871094 0.296875,1.421875 v 1 c 0,0.554687 -0.101562,1.027344 -0.296875,1.421875 C 5.285156,-0.726563 5,-0.425781 4.625,-0.21875 4.25,-0.0078125 3.796875,0.09375 3.265625,0.09375 Z m 0,-1.140625 c 0.414063,0 0.738281,-0.128906 0.96875,-0.390625 0.226563,-0.257813 0.34375,-0.628906 0.34375,-1.109375 v -1 c 0,-0.476563 -0.117187,-0.84375 -0.34375,-1.09375 -0.230469,-0.257813 -0.554687,-0.390625 -0.96875,-0.390625 -0.417969,0 -0.742187,0.132812 -0.96875,0.390625 -0.230469,0.25 -0.34375,0.617187 -0.34375,1.09375 v 1 c 0,0.480469 0.113281,0.851562 0.34375,1.109375 0.226563,0.261719 0.550781,0.390625 0.96875,0.390625 z m 0,0" style="stroke:none;fill:#6c5d53;fill-opacity:0.89411765"/>
  </g>
  <g transform="matrix(0.93166651,0,0,0.93166651,185.42476,181.46705)" id="use5691" style="fill:#6c5d53;fill-opacity:0.89411765">
   <path inkscape:connector-curvature="0" id="path292" d="M 0.9375,-6.078125 H 2.140625 V 0 H 0.9375 Z M 4.625,-3.6875 c 0,-0.425781 -0.109375,-0.753906 -0.328125,-0.984375 -0.21875,-0.238281 -0.53125,-0.359375 -0.9375,-0.359375 -0.398437,0 -0.699219,0.105469 -0.90625,0.3125 -0.210937,0.210937 -0.3125,0.5 -0.3125,0.875 l -0.125,-1.171875 c 0.1875,-0.375 0.429688,-0.660156 0.734375,-0.859375 0.300781,-0.195313 0.632813,-0.296875 1,-0.296875 0.65625,0 1.164063,0.21875 1.53125,0.65625 0.363281,0.429687 0.546875,1.039062 0.546875,1.828125 V 0 H 4.625 Z m 0,0" style="stroke:none;fill:#6c5d53;fill-opacity:0.89411765"/>
  </g>
  <path inkscape:connector-curvature="0" id="path10864-1" d="m 672.92869,184.99239 c 0.94859,-0.33886 1.62635,-0.9488 2.03301,-1.89762 0.27113,-0.54217 0.33893,-2.30427 0.33893,-14.02895 0,-7.38723 0,-13.48675 0.0691,-13.6223 0.13545,-0.27122 1.15221,-0.27122 5.6252,-0.20333 3.72748,0 5.42161,0 5.42161,-0.20333 0,-0.0678 -0.40665,-1.49099 -1.01637,-3.04976 -0.54216,-1.62654 -1.55884,-4.60855 -2.30438,-6.64173 -0.67776,-2.10096 -2.16861,-6.30285 -3.25302,-9.35261 -1.89773,-5.4218 -4.74412,-13.6223 -6.03194,-17.41758 l -0.60967,-1.82986 0.47412,-0.54219 c 1.15221,-1.2199 1.62665,-0.54218 3.72775,5.28626 1.01642,2.64314 2.64306,7.18389 3.65973,10.03037 1.01639,2.84645 2.10076,5.76066 2.37193,6.4384 1.08439,3.11754 2.91413,4.20192 5.08305,3.04979 0.94884,-0.54219 1.76193,-1.8299 1.76193,-2.84648 0,-0.27121 -0.88084,-3.04976 -2.0331,-6.09952 -1.15222,-3.04979 -2.16881,-5.89624 -2.30438,-6.30288 -0.54202,-1.69432 -5.15056,-14.0289 -5.55722,-14.97776 -0.5422,-1.15213 -1.96552,-2.43979 -3.11749,-2.98198 -2.30439,-0.9488 -3.3889,-1.08435 -12.33464,-0.9488 -7.79381,0.0678 -8.5394,0.0678 -9.96269,0.47439 -3.65971,1.0166 -5.48963,2.77867 -6.30272,5.96401 -0.2021,0.88102 -0.27142,3.79526 -0.27142,14.84218 0,13.55453 0,13.69011 0.4067,14.30003 1.5589,2.03321 4.54074,1.9654 5.62521,-0.20333 0.33892,-0.60991 0.33892,-1.62652 0.33892,-12.74126 0,-9.28482 0.0664,-12.19905 0.27108,-12.53791 0.33884,-0.7455 1.42332,-0.81328 1.96548,-0.27119 l 0.40651,0.40663 v 32.59863 32.59866 l 0.47438,0.88105 c 0.81329,1.69432 3.4566,2.57534 5.083,1.69432 1.35555,-0.67772 1.35555,-1.08436 1.35555,-16.19767 0,-15.24886 -0.2021,-13.69009 2.03305,-13.62228 0.88114,0.0678 1.21997,0.13555 1.35557,0.40661 0.0664,0.13555 0.0664,6.30285 0.0664,13.69008 -0.0664,11.86023 0,13.48675 0.27112,14.02894 0.88109,1.76209 2.91444,2.50759 4.8797,1.82985 z m -4.47304,-81.05606 c 2.10081,-0.67775 4.26971,-2.7109 5.015,-4.676304 0.60996,-1.558805 0.60996,-3.727505 0,-5.354081 -0.60976,-1.626522 -2.30418,-3.38862 -4.06641,-4.201887 -1.15192,-0.609947 -1.5586,-0.677694 -3.18522,-0.745499 -1.49085,-0.06778 -1.89748,0 -2.16861,0.271215 -0.13546,0.135552 -0.33888,0.33886 -0.47446,0.33886 -0.40663,0 -2.71082,1.694323 -3.32082,2.507616 -1.89778,2.710901 -1.89778,6.506158 0.13545,9.21706 0.40671,0.54219 0.81305,1.0166 0.88087,1.0166 0.13545,0 0.60996,0.33884 1.15219,0.74547 0.47446,0.33891 1.01666,0.67775 1.22001,0.67775 0.13546,0 0.27108,0.13528 0.33886,0.27121 0.13546,0.40664 3.1175,0.40664 4.47304,-0.0678 z" style="display:inline;fill:#f5a000;fill-opacity:1;fill-rule:nonzero;stroke:none;stroke-width:0.84716451"/>
  <path inkscape:connector-curvature="0" id="path10848-7" d="m 351.07902,126.32422 c 0,-30.134178 0.19581,-55.546972 0.43515,-56.439031 0.21757,-0.892059 1.54478,-2.197512 2.93726,-2.91551 3.87284,-1.958178 53.19717,-1.174908 56.89595,0.892059 3.85108,2.153997 3.61175,-2.37157 3.45945,65.860042 -0.087,38.22799 -0.52218,47.27912 -2.43685,49.34608 -1.91466,2.06697 -6.54902,2.50212 -25.1517,2.34982 -27.52328,-0.23934 -33.44133,-0.69624 -34.98611,-2.71969 -0.63097,-0.87031 -1.15315,-26.21783 -1.15315,-56.37377 z m 31.61369,44.16779 c 14.25118,0.13054 21.20422,-0.0435 21.59585,-0.39163 0.73976,-0.63097 0.84855,-8.98586 0.82679,-65.03327 V 79.132139 l -21.26949,-0.304604 c -14.49052,-0.174056 -21.68289,0.04352 -22.18331,0.478664 -0.95733,0.805029 -1.30545,88.944791 -0.36988,90.206721 0.3046,0.39164 7.14886,0.82679 21.40004,0.97909 z m 0.5657,-96.646952 c 5.09126,-0.02181 8.92058,-0.500422 8.50719,-1.044361 -0.84854,-1.13139 -16.20936,-1.392481 -17.4713,-0.304604 -1.47951,1.261935 -0.41339,1.414238 8.96411,1.348965 z" sodipodi:nodetypes="sccccsccscccccccccccc" style="fill:#f59e00;fill-opacity:1;fill-rule:nonzero;stroke:none;stroke-width:0.27197114"/>
  <g transform="matrix(0.56379975,0,0,0.56379975,356.18823,180.99562)" id="use5641" style="fill:#6c5d53;fill-opacity:0.89411765">
   <path inkscape:connector-curvature="0" id="path360" d="m 6.46875,0.140625 c -0.992187,0 -1.867187,-0.2109375 -2.625,-0.640625 -0.75,-0.4375 -1.335937,-1.050781 -1.75,-1.84375 -0.417969,-0.789063 -0.625,-1.707031 -0.625,-2.75 V -9.125 c 0,-1.050781 0.207031,-1.972656 0.625,-2.765625 0.414063,-0.789063 1,-1.398438 1.75,-1.828125 0.757813,-0.4375 1.632813,-0.65625 2.625,-0.65625 0.988281,0 1.863281,0.21875 2.625,0.65625 0.757813,0.429687 1.34375,1.039062 1.75,1.828125 0.414063,0.792969 0.625,1.714844 0.625,2.765625 v 4.03125 c 0,1.042969 -0.210937,1.960937 -0.625,2.75 -0.40625,0.792969 -0.992187,1.40625 -1.75,1.84375 -0.761719,0.4296875 -1.636719,0.640625 -2.625,0.640625 z m 0,-1.96875 c 0.582031,0 1.097656,-0.128906 1.546875,-0.390625 0.445313,-0.257813 0.789063,-0.632813 1.03125,-1.125 0.25,-0.488281 0.375,-1.050781 0.375,-1.6875 v -4.171875 c 0,-0.632813 -0.125,-1.195313 -0.375,-1.6875 -0.242187,-0.488281 -0.585937,-0.863281 -1.03125,-1.125 -0.449219,-0.257813 -0.964844,-0.390625 -1.546875,-0.390625 -0.585937,0 -1.101562,0.132812 -1.546875,0.390625 -0.449219,0.261719 -0.796875,0.636719 -1.046875,1.125 -0.242187,0.492187 -0.359375,1.054687 -0.359375,1.6875 v 4.171875 c 0,0.636719 0.117188,1.199219 0.359375,1.6875 0.25,0.492187 0.597656,0.867187 1.046875,1.125 0.445313,0.261719 0.960938,0.390625 1.546875,0.390625 z m 0,0" style="stroke:none;fill:#6c5d53;fill-opacity:0.89411765"/>
  </g>
  <g transform="matrix(0.56379975,0,0,0.56379975,362.34592,180.99562)" id="use5645" style="fill:#6c5d53;fill-opacity:0.89411765">
   <path inkscape:connector-curvature="0" id="path428" d="M 6.125,0.140625 C 5.488281,0.140625 4.9375,-0.0078125 4.46875,-0.3125 4,-0.613281 3.648438,-1.039063 3.421875,-1.59375 l 0.140625,-2.125 c 0,0.4375 0.078125,0.8125 0.234375,1.125 0.15625,0.304687 0.378906,0.539062 0.671875,0.703125 0.300781,0.15625 0.664063,0.234375 1.09375,0.234375 0.65625,0 1.164063,-0.195313 1.53125,-0.59375 0.363281,-0.40625 0.546875,-0.972656 0.546875,-1.703125 V -6.15625 c 0,-0.738281 -0.183594,-1.3125 -0.546875,-1.71875 C 6.726563,-8.289063 6.21875,-8.5 5.5625,-8.5 c -0.429687,0 -0.792969,0.078125 -1.09375,0.234375 -0.292969,0.15625 -0.515625,0.386719 -0.671875,0.6875 -0.15625,0.304687 -0.234375,0.667969 -0.234375,1.09375 l -0.203125,-1.96875 c 0.300781,-0.59375 0.703125,-1.050781 1.203125,-1.375 0.5,-0.320313 1.050781,-0.484375 1.65625,-0.484375 0.71875,0 1.332031,0.164062 1.84375,0.484375 0.507813,0.324219 0.894531,0.796875 1.15625,1.421875 0.269531,0.617187 0.40625,1.359375 0.40625,2.234375 v 2.21875 c 0,0.867187 -0.136719,1.605469 -0.40625,2.21875 C 8.945313,-1.128906 8.546875,-0.664063 8.015625,-0.34375 7.484375,-0.0195313 6.851563,0.140625 6.125,0.140625 Z m -4.5625,-14.375 h 2 V 0 h -2 z m 0,0" style="stroke:none;fill:#6c5d53;fill-opacity:0.89411765"/>
  </g>
  <g transform="matrix(0.56379975,0,0,0.56379975,367.69011,180.99562)" id="use5647" style="fill:#6c5d53;fill-opacity:0.89411765">
   <path inkscape:connector-curvature="0" id="path424" d="M 5.15625,0.140625 C 4.5625,0.140625 4,0.0820313 3.46875,-0.03125 2.945313,-0.144531 2.457031,-0.316406 2,-0.546875 1.539063,-0.785156 1.117188,-1.082031 0.734375,-1.4375 l 1.1875,-1.453125 c 0.539063,0.417969 1.082031,0.730469 1.625,0.9375 0.539063,0.210937 1.078125,0.3125 1.609375,0.3125 0.789063,0 1.382813,-0.117188 1.78125,-0.359375 0.394531,-0.25 0.59375,-0.617188 0.59375,-1.109375 0,-0.332031 -0.109375,-0.578125 -0.328125,-0.734375 -0.21875,-0.164063 -0.492187,-0.273438 -0.8125,-0.328125 -0.3125,-0.0625 -0.761719,-0.113281 -1.34375,-0.15625 -0.054687,0 -0.109375,0 -0.171875,0 -0.054687,-0.00781 -0.105469,-0.015625 -0.15625,-0.015625 -0.03125,0 -0.0625,0 -0.09375,0 C 4.601563,-4.351563 4.582031,-4.359375 4.5625,-4.359375 3.90625,-4.410156 3.347656,-4.503906 2.890625,-4.640625 2.429688,-4.785156 2.050781,-5.050781 1.75,-5.4375 1.445313,-5.820313 1.296875,-6.375 1.296875,-7.09375 c 0,-0.707031 0.144531,-1.300781 0.4375,-1.78125 0.289063,-0.476563 0.726563,-0.835938 1.3125,-1.078125 0.582031,-0.238281 1.3125,-0.359375 2.1875,-0.359375 0.519531,0 1.019531,0.05469 1.5,0.15625 0.476563,0.09375 0.9375,0.242187 1.375,0.4375 C 8.546875,-9.53125 8.96875,-9.289063 9.375,-9 l -1.203125,1.46875 c -0.511719,-0.332031 -1.011719,-0.578125 -1.5,-0.734375 -0.492187,-0.164063 -0.96875,-0.25 -1.4375,-0.25 -0.6875,0 -1.203125,0.117187 -1.546875,0.34375 -0.335937,0.230469 -0.5,0.578125 -0.5,1.046875 0,0.273437 0.09375,0.480469 0.28125,0.625 0.195313,0.136719 0.441406,0.226562 0.734375,0.265625 0.300781,0.042969 0.722656,0.078125 1.265625,0.109375 0.03125,0.011719 0.066406,0.015625 0.109375,0.015625 0.039063,0 0.085938,0.00781 0.140625,0.015625 0.019531,0 0.035156,0 0.046875,0 0.019531,0 0.039063,0 0.0625,0 0.71875,0.054687 1.328125,0.152344 1.828125,0.296875 0.5,0.136719 0.914063,0.417969 1.25,0.84375 0.34375,0.429687 0.515625,1.042969 0.515625,1.84375 0,0.730469 -0.15625,1.335937 -0.46875,1.8125 -0.3125,0.480469 -0.789062,0.839844 -1.421875,1.078125 -0.625,0.2382813 -1.417969,0.359375 -2.375,0.359375 z m 0,0" style="stroke:none;fill:#6c5d53;fill-opacity:0.89411765"/>
  </g>
  <g transform="matrix(0.56379975,0,0,0.56379975,372.65019,180.99562)" id="use5649" style="fill:#6c5d53;fill-opacity:0.89411765">
   <path inkscape:connector-curvature="0" id="path436" d="M 5.71875,0.140625 C 4.78125,0.140625 3.976563,-0.03125 3.3125,-0.375 2.644531,-0.726563 2.132813,-1.242188 1.78125,-1.921875 1.4375,-2.609375 1.265625,-3.4375 1.265625,-4.40625 v -1.140625 c 0,-1.007813 0.164063,-1.867188 0.5,-2.578125 0.34375,-0.707031 0.832031,-1.25 1.46875,-1.625 0.644531,-0.375 1.414063,-0.5625 2.3125,-0.5625 0.851563,0 1.578125,0.214844 2.171875,0.640625 0.601563,0.429687 1.0625,1.042969 1.375,1.84375 0.320313,0.804687 0.484375,1.765625 0.484375,2.890625 v 0.65625 H 2.71875 V -5.890625 H 7.671875 C 7.617188,-6.710938 7.40625,-7.351563 7.03125,-7.8125 6.664063,-8.269531 6.171875,-8.5 5.546875,-8.5 c -0.75,0 -1.335937,0.25 -1.75,0.75 -0.417969,0.492187 -0.625,1.1875 -0.625,2.09375 v 1.296875 c 0,0.835937 0.21875,1.480469 0.65625,1.9375 C 4.273438,-1.972656 4.90625,-1.75 5.71875,-1.75 6.125,-1.75 6.523438,-1.828125 6.921875,-1.984375 7.328125,-2.148438 7.6875,-2.382813 8,-2.6875 l 1.3125,1.3125 c -0.5,0.492187 -1.070312,0.867187 -1.703125,1.125 -0.625,0.2578125 -1.257812,0.390625 -1.890625,0.390625 z m 0,0" style="stroke:none;fill:#6c5d53;fill-opacity:0.89411765"/>
  </g>
  <g transform="matrix(0.56379975,0,0,0.56379975,377.83623,180.99562)" id="use5653" style="fill:#6c5d53;fill-opacity:0.89411765">
   <path inkscape:connector-curvature="0" id="path440" d="m 1.5625,-10.15625 h 2 V 0 h -2 z M 7.15625,-7.75 C 6.976563,-7.96875 6.753906,-8.128906 6.484375,-8.234375 6.222656,-8.347656 5.914063,-8.40625 5.5625,-8.40625 4.925781,-8.40625 4.429688,-8.226563 4.078125,-7.875 3.734375,-7.53125 3.5625,-7.050781 3.5625,-6.4375 L 3.359375,-8.390625 c 0.3125,-0.601563 0.710938,-1.070313 1.203125,-1.40625 0.5,-0.34375 1.050781,-0.515625 1.65625,-0.515625 0.457031,0 0.875,0.07031 1.25,0.203125 0.375,0.136719 0.703125,0.335937 0.984375,0.59375 z m 0,0" style="stroke:none;fill:#6c5d53;fill-opacity:0.89411765"/>
  </g>
  <g transform="matrix(0.56379975,0,0,0.56379975,382.01669,180.99562)" id="use5655" style="fill:#6c5d53;fill-opacity:0.89411765">
   <path inkscape:connector-curvature="0" id="path432" d="M 7.546875,-10.15625 H 9.625 L 5.8125,0 h -1.5 L 0.484375,-10.15625 h 2.09375 l 2.484375,7.25 z m 0,0" style="stroke:none;fill:#6c5d53;fill-opacity:0.89411765"/>
  </g>
  <g transform="matrix(0.56379975,0,0,0.56379975,387.03321,180.99562)" id="use5657" style="fill:#6c5d53;fill-opacity:0.89411765">
   <path inkscape:connector-curvature="0" id="path276" d="m 7.296875,-6.4375 c 0,-0.664063 -0.179687,-1.179688 -0.53125,-1.546875 -0.355469,-0.375 -0.859375,-0.5625 -1.515625,-0.5625 -0.398437,0 -0.792969,0.0625 -1.1875,0.1875 -0.386719,0.125 -0.730469,0.296875 -1.03125,0.515625 l -1.453125,-1 C 1.960938,-9.300781 2.46875,-9.660156 3.09375,-9.921875 3.726563,-10.179688 4.429688,-10.3125 5.203125,-10.3125 c 0.832031,0 1.550781,0.152344 2.15625,0.453125 0.601563,0.292969 1.0625,0.726562 1.375,1.296875 0.3125,0.5625 0.46875,1.242187 0.46875,2.03125 V 0 H 7.296875 Z M 4.8125,0.140625 C 3.5625,0.140625 2.625,-0.113281 2,-0.625 1.382813,-1.144531 1.078125,-1.9375 1.078125,-3 c 0,-1 0.28125,-1.75 0.84375,-2.25 C 2.492188,-5.757813 3.351563,-6.015625 4.5,-6.015625 H 7.390625 L 7.53125,-4.40625 H 4.515625 c -0.523437,0 -0.914062,0.121094 -1.171875,0.359375 C 3.082031,-3.816406 2.953125,-3.46875 2.953125,-3 c 0,0.523437 0.171875,0.90625 0.515625,1.15625 0.34375,0.242187 0.863281,0.359375 1.5625,0.359375 0.757813,0 1.328125,-0.078125 1.703125,-0.234375 0.375,-0.164063 0.5625,-0.421875 0.5625,-0.765625 L 7.5,-1.0625 C 7.332031,-0.78125 7.117188,-0.550781 6.859375,-0.375 6.597656,-0.207031 6.296875,-0.0820313 5.953125,0 5.617188,0.09375 5.238281,0.140625 4.8125,0.140625 Z m 0,0" style="stroke:none;fill:#6c5d53;fill-opacity:0.89411765"/>
  </g>
  <g transform="matrix(0.56379975,0,0,0.56379975,392.36619,180.99562)" id="use5661" style="fill:#6c5d53;fill-opacity:0.89411765">
   <path inkscape:connector-curvature="0" id="path340" d="m 4.203125,0.046875 c -0.824219,0 -1.429687,-0.222656 -1.8125,-0.671875 -0.375,-0.457031 -0.5625,-1.128906 -0.5625,-2.015625 v -10.46875 h 2 V -2.625 c 0,0.25 0.046875,0.445312 0.140625,0.578125 0.101563,0.136719 0.25,0.203125 0.4375,0.203125 H 5.359375 V 0.046875 Z M 0.78125,-10.15625 h 4.578125 v 1.796875 H 0.78125 Z m 0,0" style="stroke:none;fill:#6c5d53;fill-opacity:0.89411765"/>
  </g>
  <g transform="matrix(0.56379975,0,0,0.56379975,395.68794,180.99562)" id="use5663" style="fill:#6c5d53;fill-opacity:0.89411765">
   <path inkscape:connector-curvature="0" id="path364" d="m 1.5625,-14.234375 h 2 v 2 h -2 z m 0,4.078125 h 2 V 0 h -2 z m 0,0" style="stroke:none;fill:#6c5d53;fill-opacity:0.89411765"/>
  </g>
  <g transform="matrix(0.56379975,0,0,0.56379975,398.23013,180.99562)" id="use5665" style="fill:#6c5d53;fill-opacity:0.89411765">
   <path inkscape:connector-curvature="0" id="path348" d="m 5.46875,0.140625 c -0.886719,0 -1.640625,-0.171875 -2.265625,-0.515625 -0.625,-0.34375 -1.105469,-0.84375 -1.4375,-1.5 -0.335937,-0.664063 -0.5,-1.46875 -0.5,-2.40625 V -5.9375 c 0,-0.914063 0.164063,-1.703125 0.5,-2.359375 0.332031,-0.65625 0.8125,-1.15625 1.4375,-1.5 0.625,-0.34375 1.378906,-0.515625 2.265625,-0.515625 0.875,0 1.625,0.171875 2.25,0.515625 0.625,0.34375 1.101563,0.84375 1.4375,1.5 0.332031,0.65625 0.5,1.445312 0.5,2.359375 V -4.25 c 0,0.929687 -0.167969,1.71875 -0.5,2.375 -0.335937,0.65625 -0.8125,1.15625 -1.4375,1.5 -0.625,0.34375 -1.375,0.515625 -2.25,0.515625 z m 0,-1.890625 c 0.695313,0 1.234375,-0.21875 1.609375,-0.65625 C 7.460938,-2.84375 7.65625,-3.457031 7.65625,-4.25 v -1.6875 c 0,-0.78125 -0.195312,-1.382813 -0.578125,-1.8125 -0.375,-0.4375 -0.914062,-0.65625 -1.609375,-0.65625 -0.699219,0 -1.242187,0.21875 -1.625,0.65625 -0.386719,0.429687 -0.578125,1.03125 -0.578125,1.8125 V -4.25 c 0,0.792969 0.191406,1.40625 0.578125,1.84375 0.382813,0.4375 0.925781,0.65625 1.625,0.65625 z m 0,0" style="stroke:none;fill:#6c5d53;fill-opacity:0.89411765"/>
  </g>
  <g transform="matrix(0.56379975,0,0,0.56379975,403.45003,180.99562)" id="use5667" style="fill:#6c5d53;fill-opacity:0.89411765">
   <path inkscape:connector-curvature="0" id="path356" d="m 1.5625,-10.15625 h 2 V 0 h -2 z m 6.171875,4 c 0,-0.71875 -0.1875,-1.269531 -0.5625,-1.65625 -0.375,-0.394531 -0.898437,-0.59375 -1.5625,-0.59375 -0.65625,0 -1.164062,0.171875 -1.515625,0.515625 C 3.738281,-7.546875 3.5625,-7.0625 3.5625,-6.4375 L 3.359375,-8.390625 c 0.3125,-0.613281 0.71875,-1.085938 1.21875,-1.421875 0.507813,-0.332031 1.070313,-0.5 1.6875,-0.5 1.101563,0 1.957031,0.367187 2.5625,1.09375 0.601563,0.71875 0.90625,1.734375 0.90625,3.046875 V 0 h -2 z m 0,0" style="stroke:none;fill:#6c5d53;fill-opacity:0.89411765"/>
  </g>
 </g>
 <g transform="matrix(0.91857346,0,0,0.91857346,47.948744,6.0930268)" id="text915" aria-label="360" style="font-style:normal;font-weight:normal;font-size:64.1355896px;line-height:1.25;font-family:sans-serif;letter-spacing:0px;word-spacing:0px;fill:#f59e00;fill-opacity:1;stroke:none;stroke-width:1.60338962">
  <path inkscape:connector-curvature="0" id="path1006" d="m 567.01129,75.413407 q 1.50318,1.346597 2.47398,3.38215 0.9708,2.035553 0.9708,5.261123 0,3.194253 -1.1587,5.85613 -1.1587,2.661878 -3.25688,4.634799 -2.34872,2.192134 -5.54297,3.256885 -3.16294,1.033435 -6.9522,1.033435 -3.88321,0 -7.64116,-0.939486 -3.75794,-0.90817 -6.16929,-2.004238 v -6.545087 h 0.46975 q 2.66187,1.753708 6.26324,2.912408 3.60136,1.158699 6.95219,1.158699 1.97293,0 4.19638,-0.65764 2.22345,-0.65764 3.60136,-1.941605 1.44054,-1.377913 2.1295,-3.037672 0.72027,-1.659759 0.72027,-4.196371 0,-2.505297 -0.81422,-4.13374 -0.7829,-1.659758 -2.19213,-2.599245 -1.40923,-0.970802 -3.41347,-1.31528 -2.00424,-0.375795 -4.32163,-0.375795 h -2.81846 v -5.19849 h 2.19213 q 4.76006,0 7.57852,-1.972921 2.84978,-2.004237 2.84978,-5.824814 0,-1.691075 -0.72027,-2.943724 -0.72028,-1.283964 -2.00424,-2.098185 -1.3466,-0.814222 -2.88109,-1.127384 -1.5345,-0.313162 -3.4761,-0.313162 -2.97504,0 -6.32588,1.064751 -3.35083,1.064751 -6.32587,3.006356 h -0.31316 v -6.545087 q 2.22345,-1.096067 5.91876,-2.004237 3.72663,-0.939486 7.20273,-0.939486 3.41347,0 6.01271,0.626324 2.59925,0.626324 4.69743,2.004237 2.25477,1.503178 3.41347,3.63268 1.1587,2.129502 1.1587,4.979276 0,3.88321 -2.75583,6.795617 -2.72451,2.881091 -6.45114,3.63268 v 0.438427 q 1.50318,0.25053 3.44479,1.064751 1.9416,0.782905 3.2882,1.972921 z" style="stroke-width:1.60338962"/>
  <path inkscape:connector-curvature="0" id="path1008" d="m 612.639,82.741399 q 0,7.108779 -4.69743,11.618312 -4.66611,4.478218 -11.46173,4.478218 -3.44478,0 -6.26324,-1.064751 -2.81846,-1.064751 -4.97928,-3.162937 -2.69319,-2.599245 -4.16505,-6.889565 -1.44055,-4.29032 -1.44055,-10.334348 0,-6.200609 1.31528,-10.991988 1.3466,-4.79138 4.259,-8.518008 2.75583,-3.538732 7.10878,-5.511653 4.35296,-2.004237 10.14645,-2.004237 1.84766,0 3.10031,0.156581 1.25265,0.156581 2.53661,0.563692 v 5.981395 h -0.31316 q -0.87685,-0.469743 -2.66188,-0.876854 -1.75371,-0.438426 -3.60136,-0.438426 -6.73299,0 -10.74146,4.227687 -4.00847,4.196372 -4.66612,11.367783 2.63057,-1.597126 5.16718,-2.411348 2.56793,-0.845537 5.91876,-0.845537 2.97504,0 5.22981,0.563691 2.28608,0.532376 4.66611,2.192135 2.75583,1.910288 4.13374,4.822696 1.40923,2.912407 1.40923,7.077462 z m -6.35719,0.25053 q 0,-2.912407 -0.87685,-4.822696 -0.84554,-1.910289 -2.81846,-3.319518 -1.44055,-1.002118 -3.19425,-1.31528 -1.75371,-0.313163 -3.664,-0.313163 -2.66188,0 -4.94796,0.626325 -2.28608,0.626324 -4.69743,1.941604 -0.0626,0.688957 -0.0939,1.346597 -0.0313,0.626324 -0.0313,1.597127 0,4.94796 1.00212,7.829051 1.03344,2.849775 2.81846,4.509534 1.44055,1.377913 3.10031,2.035553 1.69107,0.626324 3.66399,0.626324 4.54085,0 7.1401,-2.755826 2.59924,-2.787142 2.59924,-7.985632 z" style="stroke-width:1.60338962"/>
  <path inkscape:connector-curvature="0" id="path1010" d="m 652.72375,74.536553 q 0,12.557799 -3.94585,18.445245 -3.91452,5.856131 -12.182,5.856131 -8.39274,0 -12.27595,-5.950079 -3.8519,-5.950079 -3.8519,-18.288664 0,-12.432534 3.91453,-18.351297 3.91453,-5.950079 12.21332,-5.950079 8.39274,0 12.24464,6.044027 3.88321,6.012712 3.88321,18.194716 z m -8.23617,14.217558 q 1.09607,-2.536613 1.47187,-5.95008 0.40711,-3.444782 0.40711,-8.267478 0,-4.760063 -0.40711,-8.267478 -0.3758,-3.507415 -1.50318,-5.950079 -1.09607,-2.411348 -3.00636,-3.63268 -1.87897,-1.221332 -4.85401,-1.221332 -2.94372,0 -4.88533,1.221332 -1.91029,1.221332 -3.03767,3.695312 -1.06475,2.317399 -1.47186,6.044028 -0.3758,3.726628 -0.3758,8.17353 0,4.885328 0.34448,8.173529 0.34448,3.288202 1.47186,5.887447 1.03344,2.442664 2.91241,3.726628 1.91029,1.283965 5.04191,1.283965 2.94372,0 4.88533,-1.221332 1.9416,-1.221332 3.00635,-3.695312 z" style="stroke-width:1.60338962"/>
 </g>
</svg>
