<?xml version='1.0' encoding='UTF-8' standalone='no'?>
<svg xmlns:inkscape="http://www.inkscape.org/namespaces/inkscape" version="1.1" sodipodi:docname="Award.svg" viewBox="0 0 62.817827 55.145498" inkscape:version="0.92.4 (5da689c313, 2019-01-14)" id="svg668" height="55.145496mm" width="62.817833mm" xmlns:dc="http://purl.org/dc/elements/1.1/" xmlns:rdf="http://www.w3.org/1999/02/22-rdf-syntax-ns#" xmlns="http://www.w3.org/2000/svg" xmlns:cc="http://creativecommons.org/ns#" xmlns:svg="http://www.w3.org/2000/svg" xmlns:sodipodi="http://sodipodi.sourceforge.net/DTD/sodipodi-0.dtd">
 <defs id="defs662">
  <clipPath id="clipPath143" clipPathUnits="userSpaceOnUse">
   <rect style="stroke-width:1.71212864" id="rect145" x="-715.1568" transform="rotate(-43.315315)" y="67.804993" height="203.14427" width="203.14427"/>
  </clipPath>
  <clipPath id="clipPath4719" clipPathUnits="userSpaceOnUse">
   <rect ry="0.40744901" style="fill:#000000;fill-opacity:1;stroke:#000000" id="rect4721" x="-34.546959" y="25.718069" height="42.942448" width="8.8779888" rx="2.47085"/>
  </clipPath>
  <clipPath id="clipPath4885" clipPathUnits="userSpaceOnUse">
   <circle cy="-28.001387" style="fill:none;stroke:#4d4d4d;stroke-width:0.60246503" id="circle4887" cx="-52.648228" r="10.929907" transform="rotate(-38.419141)"/>
  </clipPath>
  <clipPath id="clipPath4889" clipPathUnits="userSpaceOnUse">
   <circle cy="-28.001387" style="fill:none;stroke:#4d4d4d;stroke-width:0.60246503" id="circle4891" cx="-52.648228" r="10.929907" transform="rotate(-38.419141)"/>
  </clipPath>
  <clipPath id="clipPath4893" clipPathUnits="userSpaceOnUse">
   <circle cy="-28.001387" style="fill:none;stroke:#4d4d4d;stroke-width:0.60246503" id="circle4895" cx="-52.648228" r="10.929907" transform="rotate(-38.419141)"/>
  </clipPath>
  <clipPath id="clipPath4897" clipPathUnits="userSpaceOnUse">
   <circle cy="-28.001387" style="fill:none;stroke:#4d4d4d;stroke-width:0.60246503" id="circle4899" cx="-52.648228" r="10.929907" transform="rotate(-38.419141)"/>
  </clipPath>
  <clipPath id="clipPath4913" clipPathUnits="userSpaceOnUse">
   <circle cy="-54.134789" style="fill:none;stroke:#4d4d4d;stroke-width:1.33852994" id="circle4915" cx="-88.579475" r="24.283579" transform="rotate(-38.419141)"/>
  </clipPath>
  <clipPath id="clipPath4923" clipPathUnits="userSpaceOnUse">
   <path d="m -98.061502,-0.25402155 c -0.494788,0 -0.989577,0 -1.484365,0 -0.190303,0 -0.383677,0.0340426 -0.570913,0 -0.23683,-0.0430607 -0.44905,-0.18115558 -0.68509,-0.22836403 -0.29857,-0.0597146 -0.61488,0.0597145 -0.91346,0 -0.23604,-0.0472085 -0.44905,-0.18115557 -0.68509,-0.22836402 -0.14928,-0.0298572 -0.30541,0.0168124 -0.45673,0 -0.19288,-0.0214317 -0.37833,-0.0901103 -0.5709,-0.114182 -0.11331,-0.0141625 -0.22837,0 -0.34255,0 -0.30449,0 -0.60897,0 -0.91346,0 -0.11419,0 -0.23422,0.0361075 -0.34254,0 -0.0361,-0.0120358 0.0269,-0.0872691 0,-0.11418201 -0.0269,-0.0269129 -0.0761,0 -0.11419,0 -0.22837,0 -0.45673,0 -0.6851,0 -0.0761,0 -0.15451,0.0184621 -0.22836,0 -0.0826,-0.0206413 -0.14653,-0.0908015 -0.22836,-0.11418199 -0.18661,-0.053316 -0.38264,-0.067113 -0.57091,-0.114182 -0.23353,-0.058382 -0.44905,-0.1811556 -0.6851,-0.228364 -0.0746,-0.014928 -0.15371,0.014928 -0.22836,0 -0.11802,-0.023604 -0.22836,-0.076121 -0.34255,-0.114182 -0.11419,-0.038061 -0.23079,-0.069482 -0.34254,-0.114182 -0.0656,-0.026253 -0.3911,-0.2021111 -0.45673,-0.228364 -0.0743,-0.029727 -0.48165,-0.1391049 -0.57091,-0.228364 -0.0269,-0.026913 0.0269,-0.087269 0,-0.114182 -0.0269,-0.026913 -0.0781,0.012036 -0.11419,0 -0.82707,-0.2756892 0.18002,0.032919 -0.34255,-0.228364 -0.33234,-0.1661732 -0.40151,-0.03931 -0.68509,-0.228364 -0.59861,-0.3990767 0.49479,0.2664247 -0.11419,-0.3425461 -0.11419,-0.1141824 -0.22836,0.057091 -0.34254,0 -0.25247,-0.1262305 -0.0354,-0.070866 -0.11419,-0.2283639 -0.0523,-0.1045139 -0.25911,-0.2005496 -0.34255,-0.2283639 -0.0361,-0.012031 -0.0873,0.026912 -0.11417,0 -1.1e-4,-1.092e-4 1.7e-4,-0.3420286 0,-0.3425461 -0.017,-0.051064 -0.0901,-0.066039 -0.11419,-0.1141825 -0.017,-0.034043 0.017,-0.08014 0,-0.1141825 -0.0241,-0.048144 -0.0843,-0.069397 -0.11419,-0.1141825 -0.0472,-0.070813 -0.067,-0.1575506 -0.11419,-0.2283639 -0.0299,-0.044785 -0.0761,-0.076122 -0.11419,-0.1141825 -0.11419,-0.1141825 -0.24167,-0.2164531 -0.34255,-0.3425461 -0.0532,-0.066457 -0.054,-0.1681849 -0.11418,-0.2283639 -0.0602,-0.060179 -0.16819,-0.054002 -0.22837,-0.1141825 -0.0269,-0.026912 0.0269,-0.087268 0,-0.1141825 -0.0602,-0.060179 -0.1773,-0.046097 -0.22836,-0.1141824 -0.0722,-0.096286 -0.042,-0.2462593 -0.11419,-0.3425461 -0.0511,-0.068085 -0.1773,-0.046097 -0.22837,-0.1141825 -0.0722,-0.096286 -0.042,-0.2462592 -0.11418,-0.3425459 -0.0511,-0.068085 -0.15755,-0.066974 -0.22837,-0.1141825 -0.0448,-0.029858 -0.0761,-0.076121 -0.11419,-0.1141825 -0.0761,-0.076122 -0.16865,-0.1387924 -0.22836,-0.2283639 -0.0211,-0.031668 0.0269,-0.087268 0,-0.1141825 -0.0269,-0.026912 -0.0761,0 -0.11419,0 -0.0761,0 -0.16027,0.034043 -0.22836,0 -0.034,-0.017021 0.012,-0.078075 0,-0.1141825 -0.0269,-0.080739 -0.054,-0.1681847 -0.11419,-0.2283639 -0.23625,-0.2362466 0.009,0.3610161 -0.22837,-0.1141825 -0.0787,-0.1574971 0.13829,-0.1021327 -0.11419,-0.2283641 -0.034,-0.017021 -0.0873,0.026912 -0.11419,0 -0.23624,-0.2362466 0.36102,0.00924 -0.11419,-0.228364 -0.15749,-0.078749 -0.10214,0.1382804 -0.22836,-0.1141824 -0.0457,-0.091346 0.0457,-0.2512005 0,-0.3425461 -0.0481,-0.096286 -0.19432,-0.1262356 -0.22836,-0.228364 -0.0241,-0.072215 0,-0.1522427 0,-0.2283641 0,-0.1141825 0,-0.2283639 0,-0.3425459 0,-0.065791 -0.0208,-0.5292936 0,-0.57091 0.0481,-0.096288 0.18022,-0.1320773 0.22836,-0.2283642 0.017,-0.034042 -0.017,-0.08014 0,-0.1141824 0.0241,-0.048144 0.0901,-0.066039 0.11417,-0.1141825 0.017,-0.034043 -0.0211,-0.082515 0,-0.1141826 0.0597,-0.08957 0.15224,-0.152243 0.22837,-0.228364 0.0761,-0.07612 0.15224,-0.152243 0.22836,-0.228364 0.0381,-0.03806 0.0901,-0.06604 0.11419,-0.114182 0.017,-0.03404 -0.0211,-0.08252 0,-0.114183 -0.0977,-0.529736 0.24551,-0.131327 0.34255,-0.228364 0.0602,-0.06018 0.067,-0.15755 0.11419,-0.228364 0.0298,-0.04478 0.0761,-0.07612 0.11418,-0.114182 0.0381,-0.03806 0.066,-0.09011 0.11419,-0.114183 0.034,-0.01702 0.0801,0.01702 0.11419,0 0.0963,-0.04814 0.13208,-0.180221 0.22837,-0.228364 0.0681,-0.03404 0.17454,0.05383 0.22836,0 0.0269,-0.02691 -0.0269,-0.08727 0,-0.114182 0.0269,-0.02691 0.0761,0 0.11419,0 0.22836,0 0.45673,0 0.68509,0 0.53285,0 1.0657,0 1.59855,0 0.22836,0 0.45673,0 0.68509,0 0.0761,0 0.15452,0.01846 0.22837,0 0.0826,-0.02064 0.1458,-0.09354 0.22836,-0.114183 0.0738,-0.01846 0.15224,0 0.22836,0 0.19031,0 0.38061,0 0.57091,0 0.57091,0 1.14182,0 1.71273,0 0.38061,0 0.76122,0 1.14182,0 0.0761,0 0.15225,0 0.22837,0 0.11417,0 0.23177,-0.02769 0.34254,0 0.0522,0.01305 0.066,0.09011 0.11419,0.114183 0.0337,0.01685 0.68165,0 0.79928,0 0.60897,0 1.21794,0 1.82691,0 0.22836,0 0.45673,0 0.68509,0 0.0761,0 0.15224,0 0.22837,0 0.0381,0 0.0781,-0.01203 0.11418,0 0.0807,0.02691 0.15755,0.06697 0.22837,0.114182 0.0448,0.02986 0.0631,0.09716 0.11419,0.114183 0.063,0.02098 0.58819,0 0.68509,0 0.0381,0 0.0761,0 0.11419,0 0.0381,0 0.0801,-0.01702 0.11419,0 0.0481,0.02407 0.066,0.09011 0.11417,0.114182 0.034,0.01702 0.0761,0 0.11419,0 0.0381,0 0.0761,0 0.11419,0 0.22836,0 0.456726,0 0.685089,0 0.723154,0 1.446306,0 2.169459,0 0.228363,0 0.456728,0 0.685092,0 0.114189,0 0.231773,-0.02769 0.342545,0 0.08256,0.02064 0.145799,0.09354 0.228365,0.114183 0.07385,0.01846 0.152241,0 0.228364,0 0.228364,0 0.456728,0 0.685091,0 0.110441,0 0.651228,-0.01693 0.685093,0 0.04814,0.02407 0.06603,0.09011 0.114189,0.114182 0.03404,0.01702 0.08014,-0.01702 0.11419,0 0.290084,0.145042 -0.116934,0.136468 0.342545,0.228364 0.219582,0.04392 0.465512,-0.04392 0.685093,0 0.236043,0.04721 0.44905,0.181156 0.685092,0.228364 0.149279,0.02986 0.30903,-0.03692 0.456728,0 0.08256,0.02064 0.145799,0.09354 0.228363,0.114183 0.07385,0.01846 0.156157,-0.02407 0.228365,0 0.356398,0.118799 -0.03807,0.07612 0.114173,0.228364 0.03044,0.03044 0.524477,-0.03096 0.570911,0 0.07082,0.04721 0.04337,0.181155 0.114189,0.228363 0.06334,0.04223 0.155169,-0.02091 0.228363,0 0.733426,0.2095508 0.346656,0.2008461 0.913456,0.3425466 0.03693,0.00924 0.07612,0 0.11419,0 0.114189,0.03806 0.225781,0.084991 0.342545,0.1141824 0.03693,0.00924 0.07612,0 0.11419,0 0.09687,0 0.609335,-0.018939 0.685091,0 0.165126,0.041283 0.291597,0.1870815 0.456728,0.2283642 0.07385,0.018462 0.156157,-0.024071 0.228364,0 0.05107,0.017021 0.06603,0.09011 0.114189,0.1141824 0.09135,0.045672 0.251201,-0.045672 0.342546,0 0.03404,0.017021 -0.03404,0.097161 0,0.1141825 0.07271,0.03635 0.572881,-0.037403 0.685091,0 0.07612,0.03806 0.152241,0.076122 0.228365,0.1141825 0,0.03806 -0.02691,0.087268 0,0.1141825 0.06017,0.060178 0.152241,0.076121 0.228363,0.1141824 0.07612,0.03806 0.147623,0.087268 0.228365,0.1141825 0.07222,0.024071 0.160273,-0.034043 0.228363,0 0.09628,0.048144 0.138788,0.1686496 0.228365,0.228364 0.498695,0.3324633 -0.03763,-0.050607 0.456729,0.1141824 0.157696,0.052567 0.116448,0.2586122 0.228363,0.3425461 0.09628,0.072215 0.234894,0.060356 0.342546,0.1141825 0.04814,0.024071 0.06939,0.084325 0.114189,0.1141825 0.07082,0.047208 0.181155,0.04337 0.228363,0.1141824 0.04222,0.063336 -0.04222,0.1650272 0,0.228364 0.01255,0.018949 0.410064,0.1933657 0.456728,0.2283641 0.08613,0.064591 0.152241,0.1522427 0.228365,0.228364 0.03807,0.03806 0.09011,0.066039 0.114173,0.1141824 0.01702,0.034043 -0.01702,0.08014 0,0.1141825 0.2376,0.4751983 -0.0079,-0.1220639 0.228365,0.1141825 0.02691,0.026912 -0.02691,0.087268 0,0.1141825 0.02691,0.026912 0.08727,-0.026912 0.114189,0 0.01104,0.011077 0,0.5273985 0,0.57091 0,0.2283639 0,0.4567281 0,0.685092 0,0.076121 0.01846,0.1545151 0,0.2283639 -0.02065,0.082565 -0.08258,0.1493446 -0.114189,0.2283642 -0.0447,0.1117494 -0.06036,0.2348941 -0.114189,0.3425459 -0.02408,0.048144 -0.08189,0.071122 -0.11419,0.1141825 -0.08233,0.1097832 -0.160273,0.2233972 -0.228363,0.3425459 -0.08445,0.1477866 -0.108014,0.3363696 -0.228365,0.456728 -0.08511,0.085106 -0.257439,0.029076 -0.342546,0.1141825 -0.08511,0.085106 -0.07612,0.2283641 -0.114189,0.3425461 -0.114189,0.076122 -0.24551,0.1313276 -0.342547,0.2283639 -0.120364,0.1203588 -0.126237,0.3205582 -0.228364,0.4567281 -0.493869,0.4938704 -0.01789,-0.030247 -0.342545,0.456728 -0.0969,0.145361 -0.351207,0.3160335 -0.456728,0.4567281 -0.05107,0.068085 -0.04337,0.1811555 -0.11419,0.228364 -0.06334,0.042225 -0.152241,0 -0.228363,0 -0.114189,0 -0.234223,-0.036107 -0.342546,0 -0.130186,0.043396 -0.232762,0.1460263 -0.342547,0.228364 -0.04305,0.032296 -0.06196,0.1011274 -0.114189,0.114182 -0.110776,0.027693 -0.234224,-0.036107 -0.342546,0 -0.130186,0.043396 -0.219804,0.16699301 -0.342547,0.228364 -0.03344,0.016743 -0.671243,0.21801376 -0.685043,0.22836341 -0.06809,0.0510637 -0.07612,0.15224274 -0.11419,0.22836401 -0.114172,0.11418198 -0.204079,0.25946643 -0.342545,0.34254604 -0.06528,0.03916417 -0.153714,-0.01492792 -0.228364,0 -0.118021,0.02360423 -0.223825,0.09439515 -0.342545,0.11418197 -0.112633,0.01877144 -0.230583,-0.02239289 -0.342548,0 -0.08345,0.01668996 -0.14441,0.10019062 -0.228363,0.11418198 -0.150166,0.0250286 -0.304486,0 -0.456728,0 -0.114189,0 -0.228364,0 -0.342546,0 -0.418668,0 -0.837334,0 -1.256002,0 -0.532849,0 -1.065699,0 -1.598548,0 -0.114189,0 -0.228364,0 -0.342546,0 -0.114189,0 -0.229918,-0.0187714 -0.342546,0 -0.118724,0.0197868 -0.224526,0.0905777 -0.342547,0.11418197 -0.127041,0.0254064 -0.42216,0 -0.570909,0 -0.380608,0 -0.761214,0 -1.14182,0 -0.190305,0 -0.380608,0 -0.570911,0 -0.07612,0 -0.160273,0.0340426 -0.228363,0 -0.03404,-0.0170213 0.02691,-0.087269 0,-0.11418197 -0.0571,-0.0570911 -0.285456,0.0570911 -0.342547,0 -0.02691,-0.0269129 0.02691,-0.087269 0,-0.11418198 -0.05383,-0.05382587 -0.174537,0.05382587 -0.228364,0 -0.02691,-0.02691293 0.02691,-0.08726904 0,-0.11418197 -0.02691,-0.02691293 -0.08014,0.01702128 -0.114189,0 -0.04814,-0.02407176 -0.07612,-0.07612137 -0.114189,-0.11418197 -0.114189,-0.0380606 -0.228365,-0.0761214 -0.342547,-0.11418198 z" style="fill:none;stroke:#000000;stroke-width:1.67334652px;stroke-linecap:butt;stroke-linejoin:miter;stroke-opacity:1" id="path4925" inkscape:connector-curvature="0"/>
  </clipPath>
  <clipPath id="clipPath4929" clipPathUnits="userSpaceOnUse">
   <path d="m -89.612032,-2.9943897 c -0.114189,-0.1522428 -0.228365,-0.3044855 -0.342546,-0.4567281 0,-0.03806 0.01702,-0.08014 0,-0.1141825 -0.02408,-0.048144 -0.06603,-0.09011 -0.114189,-0.1141824 -0.03404,-0.017021 -0.08727,0.026912 -0.114189,0 -0.02691,-0.026912 0.01205,-0.078075 0,-0.1141825 -0.02691,-0.080739 -0.06312,-0.1602782 -0.114189,-0.228364 -0.615981,-0.8213086 0.126789,0.2409673 -0.456727,-0.3425461 -0.02691,-0.026912 0.01702,-0.08014 0,-0.1141824 -0.06138,-0.1227417 -0.131324,-0.2455101 -0.228365,-0.3425461 -0.120364,-0.1203588 -0.336369,-0.1080062 -0.456728,-0.228364 -0.445622,-0.445622 0.02642,-0.061321 -0.114189,-0.3425461 -0.06851,-0.1370186 -0.274037,-0.2055276 -0.342548,-0.3425459 -0.01702,-0.034042 0.02691,-0.087268 0,-0.1141825 -0.02691,-0.026912 -0.08727,0.026912 -0.114172,0 -0.02691,-0.026912 0.02691,-0.087268 0,-0.1141824 -0.02691,-0.026912 -0.08727,0.026912 -0.114189,0 -0.03986,-0.039856 0.04739,-0.3188478 0,-0.342546 -0.06809,-0.034042 -0.160273,0.034043 -0.228363,0 -0.03014,-0.01506 0.02274,-0.160161 0,-0.2283641 -0.02691,-0.080739 -0.07612,-0.1522427 -0.11419,-0.2283639 -0.07612,-0.1522428 -0.133951,-0.3151027 -0.228365,-0.4567281 -0.02985,-0.044785 -0.09011,-0.066039 -0.114189,-0.1141824 -0.01702,-0.034043 0.01702,-0.08014 0,-0.1141825 -0.2376,-0.4751981 0.0079,0.1220639 -0.228365,-0.1141825 -0.02691,-0.026912 0,-0.076121 0,-0.1141825 -0.03807,-0.076121 -0.054,-0.1681849 -0.114189,-0.2283639 -0.02691,-0.026912 -0.08727,0.026912 -0.114189,0 -0.05383,-0.053827 0.03404,-0.1602798 0,-0.2283641 -0.02408,-0.048144 -0.09011,-0.066039 -0.114189,-0.1141825 -0.03738,-0.074768 0.03377,-0.4695812 0,-0.57091 -0.02691,-0.080739 -0.08727,-0.1476244 -0.114189,-0.228364 -0.02408,-0.072215 0.05383,-0.1745382 0,-0.2283641 -0.236247,-0.2362466 0.0092,0.3610161 -0.228364,-0.1141825 -0.03404,-0.068085 0.05383,-0.1745381 0,-0.2283639 -0.02691,-0.026912 -0.08727,0.026912 -0.114189,0 -0.02691,-0.026912 0.02691,-0.08727 0,-0.1141825 -0.05383,-0.053826 -0.174538,0.053826 -0.228363,0 -0.02691,-0.026912 0.02691,-0.087268 0,-0.1141825 -0.05383,-0.053826 -0.160273,0.034043 -0.228365,0 -0.04814,-0.024071 -0.07612,-0.076122 -0.114189,-0.1141825 -0.07612,-0.076122 -0.152241,-0.1522428 -0.228365,-0.2283638 -0.178066,-0.178066 -0.321015,-0.331781 -0.570911,-0.456728 -0.06809,-0.03404 -0.152241,0 -0.228363,0 -0.03807,0 -0.08727,0.02691 -0.114189,0 -0.06017,-0.06018 -0.054,-0.168185 -0.114173,-0.228364 -0.02691,-0.02691 -0.08014,0.01702 -0.114189,0 -0.04814,-0.02407 -0.06312,-0.09716 -0.114189,-0.114183 -0.07222,-0.02407 -0.160273,0.03404 -0.228363,0 -0.03404,-0.01702 0,-0.07612 0,-0.114182 -0.07612,-0.03806 -0.147623,-0.08727 -0.228365,-0.114183 -0.03611,-0.01203 -0.07612,0 -0.114189,0 -0.11419,-0.03806 -0.230797,-0.06948 -0.342548,-0.114182 -0.158031,-0.06322 -0.291597,-0.187081 -0.456726,-0.228364 -0.07384,-0.01846 -0.160274,0.03404 -0.228365,0 -0.03404,-0.01702 0.03611,-0.102146 0,-0.114183 -0.108316,-0.03611 -0.231774,0.02769 -0.342546,0 -0.104434,-0.02611 -0.132077,-0.18022 -0.228365,-0.228364 -0.157495,-0.07875 -0.102124,0.138281 -0.228363,-0.114182 -0.01702,-0.03404 0.02691,-0.08727 0,-0.114183 -0.03763,-0.03764 -0.3741,0.02754 -0.456729,0 -0.05107,-0.01702 -0.06603,-0.09011 -0.114189,-0.114182 -0.03404,-0.01702 -0.07612,0 -0.114189,0 -0.07612,0 -0.156157,0.02407 -0.228365,0 -0.05107,-0.01702 -0.06196,-0.101127 -0.114172,-0.114183 -0.110776,-0.02769 -0.228365,0 -0.342548,0 -0.114189,0 -0.228363,0 -0.342548,0 -0.0381,0 -0.0773,0.0092 -0.11419,0 -0.11676,-0.02919 -0.22682,-0.08112 -0.34254,-0.114182 -0.15089,-0.04311 -0.3098,-0.05908 -0.45673,-0.114183 -0.56438,-0.28219 -0.29525,-0.174538 -0.79928,-0.342545 -0.11419,-0.03806 -0.23079,-0.06948 -0.34254,-0.114183 -0.079,-0.03161 -0.14441,-0.10019 -0.22837,-0.114182 -0.15016,-0.02503 -0.30448,0 -0.45672,0 -0.15224,0 -0.30449,0 -0.45673,0 -0.11419,0 -0.23178,0.02769 -0.34255,0 -0.0522,-0.01305 -0.0631,-0.09716 -0.11419,-0.114183 -0.0523,-0.01742 -0.50717,0 -0.57091,0 -0.41866,0 -0.83733,0 -1.256,0 -0.72315,0 -1.4463,0 -2.16946,0 -0.1903,0 -0.3806,0 -0.57091,0 -0.11419,0 -0.22992,-0.01877 -0.34254,0 -0.11873,0.01979 -0.2234,0.09716 -0.34255,0.114183 -0.15072,0.02153 -0.30448,0 -0.45673,0 -0.0761,0 -0.15614,-0.02407 -0.22836,0 -0.0511,0.01702 -0.0631,0.09716 -0.11419,0.114182 -0.0722,0.02407 -0.15224,0 -0.22836,0 -0.0761,0 -0.15224,0 -0.22837,0 -0.0967,0 -0.39534,-0.02046 -0.45673,0 -0.0511,0.01702 -0.0631,0.09716 -0.11419,0.114183 -0.43512,0.145042 -0.0195,-0.253404 -0.5709,0.114182 -0.0317,0.02111 0,0.07612 0,0.114182 -0.0381,0.03806 -0.066,0.09011 -0.11419,0.114183 -0.0681,0.03404 -0.15616,-0.02407 -0.22837,0 -0.0761,0.03806 -0.15224,0.07612 -0.22836,0.114182 0,0.03806 0.0269,0.08727 0,0.114183 -0.0602,0.06018 -0.15755,0.06697 -0.22836,0.114182 -0.0448,0.02986 -0.0631,0.09716 -0.11419,0.114183 -0.0722,0.02407 -0.15614,-0.02407 -0.22837,0 -0.22721,0.07574 -0.0533,0.10657 -0.11419,0.228364 -0.0241,0.04814 -0.0843,0.0694 -0.11419,0.114182 -0.0472,0.07081 -0.067,0.157551 -0.11418,0.228364 -0.0299,0.04479 -0.0901,0.06604 -0.11419,0.114183 -0.034,0.06808 0.034,0.160278 0,0.228364 -0.0241,0.04814 -0.0761,0.07612 -0.11419,0.114182 -0.0381,0.03806 -0.0694,0.08432 -0.11419,0.114183 -0.0708,0.04721 -0.1773,0.0461 -0.22837,0.114182 -0.13825,0.184339 -0.11418,0.36792 -0.11418,0.57091 0,0.07612 0,0.152243 0,0.228364 0,0.03806 0.0361,0.1021465 0,0.1141828 -0.10832,0.036107 -0.2512,-0.068509 -0.34255,0 -0.0963,0.072215 -0.0695,0.230796 -0.11419,0.3425461 -0.0316,0.079019 -0.067,0.1575506 -0.11417,0.228364 -0.12433,0.1864829 -0.16923,0.046872 -0.22837,0.3425461 0,0.1141824 0,0.2283639 0,0.3425459 -0.0381,0.03806 -0.0971,0.063119 -0.11419,0.1141825 -0.0195,0.058448 0,0.6034621 0,0.6850921 0,0.03806 0.017,0.08014 0,0.1141825 -0.0241,0.048144 -0.0901,0.066039 -0.11419,0.1141825 -0.017,0.034043 0,0.076122 0,0.1141825 0,0.2664247 0,0.5328494 0,0.7992741 0,0.076122 0,0.1522428 0,0.228364 0,0.076121 -0.034,0.1602781 0,0.2283641 0.017,0.034042 0.0801,-0.017021 0.11419,0 0.0482,0.024071 0.0901,0.066039 0.11419,0.1141825 0.034,0.068085 -0.034,0.1602798 0,0.2283639 0.0614,0.1227416 0.15777,0.2248725 0.22837,0.3425461 0.13515,0.225254 0.13211,0.3604815 0.34254,0.57091 0.0602,0.060179 0.16819,0.054002 0.22837,0.1141825 0.17232,0.1723271 0.2695,0.4148926 0.45673,0.57091 0.0585,0.048731 0.15451,-0.018462 0.22836,0 0.0826,0.020641 0.16027,0.063119 0.22836,0.1141825 0.17225,0.1291824 0.28861,0.322229 0.45673,0.4567281 0.10716,0.085727 0.22836,0.1522427 0.34255,0.2283641 0.11419,0.07612 0.21641,0.1743065 0.34254,0.2283639 0.81108,0.3476041 0.16374,0.00991 0.68509,0.1141825 0.41041,0.082081 0.72899,0.3879227 1.14183,0.4567281 0.11263,0.018772 0.22836,0 0.34254,0 0.1903,0 0.38061,0 0.57091,0 0.0381,0 0.0766,-0.00626 0.11419,0 0.19143,0.031906 0.38542,0.057108 0.57091,0.1141824 0.73223,0.2253011 0.81118,0.3894099 1.48437,0.4567281 0.45446,0.045446 0.91461,-0.03254 1.37018,0 0.26845,0.019175 0.53083,0.095008 0.79927,0.1141825 0.26575,0.018982 0.53377,-0.022125 0.79928,0 0.1934,0.016114 0.3778,0.094872 0.57091,0.1141825 0.18936,0.018935 0.38061,0 0.57091,0 0.64703,0 1.29406,0 1.94109,0 0.38061,0 0.761216,0 1.141824,0 0.148677,0 0.570661,0.022886 0.685091,0 0.08345,-0.016683 0.145799,-0.09354 0.228363,-0.1141825 0.07384,-0.018462 0.152242,0 0.228365,0 0.11685,0 0.819109,0.023588 0.913457,0 0.165126,-0.041283 0.29525,-0.1745381 0.456726,-0.228364 0.0618,-0.020599 0.41783,0 0.456729,0 0.304485,0 0.608971,0 0.913456,0 0.165126,0 0.678699,0.024115 0.799274,0 0.911335,-0.1822671 -0.834889,-0.1141824 0.685092,-0.1141824 0.228365,0 0.456728,0 0.685093,0 0.07612,0 0.152241,0 0.228363,0 0.03807,0 0.08014,0.017021 0.114189,0 0.04814,-0.024071 0.06603,-0.09011 0.114189,-0.1141825 0.02559,-0.012801 0.429595,0 0.456729,0 0.418666,0 0.837334,0 1.256,0 0.139741,0 0.455072,0.00497 0.456728,0 0.03611,-0.1083224 0.03611,-0.2342234 0,-0.3425459 -0.01205,-0.036107 -0.08727,0.026912 -0.114172,0 -0.02691,-0.026912 -0.02691,-0.087268 0,-0.1141825 0.0045,-0.0046 0.414796,0 0.456727,0 0.03807,0 0.08014,0.017021 0.114189,0 0.04814,-0.024071 0.06036,-0.1141825 0.114189,-0.1141825 0.156926,0 0.304485,0.076122 0.456728,0.1141825 z" style="fill:none;stroke:#000000;stroke-width:1.67334652px;stroke-linecap:butt;stroke-linejoin:miter;stroke-opacity:1" id="path4931" inkscape:connector-curvature="0"/>
  </clipPath>
  <clipPath id="clipPath4937" clipPathUnits="userSpaceOnUse">
   <path d="m -106.60726,-13.805544 3.31029,2.502905 9.527187,2.5029055 1.937734,3.7139881 -15.178911,2.7451217 -9.28497,-6.2976321 z" style="fill:none;stroke:#000000;stroke-width:0.33466932;stroke-linecap:butt;stroke-linejoin:miter;stroke-miterlimit:4;stroke-dasharray:none;stroke-opacity:1" id="path4939" inkscape:connector-curvature="0"/>
  </clipPath>
  <clipPath id="clipPath5191" clipPathUnits="userSpaceOnUse">
   <path d="M -69.327492,0.81882864 -46.127346,24.018974 -43.05674,8.3247579 V -2.7294289 Z" style="fill:none;stroke:#000000;stroke-width:1px;stroke-linecap:butt;stroke-linejoin:miter;stroke-opacity:1" id="path5193" inkscape:connector-curvature="0"/>
  </clipPath>
  <clipPath id="clipPath5742" clipPathUnits="userSpaceOnUse">
   <path d="m -74.513412,-4.640029 24.974273,24.974273 V -4.640029 Z" style="fill:none;stroke:#000000;stroke-width:1px;stroke-linecap:butt;stroke-linejoin:miter;stroke-opacity:1" id="path5744" inkscape:connector-curvature="0"/>
  </clipPath>
  <clipPath id="clipPath5785" clipPathUnits="userSpaceOnUse">
   <rect ry="0.83432478" style="fill:#333333;fill-opacity:1;stroke:none;stroke-width:0.22472635;stroke-miterlimit:4;stroke-dasharray:none;stroke-opacity:1" id="rect5787" x="-29.375477" transform="rotate(45)" y="42.647324" height="11.156541" width="20.811895"/>
  </clipPath>
  <clipPath id="clipPath5799" clipPathUnits="userSpaceOnUse">
   <rect ry="5.8891525" style="fill:#333333;fill-opacity:1;stroke:none;stroke-width:0.25457799;stroke-miterlimit:4;stroke-dasharray:none;stroke-opacity:1" id="rect5801" x="-89.513351" transform="rotate(-45)" y="7.8397613" height="29.357262" width="29.725763"/>
  </clipPath>
  <clipPath id="clipPath5799-1" clipPathUnits="userSpaceOnUse">
   <rect ry="5.8891525" style="fill:#333333;fill-opacity:1;stroke:none;stroke-width:0.25457799;stroke-miterlimit:4;stroke-dasharray:none;stroke-opacity:1" id="rect5801-2" x="-89.513351" transform="rotate(-45)" y="7.8397613" height="29.357262" width="29.725763"/>
  </clipPath>
  <pattern id="EMFhbasepattern" x="0" width="6" height="6" y="0" patternUnits="userSpaceOnUse"/>
 </defs>
 <sodipodi:namedview fit-margin-right="0" id="base" inkscape:document-rotation="0" inkscape:cy="636.42799" inkscape:current-layer="layer1" inkscape:window-y="-8" inkscape:window-height="1137" fit-margin-bottom="0" inkscape:pageshadow="2" inkscape:window-maximized="1" inkscape:document-units="mm" inkscape:pageopacity="0.0" fit-margin-left="0" fit-margin-top="0" borderopacity="1.0" pagecolor="#ffffff" inkscape:window-x="-8" showgrid="false" inkscape:window-width="1920" bordercolor="#666666" inkscape:cx="110.12432" inkscape:zoom="0.35"/>
 <metadata id="metadata665">
  <rdf:RDF>
   <cc:Work rdf:about="">
    <dc:format>image/svg+xml</dc:format>
    <dc:type rdf:resource="http://purl.org/dc/dcmitype/StillImage"/>
    <dc:title/>
   </cc:Work>
  </rdf:RDF>
 </metadata>
 <g inkscape:groupmode="layer" inkscape:label="Ebene 1" id="layer1" transform="translate(-61.30422,-42.980204)">
  <g style="fill:#d4aa00;stroke:none;stroke-width:7.4934535" id="g4555" transform="matrix(0.00490866,0,0,-0.00451517,61.29456,98.151739)">
   <path d="m 5265,12204 c -22,-9 -148,-46 -280,-84 -269,-77 -344,-104 -460,-162 -190,-96 -295,-213 -352,-395 l -25,-83 -117,-73 c -64,-41 -183,-118 -265,-171 -105,-69 -142,-89 -127,-69 87,112 170,265 221,408 32,93 142,505 134,505 -26,0 -365,-217 -489,-314 -91,-70 -248,-229 -313,-315 -74,-99 -145,-236 -173,-337 -30,-108 -30,-244 1,-334 l 22,-65 -29,-24 c -121,-103 -297,-268 -408,-384 l -133,-139 49,95 c 138,267 182,572 144,987 -10,107 -21,200 -24,207 -4,7 -43,-33 -96,-100 -445,-552 -529,-707 -566,-1042 -24,-227 30,-533 96,-543 13,-2 47,20 93,58 l 73,62 -89,-119 c -146,-193 -344,-500 -418,-645 -14,-28 -27,-48 -30,-46 -2,3 1,29 6,59 20,103 28,270 20,402 -12,193 -30,265 -177,727 -31,96 -59,179 -63,183 -8,9 -22,-34 -140,-403 -187,-587 -222,-821 -159,-1077 28,-114 59,-187 142,-336 l 72,-128 29,33 c 16,18 26,26 23,18 -3,-8 -23,-60 -45,-116 -53,-130 -110,-297 -157,-454 -20,-69 -39,-132 -42,-140 -3,-8 -16,30 -28,85 -55,236 -162,488 -289,679 -51,78 -124,192 -161,253 -67,112 -99,152 -111,140 -4,-4 -11,-89 -15,-189 -5,-101 -13,-246 -19,-323 -14,-204 -12,-532 5,-655 46,-341 150,-537 357,-671 34,-22 72,-42 85,-45 27,-7 27,1 8,-172 -18,-167 -35,-435 -35,-557 v -90 l -56,104 c -108,203 -288,471 -409,608 -63,71 -397,343 -422,343 -11,0 -14,-7 -10,-22 13,-61 70,-352 98,-503 116,-631 291,-959 629,-1181 72,-47 197,-116 217,-119 1,0 11,-61 23,-135 27,-170 72,-386 109,-531 16,-61 26,-107 22,-103 -4,5 -28,36 -53,69 -112,148 -198,215 -783,607 -150,100 -370,229 -373,219 -4,-12 368,-764 453,-916 104,-184 160,-260 280,-380 120,-121 260,-221 387,-279 122,-55 280,-106 331,-106 33,0 47,-4 47,-13 0,-37 290,-587 385,-732 16,-24 7,-19 -50,27 -107,85 -233,161 -420,253 -202,99 -312,138 -554,200 -99,25 -229,63 -288,84 -168,60 -171,48 -30,-121 56,-68 155,-191 220,-274 223,-287 577,-600 792,-700 92,-42 274,-97 399,-119 77,-14 126,-16 222,-11 68,3 134,10 147,15 22,9 32,1 104,-82 174,-201 430,-450 623,-609 37,-30 8,-18 -160,66 -192,97 -212,104 -320,124 -409,76 -1320,161 -1320,124 0,-34 634,-481 817,-575 180,-93 485,-198 643,-222 183,-28 435,-15 590,31 30,9 92,32 138,51 82,35 82,36 65,56 -11,13 1,8 31,-13 189,-128 641,-371 838,-450 32,-13 56,-25 55,-27 -2,-2 -51,5 -108,14 -128,21 -524,23 -674,4 -100,-12 -245,-38 -625,-110 -113,-21 -278,-52 -367,-68 -90,-15 -162,-32 -160,-37 5,-14 778,-243 912,-270 194,-39 323,-49 552,-43 384,10 612,85 822,271 l 94,82 134,-38 c 139,-39 400,-98 532,-119 l 73,-12 -73,-19 C 5344,667 5262,631 4675,339 4245,126 4090,43 4090,28 c 0,-21 584,2 840,32 288,35 600,125 845,245 147,72 261,163 374,298 l 64,77 h 196 197 l 139,-131 c 261,-245 299,-265 735,-397 275,-83 327,-91 884,-128 425,-28 440,-27 377,26 -38,32 -267,148 -366,185 -90,34 -152,66 -270,140 -220,138 -519,261 -814,338 l -92,24 143,27 c 189,35 434,96 588,145 69,22 115,33 103,24 -34,-23 -29,-56 15,-95 138,-125 399,-241 614,-274 164,-25 521,-23 669,4 178,33 822,222 912,268 36,19 34,40 -5,53 -50,15 -409,86 -633,125 -444,77 -690,102 -852,86 -148,-14 -332,-46 -442,-75 -51,-14 -95,-25 -99,-25 -4,0 63,29 148,63 793,322 1522,858 2107,1552 41,49 42,50 40,20 -3,-48 34,-60 188,-60 145,0 280,24 440,77 137,46 216,89 375,202 298,213 423,337 590,581 87,127 202,258 298,339 35,29 38,49 6,54 -11,1 -89,-17 -174,-42 -85,-25 -219,-61 -296,-80 -172,-43 -269,-79 -431,-156 -235,-112 -454,-254 -606,-391 -78,-71 -80,-72 -51,-29 135,197 371,631 443,812 13,32 26,58 29,58 3,0 14,-7 24,-16 23,-22 86,-10 225,41 283,106 540,293 681,499 93,135 377,677 501,957 50,113 60,149 42,149 -21,0 -464,-280 -712,-451 -231,-158 -365,-284 -474,-444 -26,-38 -48,-71 -49,-72 -2,-2 13,52 31,120 57,207 121,517 148,718 5,43 7,45 33,41 19,-2 53,10 105,36 258,134 421,300 550,557 101,203 150,375 226,790 28,149 60,301 71,338 22,71 23,108 4,114 -19,6 -117,-82 -304,-273 -365,-372 -504,-562 -601,-823 l -28,-76 -1,135 c 0,218 -35,686 -57,780 l -6,25 24,-22 c 22,-19 27,-20 61,-9 53,19 128,77 201,157 195,209 278,586 249,1121 -12,227 -41,604 -48,627 -9,30 -350,-543 -454,-761 -88,-188 -99,-243 -101,-508 l -1,-185 -24,95 c -43,174 -85,322 -131,464 -49,153 -178,487 -224,578 -49,97 -32,79 31,-34 67,-119 88,-138 125,-114 91,60 235,417 252,623 3,40 0,107 -6,150 -28,178 -121,524 -223,826 -64,191 -75,217 -94,217 -31,0 -172,-340 -210,-510 -35,-152 -35,-773 0,-867 8,-24 13,-43 11,-43 -2,0 -29,48 -60,107 -186,347 -420,690 -692,1012 -118,140 -442,467 -572,576 -85,72 -91,80 -70,85 41,10 53,53 57,194 6,181 -12,257 -89,383 -91,150 -331,404 -499,529 -108,81 -337,224 -357,224 -23,0 -15,-68 27,-227 96,-370 156,-496 338,-711 52,-61 54,-65 22,-44 -79,51 -145,89 -350,201 l -215,117 -8,62 c -26,212 -200,415 -458,536 -89,42 -619,208 -709,222 -34,6 -40,4 -40,-11 0,-46 272,-398 435,-561 153,-155 310,-241 521,-289 l 104,-23 224,-154 c 123,-84 223,-154 221,-156 -1,-1 -24,2 -51,8 -105,21 -294,24 -408,5 -193,-30 -557,-133 -683,-192 -129,-62 -92,-77 288,-118 129,-13 288,-32 354,-41 260,-34 797,-28 910,12 48,16 44,19 233,-140 167,-139 221,-189 197,-181 -217,77 -539,113 -851,95 -171,-9 -224,-21 -224,-50 0,-22 23,-37 125,-80 44,-18 204,-91 355,-161 482,-222 654,-274 977,-295 l 104,-7 38,-46 c 101,-123 321,-421 321,-436 0,-3 -21,10 -47,29 -76,54 -249,142 -374,189 -313,119 -669,200 -669,153 0,-8 46,-55 103,-104 160,-139 627,-524 714,-588 198,-147 481,-310 592,-340 l 64,-18 35,-76 c 85,-187 225,-558 199,-530 -133,144 -174,186 -240,246 -42,40 -114,97 -160,127 -212,142 -619,348 -643,325 -10,-11 24,-63 102,-153 148,-172 273,-352 392,-565 36,-63 94,-153 130,-199 136,-175 403,-418 557,-508 36,-21 67,-45 70,-53 10,-33 56,-376 70,-530 14,-151 19,-313 8,-265 -34,155 -137,381 -222,488 -80,100 -637,664 -647,655 -16,-17 215,-751 316,-1003 124,-310 298,-594 485,-794 l 62,-66 -8,-80 c -22,-214 -70,-513 -106,-665 -4,-16 -11,12 -19,79 -29,233 -87,384 -278,715 -177,309 -298,490 -320,483 -18,-6 -18,-96 -1,-382 25,-429 54,-781 76,-930 29,-191 159,-504 272,-653 l 47,-64 -56,-136 c -86,-209 -342,-720 -310,-620 3,10 11,68 17,129 17,160 6,463 -21,609 -80,435 -188,736 -243,681 -6,-6 -16,-62 -23,-126 -13,-111 -33,-208 -138,-668 -71,-312 -88,-423 -93,-610 -6,-202 8,-300 74,-490 l 43,-129 -52,-66 c -68,-87 -240,-289 -316,-372 l -60,-65 24,105 c 48,210 59,333 57,645 0,161 -7,350 -14,425 l -14,135 -96,-185 c -138,-265 -241,-450 -315,-562 -203,-311 -248,-473 -270,-975 l -7,-152 -145,-102 c -145,-102 -414,-271 -420,-264 -2,2 12,25 31,52 112,157 231,432 292,672 26,107 78,406 73,423 -5,15 -538,-501 -690,-668 -308,-339 -403,-501 -442,-753 l -12,-75 -145,-48 c -126,-41 -449,-131 -449,-124 0,1 32,29 72,61 166,139 385,424 482,630 29,61 72,202 64,210 -2,2 -64,-26 -138,-62 -145,-69 -244,-110 -465,-193 -278,-103 -402,-183 -552,-353 -139,-156 -230,-311 -220,-372 l 5,-32 -60,-7 c -34,-3 -181,-6 -328,-6 -202,0 -270,3 -277,13 -5,6 -29,58 -52,115 -74,176 -156,293 -272,388 -135,110 -252,169 -599,300 -96,36 -246,101 -332,144 -87,43 -158,75 -158,70 0,-25 48,-156 82,-225 102,-201 367,-528 530,-653 27,-20 45,-38 40,-40 -20,-6 -444,109 -587,161 l -40,14 -7,73 c -23,226 -114,397 -344,650 -117,129 -776,801 -781,797 -9,-10 39,-274 76,-420 87,-339 173,-542 314,-736 l 39,-53 -48,28 c -286,165 -560,351 -558,380 1,11 7,58 15,107 39,260 -87,709 -296,1047 -101,164 -192,325 -291,516 -53,101 -99,184 -103,184 -11,0 -21,-287 -21,-590 0,-420 20,-581 91,-724 l 30,-61 -51,50 c -78,75 -277,299 -368,413 l -80,100 29,58 c 53,109 96,321 106,519 8,179 -26,414 -117,805 -86,366 -130,590 -130,659 0,44 -14,71 -30,55 -20,-20 -88,-189 -119,-298 -36,-128 -91,-378 -123,-561 -31,-183 -30,-353 5,-546 15,-81 29,-155 33,-165 12,-39 -99,156 -176,307 -85,168 -139,285 -205,449 l -43,104 34,26 c 111,83 272,410 309,628 45,264 120,1321 95,1346 -27,27 -170,-173 -341,-479 -194,-348 -254,-534 -268,-830 l -6,-140 -23,95 c -52,213 -101,491 -122,690 -6,58 -13,118 -15,134 -4,25 -3,27 10,16 22,-18 44,5 180,185 147,196 275,387 315,471 30,64 136,349 158,424 5,19 29,93 51,164 60,187 158,514 169,564 6,23 6,42 2,42 -25,0 -468,-434 -572,-560 -152,-184 -257,-406 -313,-663 -10,-43 -19,-76 -21,-74 -7,6 16,407 30,542 26,245 58,435 73,435 25,0 89,38 189,113 246,184 419,383 729,842 81,121 199,288 262,371 62,83 113,158 113,167 0,22 -32,11 -157,-52 -231,-116 -572,-328 -688,-427 -73,-63 -182,-187 -253,-288 -23,-33 -42,-57 -42,-54 0,32 151,433 226,604 l 45,100 58,12 c 106,22 348,151 581,309 164,112 267,192 425,333 72,64 189,163 260,222 156,127 187,157 183,177 -5,25 -102,18 -253,-18 -323,-77 -588,-192 -809,-350 -43,-31 -88,-63 -99,-71 -43,-31 271,412 377,530 26,29 28,30 122,30 260,0 552,77 879,232 94,44 264,122 379,174 114,51 215,99 222,105 24,20 16,46 -18,59 -89,31 -562,29 -768,-4 -95,-15 -238,-53 -308,-81 l -37,-15 50,45 c 70,64 258,222 330,277 l 60,47 80,-23 c 197,-57 483,-59 910,-6 333,41 515,60 584,61 63,0 122,17 129,37 9,30 -329,158 -544,206 -60,14 -153,30 -207,37 -124,15 -418,6 -502,-15 -33,-8 -61,-13 -62,-12 -1,1 28,25 65,53 37,28 136,103 221,167 84,64 157,113 162,110 6,-3 57,-1 114,6 235,25 408,122 650,365 249,250 412,476 364,506 -17,11 -15,11 -64,-7 z" style="fill:#d4aa00;stroke-width:7.4934535" id="path4549" inkscape:connector-curvature="0"/>
   <path d="m 10175,11360 c 2,-74 7,-234 10,-355 7,-268 21,-424 46,-523 24,-94 93,-241 166,-351 83,-126 324,-361 370,-361 76,0 124,459 72,695 -41,189 -138,376 -307,595 -64,82 -278,341 -335,404 l -28,31 z" style="fill:#d4aa00;stroke-width:7.4934535" id="path4551" inkscape:connector-curvature="0"/>
   <path d="m 11300,2203 c -621,-44 -808,-67 -1031,-123 -287,-72 -513,-187 -768,-388 -96,-76 -128,-129 -106,-172 38,-73 351,-141 579,-126 194,14 458,84 652,175 223,105 910,553 931,608 3,8 0,19 -8,24 -13,8 -149,9 -249,2 z" style="fill:#d4aa00;stroke-width:7.4934535" id="path4553" inkscape:connector-curvature="0"/>
  </g>
 </g>
</svg>
