<?xml version='1.0' encoding='UTF-8' standalone='no'?>
<svg xmlns:cc="http://creativecommons.org/ns#" xmlns:rdf="http://www.w3.org/1999/02/22-rdf-syntax-ns#" version="1.1" viewBox="0 0 62.336523 55.244798" height="55.244797mm" xmlns="http://www.w3.org/2000/svg" xmlns:inkscape="http://www.inkscape.org/namespaces/inkscape" width="62.336529mm" xmlns:svg="http://www.w3.org/2000/svg" id="svg668" xmlns:dc="http://purl.org/dc/elements/1.1/" xmlns:sodipodi="http://sodipodi.sourceforge.net/DTD/sodipodi-0.dtd" inkscape:version="0.92.4 (5da689c313, 2019-01-14)" sodipodi:docname="Award.svg">
 <defs id="defs662">
  <clipPath id="clipPath143" clipPathUnits="userSpaceOnUse">
   <rect height="203.14427" style="stroke-width:1.71212864" width="203.14427" id="rect145" transform="rotate(-43.315315)" x="-715.1568" y="67.804993"/>
  </clipPath>
  <clipPath id="clipPath4719" clipPathUnits="userSpaceOnUse">
   <rect ry="0.40744901" height="42.942448" style="fill:#000000;fill-opacity:1;stroke:#000000" rx="2.47085" width="8.8779888" id="rect4721" x="-34.546959" y="25.718069"/>
  </clipPath>
  <clipPath id="clipPath4885" clipPathUnits="userSpaceOnUse">
   <circle cy="-28.001387" r="10.929907" style="fill:none;stroke:#4d4d4d;stroke-width:0.60246503" id="circle4887" cx="-52.648228" transform="rotate(-38.419141)"/>
  </clipPath>
  <clipPath id="clipPath4889" clipPathUnits="userSpaceOnUse">
   <circle cy="-28.001387" r="10.929907" style="fill:none;stroke:#4d4d4d;stroke-width:0.60246503" id="circle4891" cx="-52.648228" transform="rotate(-38.419141)"/>
  </clipPath>
  <clipPath id="clipPath4893" clipPathUnits="userSpaceOnUse">
   <circle cy="-28.001387" r="10.929907" style="fill:none;stroke:#4d4d4d;stroke-width:0.60246503" id="circle4895" cx="-52.648228" transform="rotate(-38.419141)"/>
  </clipPath>
  <clipPath id="clipPath4897" clipPathUnits="userSpaceOnUse">
   <circle cy="-28.001387" r="10.929907" style="fill:none;stroke:#4d4d4d;stroke-width:0.60246503" id="circle4899" cx="-52.648228" transform="rotate(-38.419141)"/>
  </clipPath>
  <clipPath id="clipPath4913" clipPathUnits="userSpaceOnUse">
   <circle cy="-54.134789" r="24.283579" style="fill:none;stroke:#4d4d4d;stroke-width:1.33852994" id="circle4915" cx="-88.579475" transform="rotate(-38.419141)"/>
  </clipPath>
  <clipPath id="clipPath4923" clipPathUnits="userSpaceOnUse">
   <path style="fill:none;stroke:#000000;stroke-width:1.67334652px;stroke-linecap:butt;stroke-linejoin:miter;stroke-opacity:1" d="m -98.061502,-0.25402155 c -0.494788,0 -0.989577,0 -1.484365,0 -0.190303,0 -0.383677,0.0340426 -0.570913,0 -0.23683,-0.0430607 -0.44905,-0.18115558 -0.68509,-0.22836403 -0.29857,-0.0597146 -0.61488,0.0597145 -0.91346,0 -0.23604,-0.0472085 -0.44905,-0.18115557 -0.68509,-0.22836402 -0.14928,-0.0298572 -0.30541,0.0168124 -0.45673,0 -0.19288,-0.0214317 -0.37833,-0.0901103 -0.5709,-0.114182 -0.11331,-0.0141625 -0.22837,0 -0.34255,0 -0.30449,0 -0.60897,0 -0.91346,0 -0.11419,0 -0.23422,0.0361075 -0.34254,0 -0.0361,-0.0120358 0.0269,-0.0872691 0,-0.11418201 -0.0269,-0.0269129 -0.0761,0 -0.11419,0 -0.22837,0 -0.45673,0 -0.6851,0 -0.0761,0 -0.15451,0.0184621 -0.22836,0 -0.0826,-0.0206413 -0.14653,-0.0908015 -0.22836,-0.11418199 -0.18661,-0.053316 -0.38264,-0.067113 -0.57091,-0.114182 -0.23353,-0.058382 -0.44905,-0.1811556 -0.6851,-0.228364 -0.0746,-0.014928 -0.15371,0.014928 -0.22836,0 -0.11802,-0.023604 -0.22836,-0.076121 -0.34255,-0.114182 -0.11419,-0.038061 -0.23079,-0.069482 -0.34254,-0.114182 -0.0656,-0.026253 -0.3911,-0.2021111 -0.45673,-0.228364 -0.0743,-0.029727 -0.48165,-0.1391049 -0.57091,-0.228364 -0.0269,-0.026913 0.0269,-0.087269 0,-0.114182 -0.0269,-0.026913 -0.0781,0.012036 -0.11419,0 -0.82707,-0.2756892 0.18002,0.032919 -0.34255,-0.228364 -0.33234,-0.1661732 -0.40151,-0.03931 -0.68509,-0.228364 -0.59861,-0.3990767 0.49479,0.2664247 -0.11419,-0.3425461 -0.11419,-0.1141824 -0.22836,0.057091 -0.34254,0 -0.25247,-0.1262305 -0.0354,-0.070866 -0.11419,-0.2283639 -0.0523,-0.1045139 -0.25911,-0.2005496 -0.34255,-0.2283639 -0.0361,-0.012031 -0.0873,0.026912 -0.11417,0 -1.1e-4,-1.092e-4 1.7e-4,-0.3420286 0,-0.3425461 -0.017,-0.051064 -0.0901,-0.066039 -0.11419,-0.1141825 -0.017,-0.034043 0.017,-0.08014 0,-0.1141825 -0.0241,-0.048144 -0.0843,-0.069397 -0.11419,-0.1141825 -0.0472,-0.070813 -0.067,-0.1575506 -0.11419,-0.2283639 -0.0299,-0.044785 -0.0761,-0.076122 -0.11419,-0.1141825 -0.11419,-0.1141825 -0.24167,-0.2164531 -0.34255,-0.3425461 -0.0532,-0.066457 -0.054,-0.1681849 -0.11418,-0.2283639 -0.0602,-0.060179 -0.16819,-0.054002 -0.22837,-0.1141825 -0.0269,-0.026912 0.0269,-0.087268 0,-0.1141825 -0.0602,-0.060179 -0.1773,-0.046097 -0.22836,-0.1141824 -0.0722,-0.096286 -0.042,-0.2462593 -0.11419,-0.3425461 -0.0511,-0.068085 -0.1773,-0.046097 -0.22837,-0.1141825 -0.0722,-0.096286 -0.042,-0.2462592 -0.11418,-0.3425459 -0.0511,-0.068085 -0.15755,-0.066974 -0.22837,-0.1141825 -0.0448,-0.029858 -0.0761,-0.076121 -0.11419,-0.1141825 -0.0761,-0.076122 -0.16865,-0.1387924 -0.22836,-0.2283639 -0.0211,-0.031668 0.0269,-0.087268 0,-0.1141825 -0.0269,-0.026912 -0.0761,0 -0.11419,0 -0.0761,0 -0.16027,0.034043 -0.22836,0 -0.034,-0.017021 0.012,-0.078075 0,-0.1141825 -0.0269,-0.080739 -0.054,-0.1681847 -0.11419,-0.2283639 -0.23625,-0.2362466 0.009,0.3610161 -0.22837,-0.1141825 -0.0787,-0.1574971 0.13829,-0.1021327 -0.11419,-0.2283641 -0.034,-0.017021 -0.0873,0.026912 -0.11419,0 -0.23624,-0.2362466 0.36102,0.00924 -0.11419,-0.228364 -0.15749,-0.078749 -0.10214,0.1382804 -0.22836,-0.1141824 -0.0457,-0.091346 0.0457,-0.2512005 0,-0.3425461 -0.0481,-0.096286 -0.19432,-0.1262356 -0.22836,-0.228364 -0.0241,-0.072215 0,-0.1522427 0,-0.2283641 0,-0.1141825 0,-0.2283639 0,-0.3425459 0,-0.065791 -0.0208,-0.5292936 0,-0.57091 0.0481,-0.096288 0.18022,-0.1320773 0.22836,-0.2283642 0.017,-0.034042 -0.017,-0.08014 0,-0.1141824 0.0241,-0.048144 0.0901,-0.066039 0.11417,-0.1141825 0.017,-0.034043 -0.0211,-0.082515 0,-0.1141826 0.0597,-0.08957 0.15224,-0.152243 0.22837,-0.228364 0.0761,-0.07612 0.15224,-0.152243 0.22836,-0.228364 0.0381,-0.03806 0.0901,-0.06604 0.11419,-0.114182 0.017,-0.03404 -0.0211,-0.08252 0,-0.114183 -0.0977,-0.529736 0.24551,-0.131327 0.34255,-0.228364 0.0602,-0.06018 0.067,-0.15755 0.11419,-0.228364 0.0298,-0.04478 0.0761,-0.07612 0.11418,-0.114182 0.0381,-0.03806 0.066,-0.09011 0.11419,-0.114183 0.034,-0.01702 0.0801,0.01702 0.11419,0 0.0963,-0.04814 0.13208,-0.180221 0.22837,-0.228364 0.0681,-0.03404 0.17454,0.05383 0.22836,0 0.0269,-0.02691 -0.0269,-0.08727 0,-0.114182 0.0269,-0.02691 0.0761,0 0.11419,0 0.22836,0 0.45673,0 0.68509,0 0.53285,0 1.0657,0 1.59855,0 0.22836,0 0.45673,0 0.68509,0 0.0761,0 0.15452,0.01846 0.22837,0 0.0826,-0.02064 0.1458,-0.09354 0.22836,-0.114183 0.0738,-0.01846 0.15224,0 0.22836,0 0.19031,0 0.38061,0 0.57091,0 0.57091,0 1.14182,0 1.71273,0 0.38061,0 0.76122,0 1.14182,0 0.0761,0 0.15225,0 0.22837,0 0.11417,0 0.23177,-0.02769 0.34254,0 0.0522,0.01305 0.066,0.09011 0.11419,0.114183 0.0337,0.01685 0.68165,0 0.79928,0 0.60897,0 1.21794,0 1.82691,0 0.22836,0 0.45673,0 0.68509,0 0.0761,0 0.15224,0 0.22837,0 0.0381,0 0.0781,-0.01203 0.11418,0 0.0807,0.02691 0.15755,0.06697 0.22837,0.114182 0.0448,0.02986 0.0631,0.09716 0.11419,0.114183 0.063,0.02098 0.58819,0 0.68509,0 0.0381,0 0.0761,0 0.11419,0 0.0381,0 0.0801,-0.01702 0.11419,0 0.0481,0.02407 0.066,0.09011 0.11417,0.114182 0.034,0.01702 0.0761,0 0.11419,0 0.0381,0 0.0761,0 0.11419,0 0.22836,0 0.456726,0 0.685089,0 0.723154,0 1.446306,0 2.169459,0 0.228363,0 0.456728,0 0.685092,0 0.114189,0 0.231773,-0.02769 0.342545,0 0.08256,0.02064 0.145799,0.09354 0.228365,0.114183 0.07385,0.01846 0.152241,0 0.228364,0 0.228364,0 0.456728,0 0.685091,0 0.110441,0 0.651228,-0.01693 0.685093,0 0.04814,0.02407 0.06603,0.09011 0.114189,0.114182 0.03404,0.01702 0.08014,-0.01702 0.11419,0 0.290084,0.145042 -0.116934,0.136468 0.342545,0.228364 0.219582,0.04392 0.465512,-0.04392 0.685093,0 0.236043,0.04721 0.44905,0.181156 0.685092,0.228364 0.149279,0.02986 0.30903,-0.03692 0.456728,0 0.08256,0.02064 0.145799,0.09354 0.228363,0.114183 0.07385,0.01846 0.156157,-0.02407 0.228365,0 0.356398,0.118799 -0.03807,0.07612 0.114173,0.228364 0.03044,0.03044 0.524477,-0.03096 0.570911,0 0.07082,0.04721 0.04337,0.181155 0.114189,0.228363 0.06334,0.04223 0.155169,-0.02091 0.228363,0 0.733426,0.2095508 0.346656,0.2008461 0.913456,0.3425466 0.03693,0.00924 0.07612,0 0.11419,0 0.114189,0.03806 0.225781,0.084991 0.342545,0.1141824 0.03693,0.00924 0.07612,0 0.11419,0 0.09687,0 0.609335,-0.018939 0.685091,0 0.165126,0.041283 0.291597,0.1870815 0.456728,0.2283642 0.07385,0.018462 0.156157,-0.024071 0.228364,0 0.05107,0.017021 0.06603,0.09011 0.114189,0.1141824 0.09135,0.045672 0.251201,-0.045672 0.342546,0 0.03404,0.017021 -0.03404,0.097161 0,0.1141825 0.07271,0.03635 0.572881,-0.037403 0.685091,0 0.07612,0.03806 0.152241,0.076122 0.228365,0.1141825 0,0.03806 -0.02691,0.087268 0,0.1141825 0.06017,0.060178 0.152241,0.076121 0.228363,0.1141824 0.07612,0.03806 0.147623,0.087268 0.228365,0.1141825 0.07222,0.024071 0.160273,-0.034043 0.228363,0 0.09628,0.048144 0.138788,0.1686496 0.228365,0.228364 0.498695,0.3324633 -0.03763,-0.050607 0.456729,0.1141824 0.157696,0.052567 0.116448,0.2586122 0.228363,0.3425461 0.09628,0.072215 0.234894,0.060356 0.342546,0.1141825 0.04814,0.024071 0.06939,0.084325 0.114189,0.1141825 0.07082,0.047208 0.181155,0.04337 0.228363,0.1141824 0.04222,0.063336 -0.04222,0.1650272 0,0.228364 0.01255,0.018949 0.410064,0.1933657 0.456728,0.2283641 0.08613,0.064591 0.152241,0.1522427 0.228365,0.228364 0.03807,0.03806 0.09011,0.066039 0.114173,0.1141824 0.01702,0.034043 -0.01702,0.08014 0,0.1141825 0.2376,0.4751983 -0.0079,-0.1220639 0.228365,0.1141825 0.02691,0.026912 -0.02691,0.087268 0,0.1141825 0.02691,0.026912 0.08727,-0.026912 0.114189,0 0.01104,0.011077 0,0.5273985 0,0.57091 0,0.2283639 0,0.4567281 0,0.685092 0,0.076121 0.01846,0.1545151 0,0.2283639 -0.02065,0.082565 -0.08258,0.1493446 -0.114189,0.2283642 -0.0447,0.1117494 -0.06036,0.2348941 -0.114189,0.3425459 -0.02408,0.048144 -0.08189,0.071122 -0.11419,0.1141825 -0.08233,0.1097832 -0.160273,0.2233972 -0.228363,0.3425459 -0.08445,0.1477866 -0.108014,0.3363696 -0.228365,0.456728 -0.08511,0.085106 -0.257439,0.029076 -0.342546,0.1141825 -0.08511,0.085106 -0.07612,0.2283641 -0.114189,0.3425461 -0.114189,0.076122 -0.24551,0.1313276 -0.342547,0.2283639 -0.120364,0.1203588 -0.126237,0.3205582 -0.228364,0.4567281 -0.493869,0.4938704 -0.01789,-0.030247 -0.342545,0.456728 -0.0969,0.145361 -0.351207,0.3160335 -0.456728,0.4567281 -0.05107,0.068085 -0.04337,0.1811555 -0.11419,0.228364 -0.06334,0.042225 -0.152241,0 -0.228363,0 -0.114189,0 -0.234223,-0.036107 -0.342546,0 -0.130186,0.043396 -0.232762,0.1460263 -0.342547,0.228364 -0.04305,0.032296 -0.06196,0.1011274 -0.114189,0.114182 -0.110776,0.027693 -0.234224,-0.036107 -0.342546,0 -0.130186,0.043396 -0.219804,0.16699301 -0.342547,0.228364 -0.03344,0.016743 -0.671243,0.21801376 -0.685043,0.22836341 -0.06809,0.0510637 -0.07612,0.15224274 -0.11419,0.22836401 -0.114172,0.11418198 -0.204079,0.25946643 -0.342545,0.34254604 -0.06528,0.03916417 -0.153714,-0.01492792 -0.228364,0 -0.118021,0.02360423 -0.223825,0.09439515 -0.342545,0.11418197 -0.112633,0.01877144 -0.230583,-0.02239289 -0.342548,0 -0.08345,0.01668996 -0.14441,0.10019062 -0.228363,0.11418198 -0.150166,0.0250286 -0.304486,0 -0.456728,0 -0.114189,0 -0.228364,0 -0.342546,0 -0.418668,0 -0.837334,0 -1.256002,0 -0.532849,0 -1.065699,0 -1.598548,0 -0.114189,0 -0.228364,0 -0.342546,0 -0.114189,0 -0.229918,-0.0187714 -0.342546,0 -0.118724,0.0197868 -0.224526,0.0905777 -0.342547,0.11418197 -0.127041,0.0254064 -0.42216,0 -0.570909,0 -0.380608,0 -0.761214,0 -1.14182,0 -0.190305,0 -0.380608,0 -0.570911,0 -0.07612,0 -0.160273,0.0340426 -0.228363,0 -0.03404,-0.0170213 0.02691,-0.087269 0,-0.11418197 -0.0571,-0.0570911 -0.285456,0.0570911 -0.342547,0 -0.02691,-0.0269129 0.02691,-0.087269 0,-0.11418198 -0.05383,-0.05382587 -0.174537,0.05382587 -0.228364,0 -0.02691,-0.02691293 0.02691,-0.08726904 0,-0.11418197 -0.02691,-0.02691293 -0.08014,0.01702128 -0.114189,0 -0.04814,-0.02407176 -0.07612,-0.07612137 -0.114189,-0.11418197 -0.114189,-0.0380606 -0.228365,-0.0761214 -0.342547,-0.11418198 z" inkscape:connector-curvature="0" id="path4925"/>
  </clipPath>
  <clipPath id="clipPath4929" clipPathUnits="userSpaceOnUse">
   <path style="fill:none;stroke:#000000;stroke-width:1.67334652px;stroke-linecap:butt;stroke-linejoin:miter;stroke-opacity:1" d="m -89.612032,-2.9943897 c -0.114189,-0.1522428 -0.228365,-0.3044855 -0.342546,-0.4567281 0,-0.03806 0.01702,-0.08014 0,-0.1141825 -0.02408,-0.048144 -0.06603,-0.09011 -0.114189,-0.1141824 -0.03404,-0.017021 -0.08727,0.026912 -0.114189,0 -0.02691,-0.026912 0.01205,-0.078075 0,-0.1141825 -0.02691,-0.080739 -0.06312,-0.1602782 -0.114189,-0.228364 -0.615981,-0.8213086 0.126789,0.2409673 -0.456727,-0.3425461 -0.02691,-0.026912 0.01702,-0.08014 0,-0.1141824 -0.06138,-0.1227417 -0.131324,-0.2455101 -0.228365,-0.3425461 -0.120364,-0.1203588 -0.336369,-0.1080062 -0.456728,-0.228364 -0.445622,-0.445622 0.02642,-0.061321 -0.114189,-0.3425461 -0.06851,-0.1370186 -0.274037,-0.2055276 -0.342548,-0.3425459 -0.01702,-0.034042 0.02691,-0.087268 0,-0.1141825 -0.02691,-0.026912 -0.08727,0.026912 -0.114172,0 -0.02691,-0.026912 0.02691,-0.087268 0,-0.1141824 -0.02691,-0.026912 -0.08727,0.026912 -0.114189,0 -0.03986,-0.039856 0.04739,-0.3188478 0,-0.342546 -0.06809,-0.034042 -0.160273,0.034043 -0.228363,0 -0.03014,-0.01506 0.02274,-0.160161 0,-0.2283641 -0.02691,-0.080739 -0.07612,-0.1522427 -0.11419,-0.2283639 -0.07612,-0.1522428 -0.133951,-0.3151027 -0.228365,-0.4567281 -0.02985,-0.044785 -0.09011,-0.066039 -0.114189,-0.1141824 -0.01702,-0.034043 0.01702,-0.08014 0,-0.1141825 -0.2376,-0.4751981 0.0079,0.1220639 -0.228365,-0.1141825 -0.02691,-0.026912 0,-0.076121 0,-0.1141825 -0.03807,-0.076121 -0.054,-0.1681849 -0.114189,-0.2283639 -0.02691,-0.026912 -0.08727,0.026912 -0.114189,0 -0.05383,-0.053827 0.03404,-0.1602798 0,-0.2283641 -0.02408,-0.048144 -0.09011,-0.066039 -0.114189,-0.1141825 -0.03738,-0.074768 0.03377,-0.4695812 0,-0.57091 -0.02691,-0.080739 -0.08727,-0.1476244 -0.114189,-0.228364 -0.02408,-0.072215 0.05383,-0.1745382 0,-0.2283641 -0.236247,-0.2362466 0.0092,0.3610161 -0.228364,-0.1141825 -0.03404,-0.068085 0.05383,-0.1745381 0,-0.2283639 -0.02691,-0.026912 -0.08727,0.026912 -0.114189,0 -0.02691,-0.026912 0.02691,-0.08727 0,-0.1141825 -0.05383,-0.053826 -0.174538,0.053826 -0.228363,0 -0.02691,-0.026912 0.02691,-0.087268 0,-0.1141825 -0.05383,-0.053826 -0.160273,0.034043 -0.228365,0 -0.04814,-0.024071 -0.07612,-0.076122 -0.114189,-0.1141825 -0.07612,-0.076122 -0.152241,-0.1522428 -0.228365,-0.2283638 -0.178066,-0.178066 -0.321015,-0.331781 -0.570911,-0.456728 -0.06809,-0.03404 -0.152241,0 -0.228363,0 -0.03807,0 -0.08727,0.02691 -0.114189,0 -0.06017,-0.06018 -0.054,-0.168185 -0.114173,-0.228364 -0.02691,-0.02691 -0.08014,0.01702 -0.114189,0 -0.04814,-0.02407 -0.06312,-0.09716 -0.114189,-0.114183 -0.07222,-0.02407 -0.160273,0.03404 -0.228363,0 -0.03404,-0.01702 0,-0.07612 0,-0.114182 -0.07612,-0.03806 -0.147623,-0.08727 -0.228365,-0.114183 -0.03611,-0.01203 -0.07612,0 -0.114189,0 -0.11419,-0.03806 -0.230797,-0.06948 -0.342548,-0.114182 -0.158031,-0.06322 -0.291597,-0.187081 -0.456726,-0.228364 -0.07384,-0.01846 -0.160274,0.03404 -0.228365,0 -0.03404,-0.01702 0.03611,-0.102146 0,-0.114183 -0.108316,-0.03611 -0.231774,0.02769 -0.342546,0 -0.104434,-0.02611 -0.132077,-0.18022 -0.228365,-0.228364 -0.157495,-0.07875 -0.102124,0.138281 -0.228363,-0.114182 -0.01702,-0.03404 0.02691,-0.08727 0,-0.114183 -0.03763,-0.03764 -0.3741,0.02754 -0.456729,0 -0.05107,-0.01702 -0.06603,-0.09011 -0.114189,-0.114182 -0.03404,-0.01702 -0.07612,0 -0.114189,0 -0.07612,0 -0.156157,0.02407 -0.228365,0 -0.05107,-0.01702 -0.06196,-0.101127 -0.114172,-0.114183 -0.110776,-0.02769 -0.228365,0 -0.342548,0 -0.114189,0 -0.228363,0 -0.342548,0 -0.0381,0 -0.0773,0.0092 -0.11419,0 -0.11676,-0.02919 -0.22682,-0.08112 -0.34254,-0.114182 -0.15089,-0.04311 -0.3098,-0.05908 -0.45673,-0.114183 -0.56438,-0.28219 -0.29525,-0.174538 -0.79928,-0.342545 -0.11419,-0.03806 -0.23079,-0.06948 -0.34254,-0.114183 -0.079,-0.03161 -0.14441,-0.10019 -0.22837,-0.114182 -0.15016,-0.02503 -0.30448,0 -0.45672,0 -0.15224,0 -0.30449,0 -0.45673,0 -0.11419,0 -0.23178,0.02769 -0.34255,0 -0.0522,-0.01305 -0.0631,-0.09716 -0.11419,-0.114183 -0.0523,-0.01742 -0.50717,0 -0.57091,0 -0.41866,0 -0.83733,0 -1.256,0 -0.72315,0 -1.4463,0 -2.16946,0 -0.1903,0 -0.3806,0 -0.57091,0 -0.11419,0 -0.22992,-0.01877 -0.34254,0 -0.11873,0.01979 -0.2234,0.09716 -0.34255,0.114183 -0.15072,0.02153 -0.30448,0 -0.45673,0 -0.0761,0 -0.15614,-0.02407 -0.22836,0 -0.0511,0.01702 -0.0631,0.09716 -0.11419,0.114182 -0.0722,0.02407 -0.15224,0 -0.22836,0 -0.0761,0 -0.15224,0 -0.22837,0 -0.0967,0 -0.39534,-0.02046 -0.45673,0 -0.0511,0.01702 -0.0631,0.09716 -0.11419,0.114183 -0.43512,0.145042 -0.0195,-0.253404 -0.5709,0.114182 -0.0317,0.02111 0,0.07612 0,0.114182 -0.0381,0.03806 -0.066,0.09011 -0.11419,0.114183 -0.0681,0.03404 -0.15616,-0.02407 -0.22837,0 -0.0761,0.03806 -0.15224,0.07612 -0.22836,0.114182 0,0.03806 0.0269,0.08727 0,0.114183 -0.0602,0.06018 -0.15755,0.06697 -0.22836,0.114182 -0.0448,0.02986 -0.0631,0.09716 -0.11419,0.114183 -0.0722,0.02407 -0.15614,-0.02407 -0.22837,0 -0.22721,0.07574 -0.0533,0.10657 -0.11419,0.228364 -0.0241,0.04814 -0.0843,0.0694 -0.11419,0.114182 -0.0472,0.07081 -0.067,0.157551 -0.11418,0.228364 -0.0299,0.04479 -0.0901,0.06604 -0.11419,0.114183 -0.034,0.06808 0.034,0.160278 0,0.228364 -0.0241,0.04814 -0.0761,0.07612 -0.11419,0.114182 -0.0381,0.03806 -0.0694,0.08432 -0.11419,0.114183 -0.0708,0.04721 -0.1773,0.0461 -0.22837,0.114182 -0.13825,0.184339 -0.11418,0.36792 -0.11418,0.57091 0,0.07612 0,0.152243 0,0.228364 0,0.03806 0.0361,0.1021465 0,0.1141828 -0.10832,0.036107 -0.2512,-0.068509 -0.34255,0 -0.0963,0.072215 -0.0695,0.230796 -0.11419,0.3425461 -0.0316,0.079019 -0.067,0.1575506 -0.11417,0.228364 -0.12433,0.1864829 -0.16923,0.046872 -0.22837,0.3425461 0,0.1141824 0,0.2283639 0,0.3425459 -0.0381,0.03806 -0.0971,0.063119 -0.11419,0.1141825 -0.0195,0.058448 0,0.6034621 0,0.6850921 0,0.03806 0.017,0.08014 0,0.1141825 -0.0241,0.048144 -0.0901,0.066039 -0.11419,0.1141825 -0.017,0.034043 0,0.076122 0,0.1141825 0,0.2664247 0,0.5328494 0,0.7992741 0,0.076122 0,0.1522428 0,0.228364 0,0.076121 -0.034,0.1602781 0,0.2283641 0.017,0.034042 0.0801,-0.017021 0.11419,0 0.0482,0.024071 0.0901,0.066039 0.11419,0.1141825 0.034,0.068085 -0.034,0.1602798 0,0.2283639 0.0614,0.1227416 0.15777,0.2248725 0.22837,0.3425461 0.13515,0.225254 0.13211,0.3604815 0.34254,0.57091 0.0602,0.060179 0.16819,0.054002 0.22837,0.1141825 0.17232,0.1723271 0.2695,0.4148926 0.45673,0.57091 0.0585,0.048731 0.15451,-0.018462 0.22836,0 0.0826,0.020641 0.16027,0.063119 0.22836,0.1141825 0.17225,0.1291824 0.28861,0.322229 0.45673,0.4567281 0.10716,0.085727 0.22836,0.1522427 0.34255,0.2283641 0.11419,0.07612 0.21641,0.1743065 0.34254,0.2283639 0.81108,0.3476041 0.16374,0.00991 0.68509,0.1141825 0.41041,0.082081 0.72899,0.3879227 1.14183,0.4567281 0.11263,0.018772 0.22836,0 0.34254,0 0.1903,0 0.38061,0 0.57091,0 0.0381,0 0.0766,-0.00626 0.11419,0 0.19143,0.031906 0.38542,0.057108 0.57091,0.1141824 0.73223,0.2253011 0.81118,0.3894099 1.48437,0.4567281 0.45446,0.045446 0.91461,-0.03254 1.37018,0 0.26845,0.019175 0.53083,0.095008 0.79927,0.1141825 0.26575,0.018982 0.53377,-0.022125 0.79928,0 0.1934,0.016114 0.3778,0.094872 0.57091,0.1141825 0.18936,0.018935 0.38061,0 0.57091,0 0.64703,0 1.29406,0 1.94109,0 0.38061,0 0.761216,0 1.141824,0 0.148677,0 0.570661,0.022886 0.685091,0 0.08345,-0.016683 0.145799,-0.09354 0.228363,-0.1141825 0.07384,-0.018462 0.152242,0 0.228365,0 0.11685,0 0.819109,0.023588 0.913457,0 0.165126,-0.041283 0.29525,-0.1745381 0.456726,-0.228364 0.0618,-0.020599 0.41783,0 0.456729,0 0.304485,0 0.608971,0 0.913456,0 0.165126,0 0.678699,0.024115 0.799274,0 0.911335,-0.1822671 -0.834889,-0.1141824 0.685092,-0.1141824 0.228365,0 0.456728,0 0.685093,0 0.07612,0 0.152241,0 0.228363,0 0.03807,0 0.08014,0.017021 0.114189,0 0.04814,-0.024071 0.06603,-0.09011 0.114189,-0.1141825 0.02559,-0.012801 0.429595,0 0.456729,0 0.418666,0 0.837334,0 1.256,0 0.139741,0 0.455072,0.00497 0.456728,0 0.03611,-0.1083224 0.03611,-0.2342234 0,-0.3425459 -0.01205,-0.036107 -0.08727,0.026912 -0.114172,0 -0.02691,-0.026912 -0.02691,-0.087268 0,-0.1141825 0.0045,-0.0046 0.414796,0 0.456727,0 0.03807,0 0.08014,0.017021 0.114189,0 0.04814,-0.024071 0.06036,-0.1141825 0.114189,-0.1141825 0.156926,0 0.304485,0.076122 0.456728,0.1141825 z" inkscape:connector-curvature="0" id="path4931"/>
  </clipPath>
  <clipPath id="clipPath4937" clipPathUnits="userSpaceOnUse">
   <path style="fill:none;stroke:#000000;stroke-width:0.33466932;stroke-linecap:butt;stroke-linejoin:miter;stroke-miterlimit:4;stroke-dasharray:none;stroke-opacity:1" d="m -106.60726,-13.805544 3.31029,2.502905 9.527187,2.5029055 1.937734,3.7139881 -15.178911,2.7451217 -9.28497,-6.2976321 z" inkscape:connector-curvature="0" id="path4939"/>
  </clipPath>
  <clipPath id="clipPath5191" clipPathUnits="userSpaceOnUse">
   <path style="fill:none;stroke:#000000;stroke-width:1px;stroke-linecap:butt;stroke-linejoin:miter;stroke-opacity:1" d="M -69.327492,0.81882864 -46.127346,24.018974 -43.05674,8.3247579 V -2.7294289 Z" inkscape:connector-curvature="0" id="path5193"/>
  </clipPath>
  <clipPath id="clipPath5742" clipPathUnits="userSpaceOnUse">
   <path style="fill:none;stroke:#000000;stroke-width:1px;stroke-linecap:butt;stroke-linejoin:miter;stroke-opacity:1" d="m -74.513412,-4.640029 24.974273,24.974273 V -4.640029 Z" inkscape:connector-curvature="0" id="path5744"/>
  </clipPath>
  <clipPath id="clipPath5785" clipPathUnits="userSpaceOnUse">
   <rect ry="0.83432478" height="11.156541" style="fill:#333333;fill-opacity:1;stroke:none;stroke-width:0.22472635;stroke-miterlimit:4;stroke-dasharray:none;stroke-opacity:1" width="20.811895" id="rect5787" transform="rotate(45)" x="-29.375477" y="42.647324"/>
  </clipPath>
  <clipPath id="clipPath5799" clipPathUnits="userSpaceOnUse">
   <rect ry="5.8891525" height="29.357262" style="fill:#333333;fill-opacity:1;stroke:none;stroke-width:0.25457799;stroke-miterlimit:4;stroke-dasharray:none;stroke-opacity:1" width="29.725763" id="rect5801" transform="rotate(-45)" x="-89.513351" y="7.8397613"/>
  </clipPath>
  <clipPath id="clipPath5799-1" clipPathUnits="userSpaceOnUse">
   <rect ry="5.8891525" height="29.357262" style="fill:#333333;fill-opacity:1;stroke:none;stroke-width:0.25457799;stroke-miterlimit:4;stroke-dasharray:none;stroke-opacity:1" width="29.725763" id="rect5801-2" transform="rotate(-45)" x="-89.513351" y="7.8397613"/>
  </clipPath>
  <pattern height="6" width="6" patternUnits="userSpaceOnUse" id="EMFhbasepattern" x="0" y="0"/>
 </defs>
 <sodipodi:namedview inkscape:cx="104.73431" inkscape:window-y="1071" inkscape:window-height="1001" inkscape:pageopacity="0.0" inkscape:cy="113.85245" inkscape:snap-global="false" inkscape:document-units="mm" inkscape:window-width="1920" showgrid="false" fit-margin-bottom="0" borderopacity="1.0" fit-margin-right="0" inkscape:window-x="-9" inkscape:window-maximized="1" inkscape:current-layer="layer1" id="base" inkscape:zoom="2.8" inkscape:document-rotation="0" inkscape:pageshadow="2" fit-margin-left="0" pagecolor="#ffffff" bordercolor="#666666" fit-margin-top="0"/>
 <metadata id="metadata665">
  <rdf:RDF>
   <cc:Work rdf:about="">
    <dc:format>image/svg+xml</dc:format>
    <dc:type rdf:resource="http://purl.org/dc/dcmitype/StillImage"/>
    <dc:title/>
   </cc:Work>
  </rdf:RDF>
 </metadata>
 <g inkscape:label="Ebene 1" id="layer1" transform="translate(-61.588818,-43.296896)" inkscape:groupmode="layer">
  <path sodipodi:end="4.3337924" sodipodi:cy="69.871254" style="opacity:1;fill:none;fill-opacity:1;fill-rule:nonzero;stroke:#d4aa00;stroke-width:0.52794904;stroke-miterlimit:4;stroke-dasharray:none;stroke-dashoffset:0;stroke-opacity:1" sodipodi:ry="25.368042" d="M 101.9448,46.184069 A 25.368042,25.368042 0 0 1 117.82297,74.410478 25.368042,25.368042 0 0 1 93.023224,95.238798 25.368042,25.368042 0 0 1 67.964532,74.722752 25.368042,25.368042 0 0 1 83.487887,46.299668" sodipodi:open="true" sodipodi:type="arc" id="path850" sodipodi:rx="25.368042" sodipodi:cx="92.864342" sodipodi:start="5.0784593"/>
  <path style="fill:#d4aa00;fill-opacity:1;stroke:#d4aa00;stroke-width:0.03131629;stroke-opacity:1" d="m 111.01383,46.388786 c -0.0324,0.33194 -0.10047,1.050076 -0.15483,1.592592 -0.11897,1.201887 -0.0745,2.160651 -0.0328,2.621468 0.0405,0.437739 0.14839,0.894216 0.36743,1.440205 0.24855,0.624941 1.0414,1.855258 1.21712,1.889813 0.29034,0.05709 0.87745,-2.12895 0.80714,-3.221755 -0.0539,-0.874685 -0.006,-1.111143 -0.53164,-2.215932 -0.1999,-0.414209 -1.34828,-2.230108 -1.53176,-2.554223 l -0.0901,-0.159449 z" inkscape:connector-curvature="0" sodipodi:nodetypes="ccccsccccc" id="path4551"/>
  <path style="fill:#d4aa00;fill-opacity:1;stroke:#d4aa00;stroke-width:0.02929564;stroke-opacity:1" d="m 105.90052,43.783947 c 0.0389,0.292081 0.12617,0.922991 0.18895,1.400704 0.14065,1.057788 0.38495,1.853803 0.52167,2.229431 0.13077,0.356479 0.32935,0.705729 0.65231,1.092561 0.3676,0.443514 1.37924,1.21252 1.55326,1.181464 0.28747,-0.0513 0.38339,-2.102488 0.0863,-3.003028 -0.23557,-0.721644 -0.23921,-0.938433 -0.97171,-1.692607 -0.277,-0.281897 -1.74942,-1.424409 -1.99186,-1.635706 l -0.11912,-0.10401 z" inkscape:connector-curvature="0" sodipodi:nodetypes="ccccsccccc" id="path858" inkscape:transform-center-x="-0.33650762" inkscape:transform-center-y="0.5529285"/>
  <path style="fill:#d4aa00;fill-opacity:1;stroke:#d4aa00;stroke-width:0.03508242;stroke-opacity:1" d="m 94.627232,43.938112 c 0.289622,0.189665 0.918806,0.596968 1.391607,0.90778 1.048686,0.687034 1.989012,1.102809 2.456164,1.283321 0.444447,0.17057 0.956794,0.28616 1.636757,0.338863 0.77666,0.06238 2.53194,-0.103119 2.69567,-0.25355 0.27046,-0.248522 -1.36058,-1.850336 -2.44699,-2.305567 -0.867855,-0.366626 -1.055289,-0.525838 -2.493257,-0.553379 -0.540977,-0.008 -3.11542,0.215575 -3.558923,0.235069 l -0.21807,0.0094 z" inkscape:connector-curvature="0" sodipodi:nodetypes="ccccsccccc" inkscape:transform-center-x="-0.70375237" id="path860" inkscape:transform-center-y="0.27548606"/>
  <path style="fill:#d4aa00;fill-opacity:1;stroke:#d4aa00;stroke-width:0.03007226;stroke-opacity:1" d="m 115.92025,51.570413 c -0.0891,0.311212 -0.27981,0.985194 -0.42657,1.493411 -0.32381,1.126366 -0.45769,2.069086 -0.50392,2.528624 -0.0431,0.436837 -0.0294,0.913158 0.0673,1.511444 0.10876,0.684115 0.59385,2.127184 0.74449,2.216381 0.24887,0.147368 1.16881,-1.78374 1.30389,-2.864479 0.11027,-0.864264 0.19624,-1.077952 -0.0735,-2.314857 -0.10347,-0.464578 -0.79996,-2.587567 -0.90509,-2.959678 l -0.0516,-0.183014 z" inkscape:connector-curvature="0" sodipodi:nodetypes="ccccsccccc" id="path862"/>
  <path style="fill:#d4aa00;fill-opacity:1;stroke:#d4aa00;stroke-width:0.03230433;stroke-opacity:1" d="m 119.67407,58.316772 c -0.15498,0.287079 -0.48836,0.909571 -0.74282,1.377905 -0.56246,1.038495 -0.88845,1.957276 -1.02727,2.41203 -0.13101,0.43261 -0.20989,0.926245 -0.22499,1.575057 -0.0192,0.74123 0.21029,2.397266 0.35182,2.543268 0.23388,0.241223 1.58328,-1.407278 1.93755,-2.467233 0.2857,-0.846828 0.41832,-1.034967 0.37586,-2.401567 -0.0183,-0.514079 -0.33769,-2.944167 -0.37579,-3.363975 l -0.0186,-0.206416 z" inkscape:connector-curvature="0" sodipodi:nodetypes="ccccsccccc" id="path864"/>
  <path style="fill:#d4aa00;fill-opacity:1;stroke:#d4aa00;stroke-width:0.03642232;stroke-opacity:1" d="m 122.62509,65.874488 c -0.29345,0.203993 -0.92609,0.647075 -1.4071,0.97941 -1.06411,0.737426 -1.76752,1.437819 -2.08444,1.790777 -0.30003,0.336066 -0.54445,0.739271 -0.74286,1.293987 -0.22937,0.633182 -0.36369,2.123999 -0.20774,2.289291 0.25835,0.273174 2.58072,-0.769807 3.362,-1.583907 0.62784,-0.649669 0.86323,-0.774679 1.17816,-1.963836 0.11529,-0.447968 0.337,-2.630704 0.399,-3.003006 l 0.0307,-0.183013 z" inkscape:connector-curvature="0" sodipodi:nodetypes="ccccsccccc" id="path866"/>
  <path style="fill:#d4aa00;fill-opacity:1;stroke:#d4aa00;stroke-width:0.03788124;stroke-opacity:1" d="m 123.12334,72.918195 c -0.36584,0.198005 -1.15576,0.628338 -1.75469,0.950707 -1.32581,0.71551 -2.27931,1.414969 -2.72245,1.769887 -0.42056,0.337546 -0.80942,0.751095 -1.20772,1.328278 -0.45751,0.658636 -1.13104,2.235647 -1.03573,2.421539 0.15812,0.307284 2.8465,-0.65183 3.91866,-1.467188 0.85993,-0.650421 1.13943,-0.768102 1.8834,-2.012591 0.27693,-0.469028 1.28799,-2.776328 1.48448,-3.168309 l 0.0969,-0.192639 z" inkscape:connector-curvature="0" sodipodi:nodetypes="ccccsccccc" id="path868"/>
  <path style="fill:#d4aa00;fill-opacity:1;stroke:#d4aa00;stroke-width:0.04135347;stroke-opacity:1" d="m 122.59674,81.672493 c -0.48378,0.05678 -1.52927,0.182073 -2.3207,0.273378 -1.75256,0.20391 -3.07299,0.524208 -3.69633,0.701098 -0.59162,0.169109 -1.17197,0.419675 -1.81602,0.821179 -0.7384,0.4571 -2.02257,1.700546 -1.97361,1.908815 0.0816,0.344448 3.47572,0.392895 4.96981,0.0057 1.19722,-0.307247 1.55591,-0.319152 2.81294,-1.225352 0.4698,-0.342762 2.37802,-2.152988 2.73058,-2.45179 l 0.17359,-0.146769 z" inkscape:connector-curvature="0" sodipodi:nodetypes="ccccsccccc" id="path870"/>
  <path style="fill:#d4aa00;fill-opacity:1;stroke:#d4aa00;stroke-width:0.04071886;stroke-opacity:1" d="m 118.05279,88.640297 c -0.48541,-0.01726 -1.53474,-0.05198 -2.32864,-0.08169 -1.75821,-0.06413 -3.1045,0.04783 -3.74338,0.125389 -0.60653,0.07478 -1.21248,0.229578 -1.90094,0.520068 -0.7889,0.32995 -2.21901,1.335085 -2.19762,1.542647 0.036,0.343377 3.3836,0.893941 4.91018,0.743357 1.22285,-0.117708 1.57883,-0.0759 2.93843,-0.760731 0.50866,-0.259874 2.62888,-1.717416 3.01599,-1.952424 l 0.19056,-0.11537 z" inkscape:connector-curvature="0" sodipodi:nodetypes="ccccsccccc" id="path872"/>
  <path style="fill:#d4aa00;fill-opacity:1;stroke:#d4aa00;stroke-width:0.03743233;stroke-opacity:1" d="m 111.43891,94.371734 c -0.46777,-0.108906 -1.4796,-0.342264 -2.24422,-0.521605 -1.69381,-0.395826 -3.03332,-0.567575 -3.67544,-0.629159 -0.6099,-0.05755 -1.24039,-0.04965 -1.98698,0.0527 -0.85474,0.114934 -2.51169,0.655196 -2.54569,0.828642 -0.0551,0.28714 3.05618,1.390126 4.58131,1.565598 1.22093,0.142938 1.55627,0.246597 3.06003,-0.04624 0.56356,-0.112542 3.01147,-0.886903 3.45019,-1.002915 l 0.21588,-0.05685 z" inkscape:connector-curvature="0" sodipodi:nodetypes="ccccsccccc" id="path874"/>
  <path style="fill:#d4aa00;fill-opacity:1;stroke:#d4aa00;stroke-width:0.03657466;stroke-opacity:1" d="m 104.58775,97.940157 c -0.40852,-0.200889 -1.29306,-0.633419 -1.96036,-0.962993 -1.47875,-0.728763 -2.701738,-1.176979 -3.295865,-1.373027 -0.56467,-0.185354 -1.17394,-0.315864 -1.930655,-0.386071 -0.86548,-0.08241 -2.663569,0.04568 -2.762004,0.19553 -0.161853,0.248326 2.411971,1.927825 3.812038,2.419948 1.119874,0.396205 1.40305,0.563413 2.960056,0.626224 0.58457,0.02103 3.23199,-0.146656 3.69784,-0.156056 l 0.22913,-0.0044 z" inkscape:connector-curvature="0" sodipodi:nodetypes="ccccsccccc" id="path876"/>
  <path style="fill:#d4aa00;fill-opacity:1;stroke:#d4aa00;stroke-width:0.0313332;stroke-opacity:1" d="m 100.62334,90.409834 c -0.32353,0.137147 -1.021946,0.435481 -1.551614,0.65869 -1.172418,0.495539 -2.010819,0.992913 -2.399688,1.246835 -0.36876,0.241884 -0.707628,0.542247 -1.050455,0.967369 -0.393901,0.485032 -0.958011,1.662317 -0.867573,1.807713 0.150365,0.240146 2.540145,-0.389406 3.482111,-0.970699 0.755637,-0.463502 1.003639,-0.542726 1.639683,-1.463717 0.236636,-0.347226 1.084966,-2.068754 1.251326,-2.360285 l 0.082,-0.143282 z" inkscape:connector-curvature="0" sodipodi:nodetypes="ccccsccccc" id="path878"/>
  <path style="fill:#d4aa00;fill-opacity:1;stroke:#d4aa00;stroke-width:0.03425144;stroke-opacity:1" d="m 106.74196,86.313465 c -0.32439,0.291728 -1.02428,0.923848 -1.55558,1.40008 -1.17581,1.055678 -1.99117,1.958144 -2.36522,2.400688 -0.35452,0.420803 -0.6664,0.888043 -0.96034,1.485837 -0.33834,0.683325 -0.73698,2.159899 -0.61361,2.267912 0.20485,0.177936 2.66925,-1.581288 3.58134,-2.618428 0.73212,-0.82911 0.98543,-1.025979 1.50725,-2.271538 0.19332,-0.468114 0.80152,-2.63817 0.929,-3.016204 l 0.0629,-0.185902 z" inkscape:connector-curvature="0" sodipodi:nodetypes="ccccsccccc" id="path878-1"/>
  <path style="fill:#d4aa00;fill-opacity:1;stroke:#d4aa00;stroke-width:0.03593607;stroke-opacity:1" d="m 110.41792,81.150028 c -0.19795,0.378503 -0.62394,1.197983 -0.94877,1.816282 -0.71818,1.370164 -1.14848,2.498222 -1.33454,3.045521 -0.1758,0.520133 -0.29189,1.079052 -0.33876,1.770199 -0.0558,0.790556 0.1452,2.42311 0.30749,2.507773 0.26879,0.139458 1.95431,-2.259231 2.42469,-3.549944 0.37893,-1.032491 0.54577,-1.295777 0.55571,-2.715186 8.4e-4,-0.532808 -0.2728,-2.937194 -0.29969,-3.360939 l -0.013,-0.20844 z" inkscape:connector-curvature="0" sodipodi:nodetypes="ccccsccccc" id="path895"/>
  <path style="fill:#d4aa00;fill-opacity:1;stroke:#d4aa00;stroke-width:0.03363014;stroke-opacity:1" d="m 113.32866,76.4182 c -0.0953,0.377077 -0.29909,1.192775 -0.45611,1.809141 -0.3464,1.365439 -0.4791,2.446136 -0.52197,2.964324 -0.0398,0.492191 -0.0135,1.00142 0.11053,1.605014 0.13979,0.691009 0.72814,2.032564 0.90251,2.061129 0.28861,0.04665 1.30072,-2.459404 1.43173,-3.689992 0.10733,-0.985115 0.20121,-1.255281 -0.13531,-2.471573 -0.12907,-0.455781 -0.97431,-2.437655 -1.10305,-2.792701 l -0.0631,-0.174709 z" inkscape:connector-curvature="0" sodipodi:nodetypes="ccccsccccc" id="path897"/>
  <path style="fill:#d4aa00;fill-opacity:1;stroke:#d4aa00;stroke-width:0.03363014;stroke-opacity:1" d="m 114.32633,69.994072 c 0.0149,0.388648 0.0494,1.22871 0.0725,1.864341 0.0527,1.407708 0.23009,2.48197 0.33507,2.991219 0.1006,0.483442 0.26943,0.964591 0.55862,1.508719 0.32897,0.623552 1.27173,1.74477 1.44708,1.723008 0.29005,-0.03662 0.55445,-2.726376 0.33315,-3.943971 -0.17481,-0.975405 -0.16092,-1.26108 -0.82674,-2.333127 -0.25236,-0.400892 -1.62213,-2.064009 -1.84576,-2.368347 l -0.10981,-0.149827 z" inkscape:connector-curvature="0" sodipodi:nodetypes="ccccsccccc" id="path899"/>
  <path style="fill:#d4aa00;fill-opacity:1;stroke:#d4aa00;stroke-width:0.03402551;stroke-opacity:1" d="m 113.36964,64.117832 c 0.15591,0.400451 0.49506,1.265714 0.74888,1.920802 0.5635,1.450608 1.12288,2.539697 1.40772,3.053241 0.2713,0.487411 0.60609,0.963534 1.07732,1.489146 0.53773,0.602656 1.83569,1.640447 1.99305,1.59502 0.26004,-0.07579 -0.47253,-2.895164 -1.1256,-4.126922 -0.52082,-0.987077 -0.61201,-1.284664 -1.63098,-2.307699 -0.38423,-0.382118 -2.28255,-1.925223 -2.60444,-2.211128 l -0.1582,-0.140793 z" inkscape:connector-curvature="0" sodipodi:nodetypes="ccccsccccc" id="path901"/>
  <path style="fill:#d4aa00;fill-opacity:1;stroke:#d4aa00;stroke-width:0.03148081;stroke-opacity:1" d="m 112.00609,59.153454 c 0.17807,0.299052 0.56521,0.944648 0.85533,1.43416 0.64391,1.083592 1.26362,1.863619 1.5769,2.226245 0.2983,0.343936 0.65945,0.662755 1.15978,0.989717 0.57107,0.375519 1.9264,0.930701 2.08122,0.853738 0.25579,-0.127807 -0.6331,-2.323028 -1.35441,-3.200212 -0.57551,-0.703552 -0.68319,-0.931854 -1.75876,-1.543212 -0.40537,-0.227464 -2.38899,-1.060761 -2.7267,-1.22248 l -0.16597,-0.07972 z" inkscape:connector-curvature="0" sodipodi:nodetypes="ccccsccccc" id="path903"/>
  <path style="fill:#d4aa00;fill-opacity:1;stroke:#d4aa00;stroke-width:0.0334885;stroke-opacity:1" d="m 107.66114,54.369237 c 0.29526,0.240256 0.93575,0.758358 1.41746,1.151913 1.06828,0.870825 2.01722,1.465086 2.48739,1.736093 0.44726,0.256797 0.95937,0.47717 1.63426,0.676045 0.77103,0.22915 2.49965,0.461251 2.65482,0.357533 0.25614,-0.171967 -1.42928,-2.022911 -2.52454,-2.686093 -0.87497,-0.532543 -1.06781,-0.72186 -2.49107,-1.064478 -0.53552,-0.126393 -3.07173,-0.485338 -3.5095,-0.564865 l -0.21523,-0.03931 z" inkscape:connector-curvature="0" sodipodi:nodetypes="ccccsccccc" id="path905"/>
  <path style="fill:#d4aa00;fill-opacity:1;stroke:#d4aa00;stroke-width:0.02969283;stroke-opacity:1" d="m 103.2129,51.3728 c 0.35569,0.129005 1.12639,0.406515 1.70718,0.618182 1.28742,0.467931 2.37844,0.74752 2.91212,0.868266 0.5074,0.114098 1.06676,0.188838 1.77706,0.217856 0.81205,0.03463 2.55005,-0.101495 2.66951,-0.208242 0.19701,-0.176788 -1.97407,-1.277093 -3.22666,-1.582557 -1.00145,-0.246113 -1.24326,-0.354958 -2.71868,-0.357875 -0.55441,8.35e-4 -3.10977,0.186559 -3.556,0.205284 l -0.21944,0.009 z" inkscape:connector-curvature="0" sodipodi:nodetypes="ccccsccccc" id="path907"/>
  <path style="fill:#d4aa00;fill-opacity:1;stroke:#d4aa00;stroke-width:0.03395178;stroke-opacity:1" d="m 99.000767,47.870464 c 0.364914,0.178113 1.155683,0.561509 1.751503,0.853627 1.3208,0.645935 2.44399,1.046183 2.99395,1.221816 0.52287,0.166096 1.101,0.28499 1.83734,0.353063 0.84178,0.07966 2.65033,-0.01438 2.77789,-0.143371 0.21038,-0.21367 -2.00664,-1.694494 -3.29669,-2.134476 -1.03132,-0.354148 -1.2787,-0.501839 -2.8101,-0.571072 -0.57551,-0.02358 -3.234144,0.0966 -3.69796,0.100321 l -0.228087,0.0016 z" inkscape:connector-curvature="0" sodipodi:nodetypes="ccccsccccc" id="path909"/>
  <path style="fill:#d4aa00;fill-opacity:1;stroke:#d4aa00;stroke-width:0.03527772;stroke-opacity:1" d="m 74.757146,46.24933 c 0.0412,0.33172 0.12758,1.049381 0.19661,1.591538 0.15107,1.201092 0.0946,2.159222 0.0417,2.619734 -0.0515,0.43745 -0.18843,0.893625 -0.46658,1.439252 -0.31562,0.624528 -1.32241,1.854031 -1.54555,1.888563 -0.36868,0.05705 -1.11421,-2.127541 -1.02493,-3.219623 0.0684,-0.874107 0.007,-1.110408 0.6751,-2.214467 0.25384,-0.413935 1.71209,-2.228633 1.94508,-2.552533 l 0.11443,-0.159344 z" inkscape:connector-curvature="0" sodipodi:nodetypes="ccccsccccc" id="path934"/>
  <path style="fill:#d4aa00;fill-opacity:1;stroke:#d4aa00;stroke-width:0.03111041;stroke-opacity:1" d="m 80.64808,44.548689 c -0.0697,0.287989 -0.2238,0.909817 -0.3368,1.380911 -0.25204,1.043001 -0.59743,1.817006 -0.78454,2.180561 -0.17871,0.344942 -0.43304,0.677351 -0.8306,1.037432 -0.4528,0.413052 -1.65885,1.099823 -1.85181,1.055198 -0.31878,-0.07372 -0.24467,-2.125211 0.16936,-2.999223 0.32897,-0.700581 0.35231,-0.916319 1.24308,-1.610253 0.33656,-0.259128 2.09399,-1.281867 2.38541,-1.473362 l 0.1432,-0.09428 z" inkscape:connector-curvature="0" sodipodi:nodetypes="ccccsccccc" inkscape:transform-center-x="-0.37586351" id="path936" inkscape:transform-center-y="0.53562377"/>
  <path style="fill:#d4aa00;fill-opacity:1;stroke:#d4aa00;stroke-width:0.0340636;stroke-opacity:1" d="m 90.318307,43.746349 c -0.246359,0.212736 -0.78234,0.670327 -1.184318,1.018764 -0.891987,0.770567 -1.724953,1.268172 -2.143077,1.490238 -0.397994,0.210145 -0.87021,0.374159 -1.513568,0.494613 -0.734498,0.139694 -2.445221,0.159517 -2.627125,0.03105 -0.300506,-0.21225 0.998563,-1.925536 1.965088,-2.47618 0.771603,-0.442741 0.925005,-0.615623 2.299459,-0.789345 0.517484,-0.06303 3.023382,-0.110653 3.45193,-0.137213 l 0.210692,-0.01321 z" inkscape:connector-curvature="0" sodipodi:nodetypes="ccccsccccc" id="path938" inkscape:transform-center-x="-0.63891608" inkscape:transform-center-y="0.36862491"/>
  <path style="fill:#d4aa00;fill-opacity:1;stroke:#d4aa00;stroke-width:0.03527772;stroke-opacity:1" d="m 69.363908,51.478981 c 0.12268,0.310946 0.3854,0.984351 0.58753,1.492133 0.446,1.125401 0.6304,2.067314 0.69408,2.526459 0.0593,0.436463 0.0405,0.912376 -0.0927,1.51015 -0.1498,0.683529 -0.81794,2.125363 -1.02541,2.214483 -0.34278,0.147242 -1.60985,-1.782212 -1.7959,-2.862026 -0.15188,-0.863524 -0.2703,-1.077029 0.10117,-2.312875 0.14252,-0.464181 1.10182,-2.585352 1.24662,-2.957144 l 0.071,-0.182858 z" inkscape:connector-curvature="0" sodipodi:nodetypes="ccccsccccc" id="path940"/>
  <path style="fill:#d4aa00;fill-opacity:1;stroke:#d4aa00;stroke-width:0.03655932;stroke-opacity:1" d="m 64.77592,58.307296 c 0.221676,0.269474 0.698918,0.85408 1.062631,1.293523 0.804213,0.974622 1.296494,1.855079 1.511373,2.293251 0.203073,0.416948 0.344607,0.900191 0.417489,1.544731 0.08575,0.736143 -0.07055,2.409672 -0.239275,2.570069 -0.278796,0.265009 -2.13855,-1.233728 -2.67863,-2.251778 -0.434873,-0.813069 -0.619804,-0.986382 -0.678476,-2.351851 -0.01915,-0.513896 0.188108,-2.967819 0.202091,-3.389934 l 0.0067,-0.207534 z" inkscape:connector-curvature="0" sodipodi:nodetypes="ccccsccccc" id="path942"/>
  <path style="fill:#d4aa00;fill-opacity:1;stroke:#d4aa00;stroke-width:0.04012762;stroke-opacity:1" d="m 62.214109,66.354062 c 0.330715,0.211704 1.043839,0.671771 1.585818,1.016523 1.199107,0.765138 2.002529,1.507159 2.366399,1.882966 0.344584,0.357908 0.63185,0.793075 0.87655,1.398632 0.282477,0.691071 0.504604,2.338398 0.34271,2.529555 -0.268226,0.31595 -2.856533,-0.725503 -3.750723,-1.5898 -0.718359,-0.689508 -0.981671,-0.816477 -1.38572,-2.120123 -0.148549,-0.491264 -0.501119,-2.901903 -0.587648,-3.311872 l -0.04283,-0.201517 z" inkscape:connector-curvature="0" sodipodi:nodetypes="ccccsccccc" id="path944"/>
  <path style="fill:#d4aa00;fill-opacity:1;stroke:#d4aa00;stroke-width:0.03788124;stroke-opacity:1" d="m 61.997219,74.14107 c 0.386399,0.15408 1.221036,0.48955 1.853416,0.74002 1.400076,0.556338 2.428505,1.140067 2.909942,1.440996 0.456988,0.286304 0.891338,0.651784 1.354108,1.178686 0.531059,0.600911 1.383557,2.088813 1.310531,2.284535 -0.121282,0.323599 -2.903021,-0.3161 -4.062792,-1.00113 -0.929787,-0.545914 -1.221085,-0.630265 -2.104843,-1.779706 -0.329637,-0.433609 -1.602369,-2.607553 -1.843145,-2.974 l -0.118663,-0.180052 z" inkscape:connector-curvature="0" sodipodi:nodetypes="ccccsccccc" id="path946"/>
  <path style="fill:#d4aa00;fill-opacity:1;stroke:#d4aa00;stroke-width:0.04035879;stroke-opacity:1" d="m 63.026223,82.230788 c 0.484137,0.05246 1.530383,0.168269 2.322384,0.25257 1.753808,0.188318 3.075997,0.488923 3.7003,0.655291 0.592541,0.159065 1.174214,0.395741 1.820334,0.775945 0.74076,0.432834 2.031245,1.612693 1.983301,1.811196 -0.07996,0.328299 -3.474268,0.385802 -4.970483,0.02201 -1.198898,-0.288591 -1.557697,-0.298728 -2.819384,-1.157511 -0.471553,-0.324846 -2.388974,-2.042373 -2.743055,-2.325748 l -0.174341,-0.139194 z" inkscape:connector-curvature="0" sodipodi:nodetypes="ccccsccccc" id="path948"/>
  <path style="fill:#d4aa00;fill-opacity:1;stroke:#d4aa00;stroke-width:0.03733797;stroke-opacity:1" d="m 68.17131,89.081445 c 0.485401,-0.01918 1.534744,-0.05848 2.328607,-0.09109 1.758159,-0.07084 3.106256,0.01028 3.74628,0.06929 0.607618,0.057 1.215585,0.18125 1.907643,0.418741 0.792992,0.269684 2.23519,1.100611 2.216172,1.275252 -0.03211,0.28892 -3.374656,0.783879 -4.903555,0.672043 -1.224677,-0.08713 -1.580319,-0.04856 -2.948301,-0.610992 -0.511837,-0.213494 -2.649615,-1.41797 -3.039566,-1.611738 l -0.19196,-0.09512 z" inkscape:connector-curvature="0" sodipodi:nodetypes="ccccsccccc" id="path950"/>
  <path style="fill:#d4aa00;fill-opacity:1;stroke:#d4aa00;stroke-width:0.03787049;stroke-opacity:1" d="m 74.626724,95.141581 c 0.453556,-0.137841 1.434927,-0.43374 2.176172,-0.660401 1.6422,-0.500624 2.957995,-0.75259 3.591257,-0.852237 0.601602,-0.09369 1.23167,-0.121879 1.989024,-0.06051 0.86679,0.06797 2.585537,0.523162 2.640466,0.697916 0.08979,0.289372 -2.881211,1.591926 -4.381772,1.858355 -1.200959,0.215804 -1.523015,0.340679 -3.058952,0.128762 -0.575953,-0.08227 -3.11229,-0.730503 -3.564103,-0.823482 l -0.222293,-0.04552 z" inkscape:connector-curvature="0" sodipodi:nodetypes="ccccsccccc" id="path952"/>
  <path style="fill:#d4aa00;fill-opacity:1;stroke:#d4aa00;stroke-width:0.03657466;stroke-opacity:1" d="m 81.361728,97.987312 c 0.409474,-0.198935 1.29607,-0.627232 1.964931,-0.953612 1.482225,-0.721687 2.707335,-1.164052 3.302393,-1.357259 0.565549,-0.182653 1.175436,-0.310248 1.932478,-0.376838 0.865864,-0.07828 2.663321,0.05841 2.761038,0.20873 0.160665,0.249096 -2.421158,1.916274 -3.823561,2.401699 -1.121755,0.390848 -1.405727,0.5567 -2.963012,0.612069 -0.584669,0.01823 -3.23125,-0.162102 -3.697051,-0.173729 l -0.229108,-0.0055 z" inkscape:connector-curvature="0" sodipodi:nodetypes="ccccsccccc" id="path954"/>
  <path style="fill:#d4aa00;fill-opacity:1;stroke:#d4aa00;stroke-width:0.0313332;stroke-opacity:1" d="m 85.30595,90.598822 c 0.32353,0.137147 1.021946,0.435481 1.551614,0.65869 1.172418,0.495539 2.010819,0.992913 2.399688,1.246835 0.36876,0.241884 0.707628,0.542247 1.050455,0.967369 0.393901,0.485032 0.958011,1.662317 0.867573,1.807713 C 91.024915,95.519575 88.635135,94.890023 87.693169,94.30873 86.937532,93.845228 86.68953,93.766004 86.053486,92.845013 85.81685,92.497787 84.96852,90.776259 84.80216,90.484728 l -0.082,-0.143282 z" inkscape:connector-curvature="0" sodipodi:nodetypes="ccccsccccc" id="path956"/>
  <path style="fill:#d4aa00;fill-opacity:1;stroke:#d4aa00;stroke-width:0.03425144;stroke-opacity:1" d="m 79.045589,86.266218 c 0.32439,0.291728 1.02428,0.923848 1.55558,1.40008 1.17581,1.055678 1.99117,1.958144 2.36522,2.400688 0.35452,0.420803 0.6664,0.888043 0.96034,1.485837 0.33834,0.683325 0.73698,2.159899 0.61361,2.267912 -0.20485,0.177936 -2.66925,-1.581288 -3.58134,-2.618428 -0.73212,-0.82911 -0.98543,-1.025979 -1.50725,-2.271538 -0.19332,-0.468114 -0.80152,-2.63817 -0.929,-3.016204 l -0.0629,-0.185902 z" inkscape:connector-curvature="0" sodipodi:nodetypes="ccccsccccc" id="path958"/>
  <path style="fill:#d4aa00;fill-opacity:1;stroke:#d4aa00;stroke-width:0.03935587;stroke-opacity:1" d="m 74.98408,81.341123 c 0.23753,0.378314 0.74872,1.197383 1.13851,1.815372 0.8618,1.369477 1.37815,2.49697 1.60142,3.043994 0.21096,0.519873 0.35027,1.078511 0.40651,1.769312 0.067,0.79016 -0.17424,2.421895 -0.36899,2.506516 -0.32254,0.139388 -2.34514,-2.258099 -2.90958,-3.548165 -0.45471,-1.031973 -0.65492,-1.295127 -0.66685,-2.713825 -0.001,-0.532541 0.32736,-2.935721 0.35962,-3.359254 l 0.0156,-0.208335 z" inkscape:connector-curvature="0" sodipodi:nodetypes="ccccsccccc" id="path960"/>
  <path style="fill:#d4aa00;fill-opacity:1;stroke:#d4aa00;stroke-width:0.03363014;stroke-opacity:1" d="m 72.60063,76.607188 c 0.0953,0.377077 0.29909,1.192775 0.45611,1.809141 0.3464,1.365439 0.4791,2.446136 0.52197,2.964324 0.0398,0.492191 0.0135,1.00142 -0.11053,1.605014 -0.13979,0.691009 -0.72814,2.032564 -0.90251,2.061129 -0.28861,0.04665 -1.30072,-2.459404 -1.43173,-3.689992 -0.10733,-0.985115 -0.20121,-1.255281 0.13531,-2.471573 0.12907,-0.455781 0.97431,-2.437655 1.10305,-2.792701 l 0.0631,-0.174709 z" inkscape:connector-curvature="0" sodipodi:nodetypes="ccccsccccc" id="path962"/>
  <path style="fill:#d4aa00;fill-opacity:1;stroke:#d4aa00;stroke-width:0.03363014;stroke-opacity:1" d="m 72.205617,70.580374 c -0.05439,0.385112 -0.174226,1.217298 -0.261912,1.847275 -0.195731,1.39503 -0.481558,2.445653 -0.637834,2.94157 -0.149292,0.470689 -0.366225,0.932152 -0.709305,1.444014 -0.390738,0.586823 -1.44274,1.606244 -1.614963,1.566745 -0.284816,-0.06596 -0.274027,-2.768655 0.07007,-3.957397 0.273198,-0.952542 0.288462,-1.238147 1.059956,-2.236844 0.29186,-0.373119 1.823818,-1.888155 2.077268,-2.168146 l 0.124492,-0.13787 z" inkscape:connector-curvature="0" sodipodi:nodetypes="ccccsccccc" id="path964"/>
  <path style="fill:#d4aa00;fill-opacity:1;stroke:#d4aa00;stroke-width:0.03402551;stroke-opacity:1" d="m 73.250368,64.361845 c -0.185258,0.387748 -0.587818,1.225392 -0.88965,1.859791 -0.669825,1.404683 -1.308647,2.449156 -1.630889,2.940095 -0.306796,0.465885 -0.676067,0.915792 -1.185086,1.404903 -0.581055,0.560997 -1.952602,1.499386 -2.106153,1.442382 -0.253684,-0.09492 0.686538,-2.852004 1.429403,-4.031783 0.592787,-0.945611 0.705854,-1.235593 1.798082,-2.180015 0.411587,-0.352485 2.419403,-1.750142 2.761668,-2.011316 l 0.168234,-0.128639 z" inkscape:connector-curvature="0" sodipodi:nodetypes="ccccsccccc" id="path966"/>
  <path style="fill:#d4aa00;fill-opacity:1;stroke:#d4aa00;stroke-width:0.03267556;stroke-opacity:1" d="m 73.92227,59.386405 c -0.17801,0.322293 -0.56501,1.018063 -0.85503,1.545619 -0.64369,1.167806 -1.26318,2.008454 -1.57636,2.399262 -0.29819,0.370666 -0.65922,0.714263 -1.15937,1.066635 -0.57088,0.404704 -1.92574,1.003033 -2.0805,0.920088 -0.2557,-0.137739 0.63288,-2.503567 1.35394,-3.448923 0.57531,-0.75823 0.68295,-1.004275 1.75815,-1.663146 0.40523,-0.245142 2.38816,-1.143201 2.72575,-1.317488 l 0.16592,-0.08592 z" inkscape:connector-curvature="0" sodipodi:nodetypes="ccccsccccc" id="path968"/>
  <path style="fill:#d4aa00;fill-opacity:1;stroke:#d4aa00;stroke-width:0.03557498;stroke-opacity:1" d="m 78.26657,54.615878 c -0.29513,0.271239 -0.93536,0.856154 -1.41687,1.30046 -1.06784,0.983125 -2.01639,1.65402 -2.48636,1.959975 -0.44708,0.289913 -0.95898,0.538705 -1.63359,0.763226 -0.77071,0.2587 -2.49862,0.520732 -2.65372,0.403639 -0.25604,-0.194143 1.42869,-2.28378 2.5235,-3.032484 0.8746,-0.601218 1.06736,-0.814948 2.49004,-1.201749 0.5353,-0.142693 3.07046,-0.547926 3.50805,-0.637709 l 0.21514,-0.04438 z" inkscape:connector-curvature="0" sodipodi:nodetypes="ccccsccccc" id="path970"/>
  <path style="fill:#d4aa00;fill-opacity:1;stroke:#d4aa00;stroke-width:0.03557498;stroke-opacity:1" d="m 82.524262,51.852558 c -0.35542,0.185319 -1.12555,0.583966 -1.7059,0.888031 -1.28646,0.67219 -2.37666,1.073825 -2.90995,1.247279 -0.50701,0.163904 -1.06595,0.271269 -1.77572,0.312954 -0.81145,0.04974 -2.54814,-0.145799 -2.66752,-0.299144 -0.19686,-0.253958 1.9726,-1.834567 3.22425,-2.273372 1.0007,-0.353545 1.24233,-0.509904 2.71665,-0.514094 0.55399,0.0012 3.10743,0.267995 3.55333,0.294895 l 0.21928,0.013 z" inkscape:connector-curvature="0" sodipodi:nodetypes="ccccsccccc" id="path972"/>
  <path style="fill:#d4aa00;fill-opacity:1;stroke:#d4aa00;stroke-width:0.03371033;stroke-opacity:1" d="m 86.65562,48.323728 c -0.362973,0.161092 -1.149515,0.507614 -1.742178,0.771931 -1.313777,0.584316 -2.429765,0.932942 -2.976032,1.083404 -0.519362,0.142169 -1.093056,0.234948 -1.823063,0.270194 -0.834547,0.04212 -2.625391,-0.131178 -2.750685,-0.265124 -0.206635,-0.221833 2.001893,-1.597156 3.283497,-1.977951 1.024602,-0.306817 1.270895,-0.442827 2.788527,-0.444166 0.570305,0.0019 3.203056,0.238646 3.662497,0.262811 l 0.225934,0.01165 z" inkscape:connector-curvature="0" sodipodi:nodetypes="ccccsccccc" id="path974" inkscape:transform-center-x="0.27846924" inkscape:transform-center-y="0.47246554"/>
 </g>
</svg>
