<?xml version='1.0' encoding='UTF-8' standalone='no'?>
<svg id="svg2" height="64.414513" xmlns:dc="http://purl.org/dc/elements/1.1/" version="1.1" inkscape:version="0.92.4 (5da689c313, 2019-01-14)" xmlns:cc="http://creativecommons.org/ns#" xmlns:svg="http://www.w3.org/2000/svg" xmlns:sodipodi="http://sodipodi.sourceforge.net/DTD/sodipodi-0.dtd" sodipodi:docname="SENSO-Trail2.svg" xmlns:inkscape="http://www.inkscape.org/namespaces/inkscape" width="134.37947" xmlns:rdf="http://www.w3.org/1999/02/22-rdf-syntax-ns#" viewBox="0 0 134.37947 64.414514" xmlns="http://www.w3.org/2000/svg">
 <sodipodi:namedview inkscape:pageopacity="0" inkscape:cy="35.910741" inkscape:pageshadow="2" borderopacity="1" fit-margin-top="0" pagecolor="#ffffff" inkscape:snap-global="true" showgrid="false" objecttolerance="10" bordercolor="#666666" inkscape:cx="-31.557773" guidetolerance="10" inkscape:window-x="-9" inkscape:current-layer="svg2" inkscape:window-width="1920" id="namedview10" fit-margin-bottom="0" inkscape:window-maximized="1" inkscape:window-height="1001" fit-margin-left="0" inkscape:window-y="1071" gridtolerance="10" fit-margin-right="0" inkscape:zoom="2.8284271"/>
 <metadata id="metadata8">
  <rdf:RDF>
   <cc:Work rdf:about="">
    <dc:format>image/svg+xml</dc:format>
    <dc:type rdf:resource="http://purl.org/dc/dcmitype/StillImage"/>
    <dc:title/>
   </cc:Work>
  </rdf:RDF>
 </metadata>
 <defs id="defs6">
  <clipPath id="clipPath143" clipPathUnits="userSpaceOnUse">
   <rect id="rect145" height="203.14427" transform="rotate(-43.315315)" style="stroke-width:1.71212864" y="67.804993" x="-715.1568" width="203.14427"/>
  </clipPath>
  <clipPath id="clipPath4719" clipPathUnits="userSpaceOnUse">
   <rect style="fill:#000000;fill-opacity:1;stroke:#000000" id="rect4721" height="42.942448" y="25.718069" rx="2.47085" ry="0.40744901" x="-34.546959" width="8.8779888"/>
  </clipPath>
  <clipPath id="clipPath4885" clipPathUnits="userSpaceOnUse">
   <circle transform="rotate(-38.419141)" id="circle4887" style="fill:none;stroke:#4d4d4d;stroke-width:0.60246503" cy="-28.001387" r="10.929907" cx="-52.648228"/>
  </clipPath>
  <clipPath id="clipPath4889" clipPathUnits="userSpaceOnUse">
   <circle transform="rotate(-38.419141)" id="circle4891" style="fill:none;stroke:#4d4d4d;stroke-width:0.60246503" cy="-28.001387" r="10.929907" cx="-52.648228"/>
  </clipPath>
  <clipPath id="clipPath4893" clipPathUnits="userSpaceOnUse">
   <circle transform="rotate(-38.419141)" id="circle4895" style="fill:none;stroke:#4d4d4d;stroke-width:0.60246503" cy="-28.001387" r="10.929907" cx="-52.648228"/>
  </clipPath>
  <clipPath id="clipPath4897" clipPathUnits="userSpaceOnUse">
   <circle transform="rotate(-38.419141)" id="circle4899" style="fill:none;stroke:#4d4d4d;stroke-width:0.60246503" cy="-28.001387" r="10.929907" cx="-52.648228"/>
  </clipPath>
  <clipPath id="clipPath4913" clipPathUnits="userSpaceOnUse">
   <circle transform="rotate(-38.419141)" id="circle4915" style="fill:none;stroke:#4d4d4d;stroke-width:1.33852994" cy="-54.134789" r="24.283579" cx="-88.579475"/>
  </clipPath>
  <clipPath id="clipPath4923" clipPathUnits="userSpaceOnUse">
   <path style="fill:none;stroke:#000000;stroke-width:1.67334652px;stroke-linecap:butt;stroke-linejoin:miter;stroke-opacity:1" id="path4925" inkscape:connector-curvature="0" d="m -98.061502,-0.25402155 c -0.494788,0 -0.989577,0 -1.484365,0 -0.190303,0 -0.383677,0.0340426 -0.570913,0 -0.23683,-0.0430607 -0.44905,-0.18115558 -0.68509,-0.22836403 -0.29857,-0.0597146 -0.61488,0.0597145 -0.91346,0 -0.23604,-0.0472085 -0.44905,-0.18115557 -0.68509,-0.22836402 -0.14928,-0.0298572 -0.30541,0.0168124 -0.45673,0 -0.19288,-0.0214317 -0.37833,-0.0901103 -0.5709,-0.114182 -0.11331,-0.0141625 -0.22837,0 -0.34255,0 -0.30449,0 -0.60897,0 -0.91346,0 -0.11419,0 -0.23422,0.0361075 -0.34254,0 -0.0361,-0.0120358 0.0269,-0.0872691 0,-0.11418201 -0.0269,-0.0269129 -0.0761,0 -0.11419,0 -0.22837,0 -0.45673,0 -0.6851,0 -0.0761,0 -0.15451,0.0184621 -0.22836,0 -0.0826,-0.0206413 -0.14653,-0.0908015 -0.22836,-0.11418199 -0.18661,-0.053316 -0.38264,-0.067113 -0.57091,-0.114182 -0.23353,-0.058382 -0.44905,-0.1811556 -0.6851,-0.228364 -0.0746,-0.014928 -0.15371,0.014928 -0.22836,0 -0.11802,-0.023604 -0.22836,-0.076121 -0.34255,-0.114182 -0.11419,-0.038061 -0.23079,-0.069482 -0.34254,-0.114182 -0.0656,-0.026253 -0.3911,-0.2021111 -0.45673,-0.228364 -0.0743,-0.029727 -0.48165,-0.1391049 -0.57091,-0.228364 -0.0269,-0.026913 0.0269,-0.087269 0,-0.114182 -0.0269,-0.026913 -0.0781,0.012036 -0.11419,0 -0.82707,-0.2756892 0.18002,0.032919 -0.34255,-0.228364 -0.33234,-0.1661732 -0.40151,-0.03931 -0.68509,-0.228364 -0.59861,-0.3990767 0.49479,0.2664247 -0.11419,-0.3425461 -0.11419,-0.1141824 -0.22836,0.057091 -0.34254,0 -0.25247,-0.1262305 -0.0354,-0.070866 -0.11419,-0.2283639 -0.0523,-0.1045139 -0.25911,-0.2005496 -0.34255,-0.2283639 -0.0361,-0.012031 -0.0873,0.026912 -0.11417,0 -1.1e-4,-1.092e-4 1.7e-4,-0.3420286 0,-0.3425461 -0.017,-0.051064 -0.0901,-0.066039 -0.11419,-0.1141825 -0.017,-0.034043 0.017,-0.08014 0,-0.1141825 -0.0241,-0.048144 -0.0843,-0.069397 -0.11419,-0.1141825 -0.0472,-0.070813 -0.067,-0.1575506 -0.11419,-0.2283639 -0.0299,-0.044785 -0.0761,-0.076122 -0.11419,-0.1141825 -0.11419,-0.1141825 -0.24167,-0.2164531 -0.34255,-0.3425461 -0.0532,-0.066457 -0.054,-0.1681849 -0.11418,-0.2283639 -0.0602,-0.060179 -0.16819,-0.054002 -0.22837,-0.1141825 -0.0269,-0.026912 0.0269,-0.087268 0,-0.1141825 -0.0602,-0.060179 -0.1773,-0.046097 -0.22836,-0.1141824 -0.0722,-0.096286 -0.042,-0.2462593 -0.11419,-0.3425461 -0.0511,-0.068085 -0.1773,-0.046097 -0.22837,-0.1141825 -0.0722,-0.096286 -0.042,-0.2462592 -0.11418,-0.3425459 -0.0511,-0.068085 -0.15755,-0.066974 -0.22837,-0.1141825 -0.0448,-0.029858 -0.0761,-0.076121 -0.11419,-0.1141825 -0.0761,-0.076122 -0.16865,-0.1387924 -0.22836,-0.2283639 -0.0211,-0.031668 0.0269,-0.087268 0,-0.1141825 -0.0269,-0.026912 -0.0761,0 -0.11419,0 -0.0761,0 -0.16027,0.034043 -0.22836,0 -0.034,-0.017021 0.012,-0.078075 0,-0.1141825 -0.0269,-0.080739 -0.054,-0.1681847 -0.11419,-0.2283639 -0.23625,-0.2362466 0.009,0.3610161 -0.22837,-0.1141825 -0.0787,-0.1574971 0.13829,-0.1021327 -0.11419,-0.2283641 -0.034,-0.017021 -0.0873,0.026912 -0.11419,0 -0.23624,-0.2362466 0.36102,0.00924 -0.11419,-0.228364 -0.15749,-0.078749 -0.10214,0.1382804 -0.22836,-0.1141824 -0.0457,-0.091346 0.0457,-0.2512005 0,-0.3425461 -0.0481,-0.096286 -0.19432,-0.1262356 -0.22836,-0.228364 -0.0241,-0.072215 0,-0.1522427 0,-0.2283641 0,-0.1141825 0,-0.2283639 0,-0.3425459 0,-0.065791 -0.0208,-0.5292936 0,-0.57091 0.0481,-0.096288 0.18022,-0.1320773 0.22836,-0.2283642 0.017,-0.034042 -0.017,-0.08014 0,-0.1141824 0.0241,-0.048144 0.0901,-0.066039 0.11417,-0.1141825 0.017,-0.034043 -0.0211,-0.082515 0,-0.1141826 0.0597,-0.08957 0.15224,-0.152243 0.22837,-0.228364 0.0761,-0.07612 0.15224,-0.152243 0.22836,-0.228364 0.0381,-0.03806 0.0901,-0.06604 0.11419,-0.114182 0.017,-0.03404 -0.0211,-0.08252 0,-0.114183 -0.0977,-0.529736 0.24551,-0.131327 0.34255,-0.228364 0.0602,-0.06018 0.067,-0.15755 0.11419,-0.228364 0.0298,-0.04478 0.0761,-0.07612 0.11418,-0.114182 0.0381,-0.03806 0.066,-0.09011 0.11419,-0.114183 0.034,-0.01702 0.0801,0.01702 0.11419,0 0.0963,-0.04814 0.13208,-0.180221 0.22837,-0.228364 0.0681,-0.03404 0.17454,0.05383 0.22836,0 0.0269,-0.02691 -0.0269,-0.08727 0,-0.114182 0.0269,-0.02691 0.0761,0 0.11419,0 0.22836,0 0.45673,0 0.68509,0 0.53285,0 1.0657,0 1.59855,0 0.22836,0 0.45673,0 0.68509,0 0.0761,0 0.15452,0.01846 0.22837,0 0.0826,-0.02064 0.1458,-0.09354 0.22836,-0.114183 0.0738,-0.01846 0.15224,0 0.22836,0 0.19031,0 0.38061,0 0.57091,0 0.57091,0 1.14182,0 1.71273,0 0.38061,0 0.76122,0 1.14182,0 0.0761,0 0.15225,0 0.22837,0 0.11417,0 0.23177,-0.02769 0.34254,0 0.0522,0.01305 0.066,0.09011 0.11419,0.114183 0.0337,0.01685 0.68165,0 0.79928,0 0.60897,0 1.21794,0 1.82691,0 0.22836,0 0.45673,0 0.68509,0 0.0761,0 0.15224,0 0.22837,0 0.0381,0 0.0781,-0.01203 0.11418,0 0.0807,0.02691 0.15755,0.06697 0.22837,0.114182 0.0448,0.02986 0.0631,0.09716 0.11419,0.114183 0.063,0.02098 0.58819,0 0.68509,0 0.0381,0 0.0761,0 0.11419,0 0.0381,0 0.0801,-0.01702 0.11419,0 0.0481,0.02407 0.066,0.09011 0.11417,0.114182 0.034,0.01702 0.0761,0 0.11419,0 0.0381,0 0.0761,0 0.11419,0 0.22836,0 0.456726,0 0.685089,0 0.723154,0 1.446306,0 2.169459,0 0.228363,0 0.456728,0 0.685092,0 0.114189,0 0.231773,-0.02769 0.342545,0 0.08256,0.02064 0.145799,0.09354 0.228365,0.114183 0.07385,0.01846 0.152241,0 0.228364,0 0.228364,0 0.456728,0 0.685091,0 0.110441,0 0.651228,-0.01693 0.685093,0 0.04814,0.02407 0.06603,0.09011 0.114189,0.114182 0.03404,0.01702 0.08014,-0.01702 0.11419,0 0.290084,0.145042 -0.116934,0.136468 0.342545,0.228364 0.219582,0.04392 0.465512,-0.04392 0.685093,0 0.236043,0.04721 0.44905,0.181156 0.685092,0.228364 0.149279,0.02986 0.30903,-0.03692 0.456728,0 0.08256,0.02064 0.145799,0.09354 0.228363,0.114183 0.07385,0.01846 0.156157,-0.02407 0.228365,0 0.356398,0.118799 -0.03807,0.07612 0.114173,0.228364 0.03044,0.03044 0.524477,-0.03096 0.570911,0 0.07082,0.04721 0.04337,0.181155 0.114189,0.228363 0.06334,0.04223 0.155169,-0.02091 0.228363,0 0.733426,0.2095508 0.346656,0.2008461 0.913456,0.3425466 0.03693,0.00924 0.07612,0 0.11419,0 0.114189,0.03806 0.225781,0.084991 0.342545,0.1141824 0.03693,0.00924 0.07612,0 0.11419,0 0.09687,0 0.609335,-0.018939 0.685091,0 0.165126,0.041283 0.291597,0.1870815 0.456728,0.2283642 0.07385,0.018462 0.156157,-0.024071 0.228364,0 0.05107,0.017021 0.06603,0.09011 0.114189,0.1141824 0.09135,0.045672 0.251201,-0.045672 0.342546,0 0.03404,0.017021 -0.03404,0.097161 0,0.1141825 0.07271,0.03635 0.572881,-0.037403 0.685091,0 0.07612,0.03806 0.152241,0.076122 0.228365,0.1141825 0,0.03806 -0.02691,0.087268 0,0.1141825 0.06017,0.060178 0.152241,0.076121 0.228363,0.1141824 0.07612,0.03806 0.147623,0.087268 0.228365,0.1141825 0.07222,0.024071 0.160273,-0.034043 0.228363,0 0.09628,0.048144 0.138788,0.1686496 0.228365,0.228364 0.498695,0.3324633 -0.03763,-0.050607 0.456729,0.1141824 0.157696,0.052567 0.116448,0.2586122 0.228363,0.3425461 0.09628,0.072215 0.234894,0.060356 0.342546,0.1141825 0.04814,0.024071 0.06939,0.084325 0.114189,0.1141825 0.07082,0.047208 0.181155,0.04337 0.228363,0.1141824 0.04222,0.063336 -0.04222,0.1650272 0,0.228364 0.01255,0.018949 0.410064,0.1933657 0.456728,0.2283641 0.08613,0.064591 0.152241,0.1522427 0.228365,0.228364 0.03807,0.03806 0.09011,0.066039 0.114173,0.1141824 0.01702,0.034043 -0.01702,0.08014 0,0.1141825 0.2376,0.4751983 -0.0079,-0.1220639 0.228365,0.1141825 0.02691,0.026912 -0.02691,0.087268 0,0.1141825 0.02691,0.026912 0.08727,-0.026912 0.114189,0 0.01104,0.011077 0,0.5273985 0,0.57091 0,0.2283639 0,0.4567281 0,0.685092 0,0.076121 0.01846,0.1545151 0,0.2283639 -0.02065,0.082565 -0.08258,0.1493446 -0.114189,0.2283642 -0.0447,0.1117494 -0.06036,0.2348941 -0.114189,0.3425459 -0.02408,0.048144 -0.08189,0.071122 -0.11419,0.1141825 -0.08233,0.1097832 -0.160273,0.2233972 -0.228363,0.3425459 -0.08445,0.1477866 -0.108014,0.3363696 -0.228365,0.456728 -0.08511,0.085106 -0.257439,0.029076 -0.342546,0.1141825 -0.08511,0.085106 -0.07612,0.2283641 -0.114189,0.3425461 -0.114189,0.076122 -0.24551,0.1313276 -0.342547,0.2283639 -0.120364,0.1203588 -0.126237,0.3205582 -0.228364,0.4567281 -0.493869,0.4938704 -0.01789,-0.030247 -0.342545,0.456728 -0.0969,0.145361 -0.351207,0.3160335 -0.456728,0.4567281 -0.05107,0.068085 -0.04337,0.1811555 -0.11419,0.228364 -0.06334,0.042225 -0.152241,0 -0.228363,0 -0.114189,0 -0.234223,-0.036107 -0.342546,0 -0.130186,0.043396 -0.232762,0.1460263 -0.342547,0.228364 -0.04305,0.032296 -0.06196,0.1011274 -0.114189,0.114182 -0.110776,0.027693 -0.234224,-0.036107 -0.342546,0 -0.130186,0.043396 -0.219804,0.16699301 -0.342547,0.228364 -0.03344,0.016743 -0.671243,0.21801376 -0.685043,0.22836341 -0.06809,0.0510637 -0.07612,0.15224274 -0.11419,0.22836401 -0.114172,0.11418198 -0.204079,0.25946643 -0.342545,0.34254604 -0.06528,0.03916417 -0.153714,-0.01492792 -0.228364,0 -0.118021,0.02360423 -0.223825,0.09439515 -0.342545,0.11418197 -0.112633,0.01877144 -0.230583,-0.02239289 -0.342548,0 -0.08345,0.01668996 -0.14441,0.10019062 -0.228363,0.11418198 -0.150166,0.0250286 -0.304486,0 -0.456728,0 -0.114189,0 -0.228364,0 -0.342546,0 -0.418668,0 -0.837334,0 -1.256002,0 -0.532849,0 -1.065699,0 -1.598548,0 -0.114189,0 -0.228364,0 -0.342546,0 -0.114189,0 -0.229918,-0.0187714 -0.342546,0 -0.118724,0.0197868 -0.224526,0.0905777 -0.342547,0.11418197 -0.127041,0.0254064 -0.42216,0 -0.570909,0 -0.380608,0 -0.761214,0 -1.14182,0 -0.190305,0 -0.380608,0 -0.570911,0 -0.07612,0 -0.160273,0.0340426 -0.228363,0 -0.03404,-0.0170213 0.02691,-0.087269 0,-0.11418197 -0.0571,-0.0570911 -0.285456,0.0570911 -0.342547,0 -0.02691,-0.0269129 0.02691,-0.087269 0,-0.11418198 -0.05383,-0.05382587 -0.174537,0.05382587 -0.228364,0 -0.02691,-0.02691293 0.02691,-0.08726904 0,-0.11418197 -0.02691,-0.02691293 -0.08014,0.01702128 -0.114189,0 -0.04814,-0.02407176 -0.07612,-0.07612137 -0.114189,-0.11418197 -0.114189,-0.0380606 -0.228365,-0.0761214 -0.342547,-0.11418198 z"/>
  </clipPath>
  <clipPath id="clipPath4929" clipPathUnits="userSpaceOnUse">
   <path style="fill:none;stroke:#000000;stroke-width:1.67334652px;stroke-linecap:butt;stroke-linejoin:miter;stroke-opacity:1" id="path4931" inkscape:connector-curvature="0" d="m -89.612032,-2.9943897 c -0.114189,-0.1522428 -0.228365,-0.3044855 -0.342546,-0.4567281 0,-0.03806 0.01702,-0.08014 0,-0.1141825 -0.02408,-0.048144 -0.06603,-0.09011 -0.114189,-0.1141824 -0.03404,-0.017021 -0.08727,0.026912 -0.114189,0 -0.02691,-0.026912 0.01205,-0.078075 0,-0.1141825 -0.02691,-0.080739 -0.06312,-0.1602782 -0.114189,-0.228364 -0.615981,-0.8213086 0.126789,0.2409673 -0.456727,-0.3425461 -0.02691,-0.026912 0.01702,-0.08014 0,-0.1141824 -0.06138,-0.1227417 -0.131324,-0.2455101 -0.228365,-0.3425461 -0.120364,-0.1203588 -0.336369,-0.1080062 -0.456728,-0.228364 -0.445622,-0.445622 0.02642,-0.061321 -0.114189,-0.3425461 -0.06851,-0.1370186 -0.274037,-0.2055276 -0.342548,-0.3425459 -0.01702,-0.034042 0.02691,-0.087268 0,-0.1141825 -0.02691,-0.026912 -0.08727,0.026912 -0.114172,0 -0.02691,-0.026912 0.02691,-0.087268 0,-0.1141824 -0.02691,-0.026912 -0.08727,0.026912 -0.114189,0 -0.03986,-0.039856 0.04739,-0.3188478 0,-0.342546 -0.06809,-0.034042 -0.160273,0.034043 -0.228363,0 -0.03014,-0.01506 0.02274,-0.160161 0,-0.2283641 -0.02691,-0.080739 -0.07612,-0.1522427 -0.11419,-0.2283639 -0.07612,-0.1522428 -0.133951,-0.3151027 -0.228365,-0.4567281 -0.02985,-0.044785 -0.09011,-0.066039 -0.114189,-0.1141824 -0.01702,-0.034043 0.01702,-0.08014 0,-0.1141825 -0.2376,-0.4751981 0.0079,0.1220639 -0.228365,-0.1141825 -0.02691,-0.026912 0,-0.076121 0,-0.1141825 -0.03807,-0.076121 -0.054,-0.1681849 -0.114189,-0.2283639 -0.02691,-0.026912 -0.08727,0.026912 -0.114189,0 -0.05383,-0.053827 0.03404,-0.1602798 0,-0.2283641 -0.02408,-0.048144 -0.09011,-0.066039 -0.114189,-0.1141825 -0.03738,-0.074768 0.03377,-0.4695812 0,-0.57091 -0.02691,-0.080739 -0.08727,-0.1476244 -0.114189,-0.228364 -0.02408,-0.072215 0.05383,-0.1745382 0,-0.2283641 -0.236247,-0.2362466 0.0092,0.3610161 -0.228364,-0.1141825 -0.03404,-0.068085 0.05383,-0.1745381 0,-0.2283639 -0.02691,-0.026912 -0.08727,0.026912 -0.114189,0 -0.02691,-0.026912 0.02691,-0.08727 0,-0.1141825 -0.05383,-0.053826 -0.174538,0.053826 -0.228363,0 -0.02691,-0.026912 0.02691,-0.087268 0,-0.1141825 -0.05383,-0.053826 -0.160273,0.034043 -0.228365,0 -0.04814,-0.024071 -0.07612,-0.076122 -0.114189,-0.1141825 -0.07612,-0.076122 -0.152241,-0.1522428 -0.228365,-0.2283638 -0.178066,-0.178066 -0.321015,-0.331781 -0.570911,-0.456728 -0.06809,-0.03404 -0.152241,0 -0.228363,0 -0.03807,0 -0.08727,0.02691 -0.114189,0 -0.06017,-0.06018 -0.054,-0.168185 -0.114173,-0.228364 -0.02691,-0.02691 -0.08014,0.01702 -0.114189,0 -0.04814,-0.02407 -0.06312,-0.09716 -0.114189,-0.114183 -0.07222,-0.02407 -0.160273,0.03404 -0.228363,0 -0.03404,-0.01702 0,-0.07612 0,-0.114182 -0.07612,-0.03806 -0.147623,-0.08727 -0.228365,-0.114183 -0.03611,-0.01203 -0.07612,0 -0.114189,0 -0.11419,-0.03806 -0.230797,-0.06948 -0.342548,-0.114182 -0.158031,-0.06322 -0.291597,-0.187081 -0.456726,-0.228364 -0.07384,-0.01846 -0.160274,0.03404 -0.228365,0 -0.03404,-0.01702 0.03611,-0.102146 0,-0.114183 -0.108316,-0.03611 -0.231774,0.02769 -0.342546,0 -0.104434,-0.02611 -0.132077,-0.18022 -0.228365,-0.228364 -0.157495,-0.07875 -0.102124,0.138281 -0.228363,-0.114182 -0.01702,-0.03404 0.02691,-0.08727 0,-0.114183 -0.03763,-0.03764 -0.3741,0.02754 -0.456729,0 -0.05107,-0.01702 -0.06603,-0.09011 -0.114189,-0.114182 -0.03404,-0.01702 -0.07612,0 -0.114189,0 -0.07612,0 -0.156157,0.02407 -0.228365,0 -0.05107,-0.01702 -0.06196,-0.101127 -0.114172,-0.114183 -0.110776,-0.02769 -0.228365,0 -0.342548,0 -0.114189,0 -0.228363,0 -0.342548,0 -0.0381,0 -0.0773,0.0092 -0.11419,0 -0.11676,-0.02919 -0.22682,-0.08112 -0.34254,-0.114182 -0.15089,-0.04311 -0.3098,-0.05908 -0.45673,-0.114183 -0.56438,-0.28219 -0.29525,-0.174538 -0.79928,-0.342545 -0.11419,-0.03806 -0.23079,-0.06948 -0.34254,-0.114183 -0.079,-0.03161 -0.14441,-0.10019 -0.22837,-0.114182 -0.15016,-0.02503 -0.30448,0 -0.45672,0 -0.15224,0 -0.30449,0 -0.45673,0 -0.11419,0 -0.23178,0.02769 -0.34255,0 -0.0522,-0.01305 -0.0631,-0.09716 -0.11419,-0.114183 -0.0523,-0.01742 -0.50717,0 -0.57091,0 -0.41866,0 -0.83733,0 -1.256,0 -0.72315,0 -1.4463,0 -2.16946,0 -0.1903,0 -0.3806,0 -0.57091,0 -0.11419,0 -0.22992,-0.01877 -0.34254,0 -0.11873,0.01979 -0.2234,0.09716 -0.34255,0.114183 -0.15072,0.02153 -0.30448,0 -0.45673,0 -0.0761,0 -0.15614,-0.02407 -0.22836,0 -0.0511,0.01702 -0.0631,0.09716 -0.11419,0.114182 -0.0722,0.02407 -0.15224,0 -0.22836,0 -0.0761,0 -0.15224,0 -0.22837,0 -0.0967,0 -0.39534,-0.02046 -0.45673,0 -0.0511,0.01702 -0.0631,0.09716 -0.11419,0.114183 -0.43512,0.145042 -0.0195,-0.253404 -0.5709,0.114182 -0.0317,0.02111 0,0.07612 0,0.114182 -0.0381,0.03806 -0.066,0.09011 -0.11419,0.114183 -0.0681,0.03404 -0.15616,-0.02407 -0.22837,0 -0.0761,0.03806 -0.15224,0.07612 -0.22836,0.114182 0,0.03806 0.0269,0.08727 0,0.114183 -0.0602,0.06018 -0.15755,0.06697 -0.22836,0.114182 -0.0448,0.02986 -0.0631,0.09716 -0.11419,0.114183 -0.0722,0.02407 -0.15614,-0.02407 -0.22837,0 -0.22721,0.07574 -0.0533,0.10657 -0.11419,0.228364 -0.0241,0.04814 -0.0843,0.0694 -0.11419,0.114182 -0.0472,0.07081 -0.067,0.157551 -0.11418,0.228364 -0.0299,0.04479 -0.0901,0.06604 -0.11419,0.114183 -0.034,0.06808 0.034,0.160278 0,0.228364 -0.0241,0.04814 -0.0761,0.07612 -0.11419,0.114182 -0.0381,0.03806 -0.0694,0.08432 -0.11419,0.114183 -0.0708,0.04721 -0.1773,0.0461 -0.22837,0.114182 -0.13825,0.184339 -0.11418,0.36792 -0.11418,0.57091 0,0.07612 0,0.152243 0,0.228364 0,0.03806 0.0361,0.1021465 0,0.1141828 -0.10832,0.036107 -0.2512,-0.068509 -0.34255,0 -0.0963,0.072215 -0.0695,0.230796 -0.11419,0.3425461 -0.0316,0.079019 -0.067,0.1575506 -0.11417,0.228364 -0.12433,0.1864829 -0.16923,0.046872 -0.22837,0.3425461 0,0.1141824 0,0.2283639 0,0.3425459 -0.0381,0.03806 -0.0971,0.063119 -0.11419,0.1141825 -0.0195,0.058448 0,0.6034621 0,0.6850921 0,0.03806 0.017,0.08014 0,0.1141825 -0.0241,0.048144 -0.0901,0.066039 -0.11419,0.1141825 -0.017,0.034043 0,0.076122 0,0.1141825 0,0.2664247 0,0.5328494 0,0.7992741 0,0.076122 0,0.1522428 0,0.228364 0,0.076121 -0.034,0.1602781 0,0.2283641 0.017,0.034042 0.0801,-0.017021 0.11419,0 0.0482,0.024071 0.0901,0.066039 0.11419,0.1141825 0.034,0.068085 -0.034,0.1602798 0,0.2283639 0.0614,0.1227416 0.15777,0.2248725 0.22837,0.3425461 0.13515,0.225254 0.13211,0.3604815 0.34254,0.57091 0.0602,0.060179 0.16819,0.054002 0.22837,0.1141825 0.17232,0.1723271 0.2695,0.4148926 0.45673,0.57091 0.0585,0.048731 0.15451,-0.018462 0.22836,0 0.0826,0.020641 0.16027,0.063119 0.22836,0.1141825 0.17225,0.1291824 0.28861,0.322229 0.45673,0.4567281 0.10716,0.085727 0.22836,0.1522427 0.34255,0.2283641 0.11419,0.07612 0.21641,0.1743065 0.34254,0.2283639 0.81108,0.3476041 0.16374,0.00991 0.68509,0.1141825 0.41041,0.082081 0.72899,0.3879227 1.14183,0.4567281 0.11263,0.018772 0.22836,0 0.34254,0 0.1903,0 0.38061,0 0.57091,0 0.0381,0 0.0766,-0.00626 0.11419,0 0.19143,0.031906 0.38542,0.057108 0.57091,0.1141824 0.73223,0.2253011 0.81118,0.3894099 1.48437,0.4567281 0.45446,0.045446 0.91461,-0.03254 1.37018,0 0.26845,0.019175 0.53083,0.095008 0.79927,0.1141825 0.26575,0.018982 0.53377,-0.022125 0.79928,0 0.1934,0.016114 0.3778,0.094872 0.57091,0.1141825 0.18936,0.018935 0.38061,0 0.57091,0 0.64703,0 1.29406,0 1.94109,0 0.38061,0 0.761216,0 1.141824,0 0.148677,0 0.570661,0.022886 0.685091,0 0.08345,-0.016683 0.145799,-0.09354 0.228363,-0.1141825 0.07384,-0.018462 0.152242,0 0.228365,0 0.11685,0 0.819109,0.023588 0.913457,0 0.165126,-0.041283 0.29525,-0.1745381 0.456726,-0.228364 0.0618,-0.020599 0.41783,0 0.456729,0 0.304485,0 0.608971,0 0.913456,0 0.165126,0 0.678699,0.024115 0.799274,0 0.911335,-0.1822671 -0.834889,-0.1141824 0.685092,-0.1141824 0.228365,0 0.456728,0 0.685093,0 0.07612,0 0.152241,0 0.228363,0 0.03807,0 0.08014,0.017021 0.114189,0 0.04814,-0.024071 0.06603,-0.09011 0.114189,-0.1141825 0.02559,-0.012801 0.429595,0 0.456729,0 0.418666,0 0.837334,0 1.256,0 0.139741,0 0.455072,0.00497 0.456728,0 0.03611,-0.1083224 0.03611,-0.2342234 0,-0.3425459 -0.01205,-0.036107 -0.08727,0.026912 -0.114172,0 -0.02691,-0.026912 -0.02691,-0.087268 0,-0.1141825 0.0045,-0.0046 0.414796,0 0.456727,0 0.03807,0 0.08014,0.017021 0.114189,0 0.04814,-0.024071 0.06036,-0.1141825 0.114189,-0.1141825 0.156926,0 0.304485,0.076122 0.456728,0.1141825 z"/>
  </clipPath>
  <clipPath id="clipPath4937" clipPathUnits="userSpaceOnUse">
   <path style="fill:none;stroke:#000000;stroke-width:0.33466932;stroke-linecap:butt;stroke-linejoin:miter;stroke-miterlimit:4;stroke-dasharray:none;stroke-opacity:1" id="path4939" inkscape:connector-curvature="0" d="m -106.60726,-13.805544 3.31029,2.502905 9.527187,2.5029055 1.937734,3.7139881 -15.178911,2.7451217 -9.28497,-6.2976321 z"/>
  </clipPath>
  <clipPath id="clipPath5191" clipPathUnits="userSpaceOnUse">
   <path style="fill:none;stroke:#000000;stroke-width:1px;stroke-linecap:butt;stroke-linejoin:miter;stroke-opacity:1" id="path5193" inkscape:connector-curvature="0" d="M -69.327492,0.81882864 -46.127346,24.018974 -43.05674,8.3247579 V -2.7294289 Z"/>
  </clipPath>
  <clipPath id="clipPath5742" clipPathUnits="userSpaceOnUse">
   <path style="fill:none;stroke:#000000;stroke-width:1px;stroke-linecap:butt;stroke-linejoin:miter;stroke-opacity:1" id="path5744" inkscape:connector-curvature="0" d="m -74.513412,-4.640029 24.974273,24.974273 V -4.640029 Z"/>
  </clipPath>
  <clipPath id="clipPath5785" clipPathUnits="userSpaceOnUse">
   <rect style="fill:#333333;fill-opacity:1;stroke:none;stroke-width:0.22472635;stroke-miterlimit:4;stroke-dasharray:none;stroke-opacity:1" id="rect5787" height="11.156541" transform="rotate(45)" y="42.647324" ry="0.83432478" x="-29.375477" width="20.811895"/>
  </clipPath>
  <clipPath id="clipPath5799" clipPathUnits="userSpaceOnUse">
   <rect style="fill:#333333;fill-opacity:1;stroke:none;stroke-width:0.25457799;stroke-miterlimit:4;stroke-dasharray:none;stroke-opacity:1" id="rect5801" height="29.357262" transform="rotate(-45)" y="7.8397613" ry="5.8891525" x="-89.513351" width="29.725763"/>
  </clipPath>
  <clipPath id="clipPath5799-1" clipPathUnits="userSpaceOnUse">
   <rect style="fill:#333333;fill-opacity:1;stroke:none;stroke-width:0.25457799;stroke-miterlimit:4;stroke-dasharray:none;stroke-opacity:1" id="rect5801-2" height="29.357262" transform="rotate(-45)" y="7.8397613" ry="5.8891525" x="-89.513351" width="29.725763"/>
  </clipPath>
  <clipPath id="clipPath1540" clipPathUnits="userSpaceOnUse">
   <rect style="fill:none;fill-opacity:1;stroke:#000000;stroke-width:0.08992032;stroke-miterlimit:4;stroke-dasharray:none;stroke-opacity:1" id="rect1542" height="15.511255" transform="rotate(90)" y="24.288628" ry="1.1256225" x="75.154999" width="23.604084"/>
  </clipPath>
  <clipPath id="clipPath1119" clipPathUnits="userSpaceOnUse">
   <rect height="20.326616" id="rect1121" style="opacity:0.51099997;fill:none;fill-opacity:1;stroke:#000000;stroke-width:0.42558613;stroke-miterlimit:4;stroke-dasharray:none;stroke-dashoffset:0;stroke-opacity:1" y="74.346153" ry="1.5809379" rx="2.6286676" x="330.99872" width="20.003973"/>
  </clipPath>
  <clipPath id="clipPath3321" clipPathUnits="userSpaceOnUse">
   <rect style="opacity:0.51099997;fill:none;fill-opacity:1;stroke:#000000;stroke-width:0.42558613;stroke-miterlimit:4;stroke-dasharray:none;stroke-dashoffset:0;stroke-opacity:1" id="rect3323" height="20.326616" y="386.0423" rx="2.6286676" ry="1.5809379" x="753.90729" width="20.003973"/>
  </clipPath>
  <clipPath id="clipPath4719-1" clipPathUnits="userSpaceOnUse">
   <rect style="fill:#000000;fill-opacity:1;stroke:#000000" id="rect4721-4" height="42.942448" y="25.718069" rx="2.47085" ry="0.40744901" x="-34.546959" width="8.8779888"/>
  </clipPath>
  <clipPath id="clipPath5350" clipPathUnits="userSpaceOnUse">
   <rect style="fill:#000000;fill-opacity:1;stroke:#000000" id="rect5348" height="42.942448" y="25.718069" rx="2.47085" ry="0.40744901" x="-34.546959" width="8.8779888"/>
  </clipPath>
 </defs>
 <path style="fill:#00ffcc;fill-opacity:1;stroke:#333333;stroke-width:3.52751255;stroke-miterlimit:4;stroke-dasharray:none;stroke-dashoffset:0;stroke-opacity:1" id="path4018" sodipodi:nodetypes="ccccccc" inkscape:connector-curvature="0" d="m 114.76629,1.7637564 17.57657,30.4435196 -17.57655,30.44348 H 19.61316 L 2.0366102,32.207256 19.61317,1.7637665 Z"/>
 <g transform="matrix(0.15188693,0,0,0.15188693,13.897581,43.038213)" style="fill:#f59e00;fill-opacity:1;stroke-width:6.13394785" id="use5541">
  <path id="path368" style="stroke:none;stroke-width:6.13394785" inkscape:connector-curvature="0" d="M 69.234375,-11.734375 C 69.234375,-3.910156 65.351563,0 57.59375,0 H 18.953125 c -7.710937,0 -11.5625,-3.910156 -11.5625,-11.734375 v -30.59375 h 19.1875 v 26.171875 h 23.46875 v -25.1875 L 11.5625,-77.765625 c -2.78125,-2.675781 -4.171875,-6.09375 -4.171875,-10.25 V -116.5625 c 0,-7.875 3.851563,-11.8125 11.5625,-11.8125 H 57.59375 c 7.757813,0 11.640625,3.88281 11.640625,11.64062 v 28.718755 h -19.1875 V -112.21875 H 26.578125 V -89 l 38.46875,36.25 c 2.789063,2.625 4.1875,6.101562 4.1875,10.421875 z m 0,0"/>
 </g>
 <g transform="matrix(0.15188693,0,0,0.15188693,25.558851,43.038213)" style="fill:#f59e00;fill-opacity:1;stroke-width:6.13394785" id="use5543">
  <path id="path408" style="stroke:none;stroke-width:6.13394785" inkscape:connector-curvature="0" d="M 60.953125,0 H 7.71875 v -128.375 h 52.734375 v 16.96875 H 26.90625 v 37.5 h 28.875 v 16.640625 h -28.875 v 40.28125 h 34.046875 z m 0,0"/>
 </g>
 <g transform="matrix(0.15188693,0,0,0.15188693,35.638071,43.038213)" style="fill:#f59e00;fill-opacity:1;stroke-width:6.13394785" id="use5545">
  <path id="path420" style="stroke:none;stroke-width:6.13394785" inkscape:connector-curvature="0" d="m 72.765625,0 h -16.8125 L 25.1875,-80.796875 c 0.820313,3.9375 1.234375,7.027344 1.234375,9.265625 V 0 H 7.71875 v -128.375 h 16.8125 l 30.765625,79.15625 C 54.472656,-53.15625 54.0625,-56.242188 54.0625,-58.484375 V -128.375 h 18.703125 z m 0,0"/>
 </g>
 <g transform="matrix(0.15188693,0,0,0.15188693,47.860711,43.038213)" style="fill:#f59e00;fill-opacity:1;stroke-width:6.13394785" id="use5547">
  <path id="path372" style="stroke:none;stroke-width:6.13394785" inkscape:connector-curvature="0" d="M 69.234375,-11.734375 C 69.234375,-3.910156 65.351563,0 57.59375,0 H 18.953125 c -7.710937,0 -11.5625,-3.910156 -11.5625,-11.734375 v -30.59375 h 19.1875 v 26.171875 h 23.46875 v -25.1875 L 11.5625,-77.765625 c -2.78125,-2.675781 -4.171875,-6.09375 -4.171875,-10.25 V -116.5625 c 0,-7.875 3.851563,-11.8125 11.5625,-11.8125 H 57.59375 c 7.757813,0 11.640625,3.88281 11.640625,11.64062 v 28.718755 h -19.1875 V -112.21875 H 26.578125 V -89 l 38.46875,36.25 c 2.789063,2.625 4.1875,6.101562 4.1875,10.421875 z m 0,0"/>
 </g>
 <g transform="matrix(0.15188693,0,0,0.15188693,71.715771,43.038213)" style="fill:#f59e00;fill-opacity:1;stroke-width:6.13394785" id="use5553">
  <path id="path284" style="stroke:none;stroke-width:6.13394785" inkscape:connector-curvature="0" d="m 45.359375,-40.859375 h -39.125 V -58 h 39.125 z m 0,0"/>
 </g>
 <g transform="matrix(0.15188693,0,0,0.15188693,79.571361,43.038213)" style="fill:#f59e00;fill-opacity:1;stroke-width:6.13394785" id="use5557">
  <path id="path376" style="stroke:none;stroke-width:6.13394785" inkscape:connector-curvature="0" d="M 63.5,-111.40625 H 42.328125 V 0 H 23.21875 V -111.40625 H 2.046875 V -128.375 H 63.5 Z m 0,0"/>
 </g>
 <g transform="matrix(0.15188693,0,0,0.15188693,89.522991,43.038213)" style="fill:#f59e00;fill-opacity:1;stroke-width:6.13394785" id="use5559">
  <path id="path324" style="stroke:none;stroke-width:6.13394785" inkscape:connector-curvature="0" d="m 58.984375,-48.234375 h -18.625 V -67.1875 l -14.84375,0.328125 V 0 H 6.734375 v -82.859375 h 18.78125 v 3.046875 c 3.882813,-0.71875 7.738281,-1.429688 11.5625,-2.140625 4.644531,-0.820313 8.53125,-1.234375 11.65625,-1.234375 6.832031,0 10.25,3.367187 10.25,10.09375 z m 0,0"/>
 </g>
 <g transform="matrix(0.15188693,0,0,0.15188693,98.654131,43.038213)" style="fill:#f59e00;fill-opacity:1;stroke-width:6.13394785" id="use5561">
  <path id="path380" style="stroke:none;stroke-width:6.13394785" inkscape:connector-curvature="0" d="M 60.125,0 H 42.171875 v -2.875 c -4.273437,0.65625 -8.539062,1.3125 -12.796875,1.96875 -5.585937,0.8242187 -9.824219,1.234375 -12.71875,1.234375 -6.835937,0 -10.25,-3.363281 -10.25,-10.09375 V -39.625 c 0,-6.832031 3.523438,-10.25 10.578125,-10.25 h 25.34375 v -19.03125 h -17.96875 v 11.8125 H 7.390625 v -15.5 c 0,-6.84375 3.523438,-10.265625 10.578125,-10.265625 h 31.75 c 6.9375,0 10.40625,3.421875 10.40625,10.265625 z M 42.328125,-14.9375 v -22.21875 h -17.96875 v 22.875 z m 0,0"/>
 </g>
 <g transform="matrix(0.15188693,0,0,0.15188693,115.46013,43.038213)" style="fill:#f59e00;fill-opacity:1;stroke-width:6.13394785" id="use5565">
  <path id="path280" style="stroke:none;stroke-width:6.13394785" inkscape:connector-curvature="0" d="M 25.671875,0 H 7.21875 v -128.375 h 18.453125 z m 0,0"/>
 </g>
 <path id="path10864-1" style="display:inline;fill:#f5a000;fill-opacity:1;fill-rule:nonzero;stroke:none;stroke-width:0.84716451" inkscape:connector-curvature="0" d="m 112.87927,42.964384 c 0.15465,-0.05524 0.26514,-0.15468 0.33144,-0.309363 0.0442,-0.08839 0.0553,-0.375659 0.0553,-2.2871 0,-1.204319 0,-2.198706 0.0113,-2.220804 0.0221,-0.04422 0.18784,-0.04422 0.91706,-0.03315 0.60768,0 0.88387,0 0.88387,-0.03315 0,-0.01105 -0.0663,-0.243072 -0.1657,-0.497194 -0.0884,-0.26517 -0.25413,-0.751318 -0.37567,-1.082782 -0.1105,-0.342513 -0.35355,-1.027536 -0.53034,-1.524729 -0.30938,-0.883902 -0.77342,-2.220805 -0.98337,-2.83954 l -0.0994,-0.298316 0.0773,-0.08839 c 0.18784,-0.198877 0.26518,-0.08839 0.60772,0.861803 0.1657,0.430903 0.43089,1.171169 0.59664,1.635223 0.1657,0.464049 0.34248,0.939144 0.38668,1.049634 0.17679,0.508243 0.47509,0.685026 0.82868,0.497199 0.15469,-0.08839 0.28724,-0.298324 0.28724,-0.464054 0,-0.04421 -0.1436,-0.497193 -0.33145,-0.994387 -0.18784,-0.497199 -0.35357,-0.961247 -0.37567,-1.027541 -0.0884,-0.276221 -0.83969,-2.287091 -0.90598,-2.441781 -0.0884,-0.187829 -0.32044,-0.397752 -0.50824,-0.486144 -0.37568,-0.15468 -0.55248,-0.176778 -2.01088,-0.15468 -1.2706,0.01105 -1.39215,0.01105 -1.62419,0.07734 -0.59663,0.165734 -0.89496,0.452999 -1.02751,0.972296 -0.0329,0.14363 -0.0443,0.61873 -0.0443,2.419679 0,2.209756 0,2.231859 0.0663,2.331293 0.25415,0.331468 0.74027,0.320413 0.91706,-0.03315 0.0553,-0.09943 0.0553,-0.265167 0.0553,-2.077171 0,-1.513678 0.0108,-1.988777 0.0442,-2.04402 0.0552,-0.121537 0.23204,-0.132587 0.32043,-0.04421 l 0.0663,0.06629 v 5.314462 5.314467 l 0.0773,0.143635 c 0.13258,0.27622 0.56352,0.41985 0.82866,0.27622 0.22099,-0.110487 0.22099,-0.17678 0.22099,-2.64066 0,-2.485978 -0.0329,-2.231856 0.33145,-2.220801 0.14365,0.01105 0.19889,0.0221 0.22099,0.06629 0.0108,0.0221 0.0108,1.027536 0.0108,2.231855 -0.0108,1.933539 0,2.198706 0.0442,2.287098 0.14364,0.287268 0.47513,0.408805 0.79552,0.298315 z m -0.72923,-13.214339 c 0.34249,-0.110491 0.69608,-0.44195 0.81759,-0.762364 0.0994,-0.254128 0.0994,-0.607685 0,-0.872861 -0.0994,-0.265167 -0.37565,-0.552437 -0.66294,-0.685021 -0.18779,-0.09944 -0.25409,-0.110483 -0.51928,-0.121537 -0.24305,-0.01105 -0.30934,0 -0.35354,0.04422 -0.0221,0.0221 -0.0553,0.05524 -0.0773,0.05524 -0.0663,0 -0.44194,0.276221 -0.54138,0.408809 -0.30939,0.441951 -0.30939,1.060681 0.0221,1.502631 0.0663,0.08839 0.13255,0.165735 0.14361,0.165735 0.0221,0 0.0994,0.05524 0.18783,0.121531 0.0773,0.05525 0.16575,0.110492 0.1989,0.110492 0.0221,0 0.0442,0.02205 0.0552,0.04422 0.0221,0.06629 0.50824,0.06629 0.72923,-0.01105 z"/>
 <path style="fill:#f59e00;fill-opacity:1;fill-rule:nonzero;stroke:none;stroke-width:0.27197114" id="path10848-7" sodipodi:nodetypes="sccccsccscccccccccccc" inkscape:connector-curvature="0" d="m 60.409041,33.399879 c 0,-4.912689 0.0319,-9.055664 0.0709,-9.201094 0.0355,-0.14543 0.25184,-0.358254 0.47885,-0.475307 0.63138,-0.319236 8.67259,-0.191542 9.27559,0.14543 0.62783,0.35116 0.58881,-0.386631 0.56398,10.736974 -0.0142,6.2322 -0.0851,7.70778 -0.39727,8.044751 -0.31214,0.336972 -1.06767,0.407913 -4.10041,0.383084 -4.48704,-0.03902 -5.45184,-0.113506 -5.70369,-0.443383 -0.10286,-0.141884 -0.18799,-4.274218 -0.18799,-9.190455 z m 5.15389,7.200549 c 2.32333,0.02128 3.45686,-0.0071 3.52071,-0.06385 0.1206,-0.102866 0.13834,-1.464939 0.13479,-10.602189 v -4.2281 l -3.46751,-0.04966 c -2.36234,-0.02838 -3.5349,0.0071 -3.61648,0.07803 -0.15607,0.131242 -0.21282,14.500416 -0.0603,14.706145 0.0497,0.06385 1.16546,0.134789 3.48879,0.159618 z m 0.0922,-15.756076 c 0.83002,-0.0036 1.4543,-0.08158 1.38691,-0.17026 -0.13834,-0.184446 -2.64257,-0.227011 -2.8483,-0.04966 -0.2412,0.20573 -0.0674,0.230561 1.46139,0.219918 z"/>
</svg>
